/* XPM */
static char *bella_l[] = {
/* columns rows colors chars-per-pixel */
"50 50 214 2 ",
"   c #0D0D0D",
".  c #1E0000",
"X  c #151818",
"o  c #1C1C1C",
"O  c #181615",
"+  c #250402",
"@  c #2C0201",
"#  c #2C0C0A",
"$  c #240807",
"%  c #320301",
"&  c #3B0906",
"*  c #330D0A",
"=  c #3B0D09",
"-  c #370704",
";  c #33100E",
":  c #3C110E",
">  c #211312",
",  c #291A19",
"<  c #331210",
"1  c #3D1411",
"2  c #3A1D1C",
"3  c #381917",
"4  c #1C2122",
"5  c #242323",
"6  c #2D2D2D",
"7  c #282928",
"8  c #2E3031",
"9  c #343434",
"0  c #3B3B3B",
"q  c #363736",
"w  c #392625",
"e  c #420905",
"r  c #430D0A",
"t  c #4A0D09",
"y  c #43110E",
"u  c #49110D",
"i  c #441511",
"p  c #4A1612",
"a  c #461915",
"s  c #4C1915",
"d  c #4D1D19",
"f  c #541915",
"g  c #5B1B16",
"h  c #541D19",
"j  c #591C18",
"k  c #510C07",
"l  c #611D17",
"z  c #611D18",
"x  c #51211D",
"c  c #482826",
"v  c #542622",
"b  c #552825",
"n  c #562B28",
"m  c #592E2A",
"M  c #5A2825",
"N  c #5A312E",
"B  c #493737",
"V  c #5B3532",
"C  c #543F3D",
"Z  c #583835",
"A  c #49302E",
"S  c #653C39",
"D  c #61322E",
"F  c #59403E",
"G  c #434343",
"H  c #4A4848",
"J  c #5A4544",
"K  c #514545",
"L  c #525353",
"P  c #5A595A",
"I  c #4E5853",
"U  c #6B4441",
"Y  c #694A47",
"T  c #704D48",
"R  c #74514D",
"E  c #6B5755",
"W  c #775957",
"Q  c #6C504F",
"!  c #4F6054",
"~  c #56655B",
"^  c #6C625D",
"/  c #7B605E",
"(  c #73645A",
")  c #5F5F60",
"_  c #5C6F63",
"`  c #666564",
"'  c #686967",
"]  c #6B6C6B",
"[  c #726461",
"{  c #756B63",
"}  c #796B67",
"|  c #7C736C",
" . c #6F7171",
".. c #727271",
"X. c #7D7976",
"o. c #697D6E",
"O. c #81625E",
"+. c #856C69",
"@. c #86756F",
"#. c #837B73",
"$. c #867E79",
"%. c #897F7D",
"&. c #877674",
"*. c #917C7B",
"=. c #90726D",
"-. c #6D8475",
";. c #708174",
":. c #86817E",
">. c #8C827C",
",. c #96867F",
"<. c #8B8582",
"1. c #8E8984",
"2. c #8C8A8A",
"3. c #868484",
"4. c #988483",
"5. c #928A85",
"6. c #948D8A",
"7. c #9B8D8B",
"8. c #938382",
"9. c #95918E",
"0. c #99928E",
"q. c #918F91",
"w. c #959293",
"e. c #9A9593",
"r. c #9E9995",
"t. c #9E9A9A",
"y. c #999698",
"u. c #A19A95",
"i. c #A29D9C",
"p. c #A69796",
"a. c #A49089",
"s. c #9FA09E",
"d. c #A6A19D",
"f. c #A8A19C",
"g. c #A6A99F",
"h. c #B1A49E",
"j. c #A29FA1",
"k. c #A5A2A2",
"l. c #ABA5A4",
"z. c #ADAAAA",
"x. c #AAA8A7",
"c. c #B2ADAD",
"v. c #B7ACA9",
"b. c #B6B1AE",
"n. c #BDB0AB",
"m. c #AFADB1",
"M. c #B1AEB1",
"N. c #B5B2B3",
"B. c #B9B5B4",
"V. c #BAB8B7",
"C. c #B7B5B9",
"Z. c #B9B7B9",
"A. c #BDBABB",
"S. c #A9B0A6",
"D. c #C0B4B4",
"F. c #C1BDBD",
"G. c #C3B8B2",
"H. c #C4C1BE",
"J. c #CBC4BD",
"K. c #BEBDC1",
"L. c #C1BFC1",
"P. c #BFC0C5",
"I. c #C4C3C4",
"U. c #C9C6C5",
"Y. c #C5C5C9",
"T. c #C8C7C9",
"R. c #CCCBCC",
"E. c #CCCBC5",
"W. c #D1CDCD",
"Q. c #D5CCC5",
"!. c #DBD5CD",
"~. c #D5D2CB",
"^. c #CDCDD1",
"/. c #D0CFD2",
"(. c #CED0D3",
"). c #D4D3D4",
"_. c #D9D6D5",
"`. c #DDD9D3",
"'. c #D6D6D9",
"]. c #D8D7D9",
"[. c #D7D9DB",
"{. c #DBDBDD",
"}. c #D6D9D4",
"|. c #CDD1CD",
" X c #E1DCD7",
".X c #E5D5CF",
"XX c #D9E6DB",
"oX c #E9E5DC",
"OX c #E6E4DB",
"+X c #DDDEE1",
"@X c #E0DFE1",
"#X c #DEE1E3",
"$X c #DDE8E0",
"%X c #E3E3E5",
"&X c #EBE9E4",
"*X c #E5E6E9",
"=X c #E7E8EA",
"-X c #EBEBEC",
";X c #E8E7E9",
":X c #F0EFEC",
">X c #F1EDE4",
",X c #EBF2EB",
"<X c #F6F3EB",
"1X c #FAF6EE",
"2X c #F6F3E9",
"3X c #EEEEF0",
"4X c #F0EFF1",
"5X c #EFF0F2",
"6X c #F2F2F4",
"7X c #FEFDF4",
"8X c #F6F7F8",
"9X c #F6F9FA",
"0X c #FCFDFD",
"qX c #FBF5F4",
/* pixels */
"%X-X-X+X1.#.L.x.6.[.=X*X3X3X-X+X3X3X5X5X4X-X3X8X{.W.3X+X+X%XZ.Z.-X4XF.U.-X%X(.K.^.^.+X=X5X*X+XP.(.#X",
"*X3X3X+X$.<.A.I.L.-X3X-X3X3X*X[.-X{.8X0X8X3X8XD.M j R R.*X'.K.k.^.{.T.F.3X*X[.R.Y.'.+X3X=X#X+XP.#X=X",
"*X5X3X5Xr.e.[.*X).3X-X6X6X5X6X=X@XL.D.W.].=X9XS k l t U 7.v n 7.F.*XR.T.-X*X[.I.^.+Xm.'.+X=X(.^.[.*X",
"=X6X6X8X+X).3X/.R.3X%X-X3X3X3X3X6X*.t u f U +.h g l g e - = & m i.F.R.V.N.T.T.+X^.t.j.K.(.+X^.^.#X#X",
"3X4X6X5X4X-X;X-X6X-X;X*X;X;X-X4X/.r s c r % & i f g i y a p p i p p h / Z.N.'.6XI.$.6.Z.+X[.K.+X#X#X",
"=X-X5X6X4X4X:X-X4X6X6X6X6X-X8X0XU.+.R.[.^.*.= 1 i i i p f f g j g j p e 4.%X{.6X%X+XR.[.3X=X+X#X#X=X",
"+X-X-X5X3X4X3X-X;X-X{.;X-X-XG.R F {.R.*.[ B.4.= i i f f g l l l g g j p d l.R.'.i.A.#.| ^.[.K.(.K.(.",
"+X3X3X-X-X3X4X-X*X XV.-X8X-XQ + [ L.s e m m *.n = i f g l g f f f j j f u b.0X).^.-X).{ N.3X%X+XP.[.",
"%X=X*X+X@X{. X+XN.r.,.%X<XI.R.'.}.V s B.{.}.Z.Y e a s j j p y i 1 i p p h %X9X;X_.%X#Xi.x.5X+X=X(.(.",
"3X=XY./.'.c.T.T.I.7.>.G.).[.6.U S e / =X{.].#X|.v r p t s s i p p i : i a %.%X6X0.#.>.{ e.+X^.+X[.#X",
"-X%XL.^.).z.%Xi.z.B.>.d.R.i.A - & @ Q =X8X:X).{.7.N N T y p s p p f i : i @ B %Xu.( @.{ 6.(.C.+X#X#X",
"@X{.R.'.].W.:X).6.A.).}.e.. - : v @.R.%X6X:X'.)./.`.T E.h.b u h i f s i p x % N.0.>.i.j.L.*X*X*X*X=X",
"@X5X3X5X@X*X<X8XE.h.OX=Xw * : V T.%X].'.].].{.#XF.1XO.G.<XG.b y p p i i p d r F.U.c.+X'.+X3X-X*X*X#X",
"=X=X=X*XZ.V.%X%X(.>.f.H.; ; & l.$X'.{.{.XX'.F.a.!.OXT !.oX>Xh.y i i 1 p s p m *X'.i.^.+X+X3X@X'.K.#X",
"@X@X*X@X/.c.f.).B.>.u.0.; * d U.%X;X%XU.+.N s x <X=.+.0XoXOX<XR & 1 i i s t Q 9X+XA.).+X(.=X@XR.*X=X",
"'.@X-X'.L.p.} A.l.>.>.d.2 * s F.;X{.XX+.% : % O.7X,.`.w.G ] ' F p i p p 1 1 # /.6XR.R.C.'.+X%X^.[.+X",
"F.%XT.A.U.T.r.V.N.b.d.[.Q @ t i.-X{.-Xp.% % Y !.1XJ.:.4 2.0XH , f p f g p # 3 +X3X).L.I.*X;X+X{.T.P.",
"I.[.i.5.c.{.F.R.(.T.%XR.A # - %.-X|.8.v Y a.OXoX7XD.w I ;.w.H 3 p p g g h % 8.0X*X+X3X3X{.*XM.M.x.N.",
"*X-X%X].).-X-X-X%XU.d.2 . < - Y $XY % N E.oX2X2X7XT F ! -.~ B a i p z f i r / 0X4X;X6X3X*X*X{.'.R.T.",
"6X6X-X%X6X8X6XH.b.}.[ + < ; y s c.m O.^ 2.e.`.7X2X=.G.] o._ E p p f g i p s } +X8X5X-X-X3X@Xz.x.9.e.",
"%X6XA.c.-X6X=X#.5.H.^ + < ; r N R.7.1.7 I.q.| 0X7XJ.1X Xy.v.G.s y f p u h r C +X6X3X3X3X6X+Xj.2.| X.",
"%X_.#.e.-X-X-X7.d.b.( A + ; v A.;XL.q H o.! ' 2X7X>X&X7X>XqX!.d p p p : p & > /.{.+X*X@X3X+X*.$.| <.",
"R.'.5.c.;XE.-X{.U.H.( u.B . V #X X).G q -._ 3.&X7X1X2X1X7XQ.x f f g p i : c 7.=X%X{.^.L.*X-Xw.| 5.w.",
"U.%Xl.V.{.I.%X=X{.XX,.J.e.. N p.3XK.x Z 2.n.OX2X1X>X1X7X0X=.& x f f p y 3 '.8X=X6X=X%X(.+X3Xm.$.r.1.",
"+X{.M.c./.). X+XA.;X;X-Xu.Y S h R.W & r Z .X7X0X0X0X2XOX( $ d d f i i f + *.8X:X3X5X3X+X+X-Xi.e.Z.6.",
"6X-XL.C.]./.+XY.H.{.R.-Xx.J U d W r a 1 y 3 F E } F n.U.. # * p f i * d + [ 0X4X8X8X@X=X8X%XA.e.>.:.",
"3X%X/.*X).l.L.@X{.%X%X9X<.A D.T S y s 1 p : . C > ^  XoXd., #.m p p * * i R.3X4X8X*X+X%X*X*Xp.#.>.6.",
"+X-XA.R.A.e.u.F.%X;X8X%X<.N.8XW b s i : i * 2 U.H s.&X&XS.5 x.E y i * c v ].=X=X8X*X{.[.Z.+X6.9.z.t.",
"].{.L.Z.C.z.g.7.%X6X,X,X}.OXU.W Q t a i i * >  .L 0 !.W.G , 5 o 3 i @ 4.*.;X3X6X6X=X{.'.P.+Xy.Y.-XT.",
"*X@X^.C.I.8.z.0.%X:X;XXXA.S.[ U.p.Z x y p $ > 7 G 9 G 0 8 H , 4 3 i - <./.3X-X8X6X;X{.L.^.3XZ.'.-X#X",
"3X3X].Z.l.6.b.0.H.*X|.}.XXXXg.B.z.I.m = * w 5 0 H 9 7 q q 3.2 5 5 p % *.0X:X-X3X6X+XL.L.^.3X=X=X-X'.",
"@X-X%X{.l.5.).E.B.}.|.XX,XXXH.i.<X9XY F E #.O ` H 9 9 q 0 6.J 6 O p & v.8X-X-X-X-X=X+XR.+X3X#X#X-X#X",
"3X3X%X-X-X%X-X-X;X:X*X8X:X=XU.-X6X0XV.c.U.9 5 b.G G 0 0 8 L.X.X J d m 3X-X>X6X3X-X4X3X%X3X3X3X3X5X{.",
"+X3X;X*X).c.b.{.;X-X<X%X=X6X}.V.6X-XU.` o G I.R.8 0 q 0 q 3.5  .p.+.p.0X%X{.%X;X*X{.@X'.+X=XZ.M.c.I.",
"%X3X3X;XI.| 6.l.T.;X;X;X;X-X{.A.b.}.4 F d.OX0Xt.O 5 4 o 5 5 o ].F.x.-X%X%X|.{.%X*X^.L.R.L.3Xx. .| C.",
"].4X*X'.R.<.,.>.B.%X%X6X).Z.E.:Xx.U.s.B.-X`.].L o 7 5 o   O ..XX*X X-XT.R.M.T.].%XN.R./.M.;X@X'.e.2.",
"+X-X%XT.I.I.i.| i.A.).6XR.{ f.6X%X%XR.I.%X5Xt.q 0 q 0 0 5 ` &X'.*X-X6XN.<.i.).T.^.j.m.'.-X-X5X3X+XP.",
"*X*X{.A.l.%X%Xc.r.B.R.6Xc.6.C.OX;X:X{.;X:X].3.G G q q 0 6 L _.'._.@X6Xc.{ 0.N.I.^.w.2.^.L.=X5X3X*X*X",
"-X%X).T.l.U.%X8XU.i.U.%XR.N.d.R.{.5X{.{.XX/.P 0 q 8 q 0 8 0 ).%XI.R.-Xc.| #.#.A.@Xz.'.L.M.@X6X3X=X*X",
";X%X).].R.{.;X3X5X:X;X-X;XN.5.).;X4XW.W.@X{.P q 9 9 q 9 9 9 R.6X%X%X:Xu.( | _.T.L.p.'.+X+X=X3X3X3X=X",
"%X{.B.L.T.+X<X;X%X%X=X-X'.OX'.%X].-X%XI.A.|.L 9 9 8 q 6 q 7 I.8X%X%X-Xt.@.I.5XT.C.%.7.z.^.3X=X%X*X+X",
"^.3X3XM.I.+X{.%X`.;X<X-X'.R.I.;Xc.{.U.Z.R.i.G q 8 9 q 6 q o k.9X+X%X%X0.r.{.+XR.'.j.j.%.j.3XY.k.^.%X",
"(.%X{.A.I.%X%X;X-X%X%X%X%Xx.{.-X].{.U.U.N.2.8 0 7 q q 5 q 5 P ;X%X%X3Xz.t.x.'.R.@X@X@X6.i.+XC.3.r.*X",
"K.3X+X^.i.z.3X-X-X%X;X-X{.T.I.'.%X-X'.A.V.B   4 , 6 5 o 5 o   k.%X%X:X'.).^.'.Y.-X;X=Xz.q.+XY.X.2.N.",
"T.{.+X).R.'.;X*X).R.-X%X-X%Xx.z.].@XT.z.6.L ` 9 X 6 H 5 X q P 2.*X*X*XC.R.OX*X{.%XT.z.e.} R.^.j.y.3.",
"^.^.K.C.%X^.].%XU.l.@X%X5X%Xi.x.l.)./.A.M.Y.+X] 7 z.+X) 5 C.R.c.R.{.{.T.{.%X;X-X*Xi.} 6.6.T.A.j.j.y.",
"{.U.L.].).+X%X;X;X-X*X;X-X4X%X{.@X;X*X*X-X%X9XP H +X3X:.6 '.*X{.%X{.%X%X X{.%X;X;X;XY.T.+X%X*X^.{.+X",
"A.j.y.t.x.%X+XC.c.M.T.{.-X*X'.).F.i.i.R.-X{.5XL P [.#X2.6 '.+X^.+X;X;X{.%X;X-X+X/.%XK.y.T.3XT.^.j.[ ",
"/.k.| 3.C.=X@Xe.i.j.C.@X{./.;X'.0.} ( V.5X{.;X] w.[.-Xy.0 +X#X%X%X{.I.I.[.'.^.K.y.+Xm.q.%.(.^.K.3.` ",
"[.e.| w.C.*X-Xj.q.z.C.^.I.e.@X].0.0.1.A.-X%X;X}.I.R.3XA. .3X+X+X3X'.x.e.M.N.x.t.2.K.L.+Xq.L.^.L.q.2."
};
