/* XPM */
static char *broom[] = {
/* columns rows colors chars-per-pixel */
"50 50 211 2 ",
"   c #160000",
".  c #1D0200",
"X  c #240904",
"o  c #2E130B",
"O  c #3A1502",
"+  c #33150B",
"@  c #3A160C",
"#  c #371C16",
"$  c #2F1A12",
"%  c #3A231E",
"&  c #4A1606",
"*  c #4A1607",
"=  c #521F0F",
"-  c #431D11",
";  c #771801",
":  c #4E2215",
">  c #532416",
",  c #582617",
"<  c #572718",
"1  c #582718",
"2  c #55281B",
"3  c #5A2A1A",
"4  c #522813",
"5  c #7B2604",
"6  c #703518",
"7  c #5E2F20",
"8  c #563727",
"9  c #49332C",
"0  c #663725",
"q  c #6C4000",
"w  c #6A493A",
"e  c #67452E",
"r  c #765749",
"t  c #6B524A",
"y  c #73675D",
"u  c #6C615A",
"i  c #7A6D65",
"p  c #7A6E68",
"a  c #7C736C",
"s  c #79766F",
"d  c #7E7772",
"f  c #8A3619",
"g  c #82290F",
"h  c #8F4200",
"j  c #9E4C08",
"k  c #AC5A0A",
"l  c #B9680F",
"z  c #934226",
"x  c #964D34",
"c  c #9B543B",
"v  c #8E422C",
"b  c #A4582B",
"n  c #876C3D",
"m  c #856858",
"M  c #9E6250",
"N  c #907C5F",
"B  c #8C7454",
"V  c #A46348",
"C  c #AA6850",
"Z  c #B06F56",
"A  c #82736C",
"S  c #8E7964",
"D  c #807771",
"F  c #837A73",
"G  c #887F79",
"H  c #877F7A",
"J  c #957B71",
"K  c #AD7B66",
"L  c #B67B65",
"P  c #B08616",
"I  c #B08539",
"U  c #C7A022",
"Y  c #B3944C",
"T  c #988469",
"R  c #87817D",
"E  c #8B827B",
"W  c #8D8170",
"Q  c #95877C",
"!  c #B59B65",
"~  c #AB9876",
"^  c #B28F72",
"/  c #BBA77A",
"(  c #C19150",
")  c #D4AA48",
"_  c #DCBB4F",
"`  c #C3A976",
"'  c #D2B672",
"]  c #D4B267",
"[  c #DFC258",
"{  c #EECF58",
"}  c #8D8682",
"|  c #8C8584",
" . c #938A84",
".. c #948D8A",
"X. c #948884",
"o. c #96908D",
"O. c #9A928D",
"+. c #919386",
"@. c #958F90",
"#. c #969292",
"$. c #9C9694",
"%. c #9C9995",
"&. c #9E9B9A",
"*. c #AC9989",
"=. c #B69687",
"-. c #A29A95",
";. c #A39D9B",
":. c #B59488",
">. c #A5A19E",
",. c #A9A29C",
"<. c #AFA697",
"1. c #B5A994",
"2. c #BDB29F",
"3. c #A29EA0",
"4. c #A6A2A2",
"5. c #AAA5A4",
"6. c #ADAAA5",
"7. c #ABA7A9",
"8. c #ADAAAB",
"9. c #A7A8A8",
"0. c #B3ACA6",
"q. c #B2ADAC",
"w. c #BBA6A3",
"e. c #BBB1A3",
"r. c #B5B2AE",
"t. c #BAB6AC",
"y. c #AEACB0",
"u. c #B5B3B3",
"i. c #BAB6B4",
"p. c #BCB9B6",
"a. c #B7B5B8",
"s. c #B9B6B9",
"d. c #BDBBBC",
"f. c #B5B9B2",
"g. c #B1AFAE",
"h. c #C5B288",
"j. c #C9A69A",
"k. c #D1BC95",
"l. c #C9ACA4",
"z. c #C7BAA7",
"x. c #D2B7A5",
"c. c #C2BBB6",
"v. c #C1BDBC",
"b. c #CCBCB5",
"n. c #BDC2BC",
"m. c #D8C287",
"M. c #D6C392",
"N. c #E1C886",
"B. c #D4C3A2",
"V. c #CCC4B5",
"C. c #C4C1BE",
"Z. c #CBC3BB",
"A. c #CFC8BA",
"S. c #D1C5BA",
"D. c #D6C8B9",
"F. c #DBD0BD",
"G. c #E0D2BF",
"H. c #E1C7BD",
"J. c #BEBDC1",
"K. c #C1BFC1",
"L. c #CBBDC2",
"P. c #BFC2C1",
"I. c #C5C3C4",
"U. c #CAC6C4",
"Y. c #CBC9C6",
"T. c #C6C5C9",
"R. c #C9C6CA",
"E. c #CCCBCC",
"W. c #C4C9C1",
"Q. c #D1C6C3",
"!. c #D3CBC3",
"~. c #D2CDCC",
"^. c #DBCCC6",
"/. c #D4D1CE",
"(. c #DAD3C9",
"). c #CECDD1",
"_. c #D0CFD1",
"`. c #CFD1D3",
"'. c #D4D3D4",
"]. c #D9D6D5",
"[. c #DBD8D5",
"{. c #D6D6D9",
"}. c #D8D6D9",
"|. c #DBDBDC",
" X c #D7D8D9",
".X c #E1DEDD",
"XX c #E4DBD4",
"oX c #E1CAC1",
"OX c #DEE0DC",
"+X c #E2E1DF",
"@X c #ECE2DD",
"#X c #DEDEE1",
"$X c #E0DFE1",
"%X c #DFE0E3",
"&X c #E3E3E4",
"*X c #EAE7E6",
"=X c #E9E8E7",
"-X c #E6E6E9",
";X c #E7E8EA",
":X c #EBEBEC",
">X c #E4E8E8",
",X c #F2EEED",
"<X c #F0F0EF",
"1X c #F9F6EE",
"2X c #EEEFF0",
"3X c #F0EFF0",
"4X c #EFF0F2",
"5X c #F2F2F3",
"6X c #F5F7F9",
"7X c #F6F9FB",
"8X c #FBFDFD",
/* pixels */
"2X5X XF ..J.E.).;X2X:X5X2X4X#X&X$XE.6X6X3X2X3X3X3X-XE.d.d.%X`.%.d.E.$Xg.$X3X#X#XJ.T.).'.:X#X%X%XP.#X",
"5X:X5X&.&.#X;XR.;X2X2X5X&X2X2X-X{.K.3X3X;X-X:X3X3X-Xu.%.E.`.9.&.0.E._.d.}.:X#X{.J.P.).9.).#X:X{.J.).",
"#X&X6X-X|.3X{.R.:X&X:X5X_.'.3X3X:X:X3X3X:X$X.X6X2X2X#X}.4Xi.d.|.R.I.].q.5.4.T.R.>Xd...4.s.J.{.).J.).",
"{.&X5X2X;X;X:X6X:X:X&X:X#X:X:X2X2X:X3X.X3X3X3X:X-XI.~.-X5X|.U.[.$Xs.&Xq.8.9.I.$X2Xu.| #.a.u.T.T.`.#X",
":X5X5X5X3X:X:X3X5X5X5X5X2X5X2X5X3X6X*XL.&X5X3X6X2X:X:X*X5X5X(.M.D.:X3X:X X|. X&X5X|.#XR.~.B.k.E.%X>X",
":X:X4X:X3X;X*X;X;X|.|.5X+X:X:X2X,X6X:X*X3X6X:X6X>X*X>X:X/.R.D.m.D.U.!.i.f.$.i.E.).4.a.A p / h.9.J.y.",
"2X:X:X:X:X&X&X;X&XC.[.8X:X5X5X5X3X5X5X6X3X3X6X3X:X:X&X:XU.]. X(.'.f.Q.s.'.7.%X:X&X^..XI.u -.].#X'.J.",
":X:X%X&X Xd.n.i.0. .Y.8X<X6X5X5X6X6X3X:X:X&X$X5X*X=X<X:X.X:X+X&Xd.E.'.-...v.5X7X^.b k l.u.4.5X-X%X`.",
"|.E.).E.>.6.f.6.E E 9.7X5X&X;X&X&X5X;X;X:X'.|.5X<X:X:X&X'.$X:X$X5.>.i.5.;.R.+X5Xl.l k :.$.| -XT.J.9.",
"%XJ.'.'.;.f.Q 9.n.Q Q %XU.r.U.R.E.5X;X:X5X;X<X5X:X5X&Xd.c.U.$X|.R.4.i.u. .,.5.'.x.j V L.i R {.y.a.y.",
"E.T.E.E.v.|.f. .f.f.r. Xr.~.#X0.C.5X&X;XI.:X5X5X,X>X/.b.b.c.~.}.&XI.{.E.$.,.-.Y.L ; b.3.F 7.#X{.%X|.",
"-X:X2X:X:X*X:XR.6.<X:X:X:X'.#X~./.:X&X&X'.:X5X5X<X5X;X/.Q.U.;X:X;X6X:XE.8...|.j.; ^ &XT.).#X-X4X%X:X",
";X2X&XK.I.-X-X|.O.-.&X5X,XU.f.&X}.<X|..X2X>X-X2X:X&X&X;XK.R.&X$X3X:X&XI.7.$Xx.; K #X3.{.{.#X:X-X%XT.",
"#X:X&XI.p.R.|.R.+.Q v.:X4X'.E %.|.&X~.(.:X:X:X5X&XE.'.I.q.[.$X.X3X2X&X.X$Xl.; M 6X_.7.{.#X{.:X$X`.T.",
" X-X'.E.;.A I.8.E  .,.+X2X:Xi.E F.(.Y.S.&X;X5X<X{.E.E.i.'.|.'._.#X2X:X8XoX; c 3X3X-X).).).).#X;X`.%X",
"#X2X).d.0.D s.0.O.F ;.*X4X5Xv.O.Y./.V.D. X].+X:X{.5.p.|.I.i.E.|.&X*X-XZ.g v ,X6X6X$XR.K.y.#X$X$X{.P.",
"T.7.>.U. X>.i.v.U.R.'.5X,X:X].E.A.].V.B.`.A.[..Xu.5.I.:Xi.6.&X*X,X6XXX5 f -X6X3X6X;X$X).$X-X:XR.'.J.",
"'.8.%.q. Xr.E.$XU.E.|.*X*X&Xf.p.e.~ 2.B.z.x./.I.R.:X;XC.%.[.&X&X8X,Xz g XX6X,X6X3X:X$X5X:X#X-XJ.7.9.",
":X5X:X:X5X2X,X|. X<.6.&X2X&X X].;.N ! N.M.L.!.OX2X5X|.,.~.8X8X8X@Xb g ^.7X*X6X5X6X5X3X3X4X:X;X#X#X'.",
":X|.'.4X6X4Xr.O.'.>.,..X[.t.F.z.! ] _ { k.k.B.G.D.U.0.r.*XD.:.V f f b.7X3X-X$X:X:X5X:X#X#X4X$X3.#.R ",
"&X,.8.5X5X:XF G i.H } ].&X0.p.F.<.T ) [ ~ <.A.[./.I.%Xj.x f c L j.(.5X+X5X5X-X&X-X:X:X#X#X4X#X3.@.H ",
"p.D 4.:X;X:X,.-.U.y A U.~.&XU.~.-.B n ! T -.W.'.>X2X^ 5 C H.*XC.,.F c.W.|.5X:X&X#X{.#X$X#X;X;X..D D ",
"I...p.:XK.:X$Xv.I.y J !.!.~.c.Y.*.Q B 1.V.~ r.p.OX=.h ( e.p.|...} %.Y.n.|.>X&X&X-X;X#X).J.$X4X3.D H ",
").5.d.|.K.&X*X|..X;.Q S.!.E.C.[.t.+.W k.Y.t.Z.'.j.f K S.p.e.;.O.c.&XXXr..X|.;X>X2X3X$X-X'.#X5XJ.H %.",
"R.g.0.{.).|.%Xi.|.:XR.~..X*X[.C.|.5.e.G._.X.c.oXz K &XC.+X|...-.t.@X*Xp.|.&X:X5X4X:X5X:X#X$X4X3...a.",
";Xs.s.).u.|.R.d.|.].E..X7X5X*X:X'.|.XXXX3X.XQ.x Z .X'.Q p.5XU.i.[.+X5X>X:X<X5X:X6X6X6X$X:X6X:XJ.%.s ",
"|.{.-X).&.v.+X X|.;X&X|.:X5X*Xr.|.:X,X1X(./.c C *X4X;XI./.2X&Xt.C.I.].:X<X5X:X-X6X5X-X#X$X:X:X7.F s ",
"$Xd.'.d.+.>.T.&X&X5X5X].+X:X&X,.p.'.8X' U , C $X5X+X*X&X%XOXY.,.K.I.+X:X*X:X:X&X3X5X$X{.#XJ.#X#.} o.",
"'.K.s.s.q.,.X.[.3X5X,X|./.*X*X5.p.1X' P _ ] r 6X-XC.n.T.+XT.E.'.|.$XL.}.:X3X2X:X3X6X$X$X#XJ.#X&.u.&X",
"R.R.s.K.} f.$.&X:X5X;X~.>.I.5X&Xq.w P Y ` ) { 4X/.r.5.u. XW.T.|.XX$XE.&X:X3X$X}.:X6X$X}.T.L.:Xy.W.5X",
"R.L.a.g...7.G v.;X.X'.8X+Xf.A 9 . X 6 ' I ] 1X;X8.q.v.u.T.u.>.P.}.}.,X3X$X5X;X'.-X6X$XL.a.y.:X;X#X2X",
" X#XE.$.G ~.s.0._.5XXXO.9 X . X : 7 : 0 ) F.u.E.E 8.f.n.C.r.>.R.5.7.;X,X:X5X2X:X:X:X-X).J.).:X&X-X;X",
"2X&X:X{.R.$X}.K.:X..# . X @ : 3 , 3 e * w.|.~.Y.0.E.d.p.V.n.f./.I. X:X1X5X*X<X5X:X:X5X:X|.;X2X2X-X2X",
";X;X-X-X[._.).{.u . X # > , , < < 3 > w 3X,X5X6X5X[.f.r.R.n.T.'.*X;X:X:X5X&X*X:X:X;X&X4X#X&X2X{.#X{.",
";X:X&XK.F | J.| X # = 3 3 < 3 , 3 3 & :.8X&X;X XE./.O.d #.4.d.R.|.%X+X:X;X|.E.&X&X&X{.E.E.'.;Xu.s | ",
":X:X-XR.p ..y.# o > 3 2 < < 3 , , < 7 .X&XXX5X~.E '.i.D  . .d.}.%X&X~.>X'.&Xv.|.|.&XJ.J.R.y.2XT.3.| ",
":X).K.R.@.c.i X < , < < < < < 3 8 & J |.[.Y.U.'.>.i.r.,.+.v.-X|.&X;X:X+X5.f.4.'.E.#X7.`.{.T.#X4X2XT.",
";X`.i.5.~..X% @ 0 0 > < , 3 , 2 7 3 (.-X:X].f.~.'.f.-.-.E v.}.'.|.;X5X[.F D 6.|.K.K.$.X.).:X2X#XT.:X",
"|.'.g...|.v.X , : : < 3 < > 3 3 * *.7X].C.f.E..XI.$.v.d.v.'.|.|.].I.:X XF a %.%.L.).@.&.K.y.#X2X#X;X",
"$X'.{.g._.Q O > + 3 3 < @ : 7 & m 5XE.C.1.q.I.&X}.i.0.U.2X:X[.|.'.T.&X XE i a o.p.T.y.-XE.J.#X5X4X2X",
"}.I._.v.'.! q + - , - $ - 7 * r 5X;Xv.2.' l.'.:X&XF.m.V.+X<X&X;X5X&X;X'.a y ;.]./ ^ ..E.'.&X;X2X2X;X",
"_.K.i.q.'.T O o - + o 8 : * m XX&X~.v.,.~ n.(.V.~.e.` <.V.+X&X&X;X$X:X'.D O.Z.R./ ~ a J &.W.2X-X#X#X",
":X-X7.i.4X-.. . . O > 2 t w.8XR.q.|.u.I.p.#.>X[.U.I.c.4.Y.[.&X:X&X|.;XI.E 8.E.'.K.I.4.>.R &.:X).&.J.",
" X Xd.T.:X'.. t  .5.v..X|.{.&X-X'.|.I.I.6.r.U.&XE.|.>XC.d.#.i.'.&X&X2X{.;.;.d.'.).-X&X#X| &.#XJ.#.d ",
"-X{.T.$.5.6Xi c.&XI.5X:XT.I.K.#X#X-X).i.u.u.$.s.'.'.5.4.5.&.&.4.'.|.-X&X'.).{.).T.:X#XI.#.@.'.'.d @.",
"$X{.L.).}.;X:Xi./._.&X;X:XR.&.E.R.{.K.;.4.8.y.E.'.8.s.P.y.y.u.T.'.>X2X'.8.E.&X&X{.-XK.%.@.s K.#X3.7.",
"a.a.s.-X).|.|.&X5.'.&X$X#X0.#.4.u.{.R.8.g.u.W.:X XE.E.E.K. Xs.7.J. X#XR.T. X*X:X-X|...p | | K.K.#.9.",
"a.J.#X`.|.|.&X>X&X&X;X2X}.~.|.].&X-X&X&X-X>X:X#X:X:X|.#X2X$X$X#X|.#X#X&X'.~. X;X&X&X$Xu.K.J.'.2XR.`.",
"R 3.3.y.&X&XT.J.u.).'.:X-X#X'.{.s.g.q.R.$X$X:X|.'.{. X*X&X$X&X'.}.-X;X&XR._.&X;X$X|.-XJ.3.K.&X{.).J.",
"@.| R y.-X#X#.$.&.y.).;X X&X'.K.F A p v.#X|.&X_.s._.$X#X&X}. X#X#X#X|.)._.-X|.$Xs.8.#X3.| #.#X`.J.9."
};
