/* XPM */
static char *quadro[] = {
/* columns rows colors chars-per-pixel */
"50 50 245 2 ",
"   c #090909",
".  c #171716",
"X  c #140F11",
"o  c #36270C",
"O  c #2B2A1B",
"+  c #2F2D2B",
"@  c #231F1A",
"#  c #493314",
"$  c #5C3B14",
"%  c #553714",
"&  c #422C10",
"*  c #653D15",
"=  c #6A3A12",
"-  c #4D372F",
";  c #314D34",
":  c #2E7136",
">  c #4C4317",
",  c #6A4517",
"<  c #774819",
"1  c #4F4A32",
"2  c #774D22",
"3  c #71542D",
"4  c #4E6C3B",
"5  c #6A6A37",
"6  c #367748",
"7  c #356D44",
"8  c #3A7562",
"9  c #505049",
"0  c #6E5450",
"q  c #52734C",
"w  c #757859",
"e  c #6F6F49",
"r  c #475660",
"t  c #527172",
"y  c #78776C",
"u  c #7B7975",
"i  c #697874",
"p  c #854D19",
"a  c #8A531C",
"s  c #96581D",
"d  c #924F1B",
"f  c #9D621F",
"g  c #AA651F",
"h  c #875624",
"j  c #995A23",
"k  c #865B36",
"l  c #996326",
"z  c #966839",
"x  c #AB6C2A",
"c  c #A56625",
"v  c #AC742A",
"b  c #B7782A",
"n  c #A67538",
"m  c #B57A34",
"M  c #AD6E2B",
"N  c #A05E29",
"B  c #C47E32",
"V  c #927150",
"C  c #A97949",
"Z  c #837A74",
"A  c #91736C",
"S  c #AC786F",
"D  c #925757",
"F  c #388433",
"G  c #378447",
"H  c #3C8754",
"J  c #3C9253",
"K  c #468B55",
"L  c #4A975A",
"P  c #548F4E",
"I  c #718D57",
"U  c #65AB5B",
"Y  c #4D946C",
"T  c #749467",
"R  c #668679",
"E  c #70916B",
"W  c #4FA474",
"Q  c #69AF72",
"!  c #55A657",
"~  c #BB8836",
"^  c #B7842E",
"/  c #C68B34",
"(  c #C68D31",
")  c #858D56",
"_  c #B78F50",
"`  c #898B65",
"'  c #949569",
"]  c #87817C",
"[  c #9B9577",
"{  c #929071",
"}  c #B39465",
"|  c #B49172",
" . c #94A77E",
".. c #88AA7A",
"X. c #B6A96F",
"o. c #C29552",
"O. c #C49D69",
"+. c #C49E73",
"@. c #D0AD74",
"#. c #8BC67A",
"$. c #ACD273",
"%. c #657C90",
"&. c #516E83",
"*. c #519690",
"=. c #799988",
"-. c #6D9593",
";. c #58AB87",
":. c #5DA094",
">. c #68AC82",
",. c #7BAA87",
"<. c #76B487",
"1. c #7AB796",
"2. c #6CAC92",
"3. c #5390A8",
"4. c #6B96AF",
"5. c #57A5A7",
"6. c #74A7B6",
"7. c #70A7B0",
"8. c #6B99C8",
"9. c #78ABC5",
"0. c #78ABD6",
"q. c #75B0CC",
"w. c #79B1E1",
"e. c #8C8882",
"r. c #938C89",
"t. c #9C9696",
"y. c #97918E",
"u. c #AC9982",
"i. c #A59C99",
"p. c #B8968E",
"a. c #83A887",
"s. c #97AA86",
"d. c #8DB78B",
"f. c #9AB288",
"g. c #95B898",
"h. c #89B195",
"j. c #A3AB8A",
"k. c #A7A699",
"l. c #A9B595",
"z. c #B4B99A",
"x. c #B4AB93",
"c. c #A29EA0",
"v. c #90B5AC",
"b. c #ABA8A8",
"n. c #B0ACA9",
"m. c #B6BBA5",
"M. c #B2AFB1",
"N. c #B4B2B3",
"B. c #BCBABC",
"V. c #B9B6B8",
"C. c #A7B7BA",
"Z. c #D49D94",
"A. c #CE938C",
"S. c #C5AA87",
"D. c #D8A289",
"F. c #CCB488",
"G. c #C9A496",
"H. c #D5A596",
"J. c #CCB695",
"K. c #D6B899",
"L. c #D8BD8A",
"P. c #E1AA9C",
"I. c #E599A3",
"U. c #D8ACA2",
"Y. c #CAB6A6",
"T. c #DAB7A9",
"R. c #DEBBB1",
"E. c #C9B1A6",
"W. c #E5B6A9",
"Q. c #E2BCB1",
"!. c #E9ACA9",
"~. c #E5929C",
"^. c #8BC497",
"/. c #AFD097",
"(. c #8BC6AC",
"). c #AAC8A5",
"_. c #B7C6A7",
"`. c #B8C9B4",
"'. c #ABCFAE",
"]. c #D9C39C",
"[. c #C3C7AA",
"{. c #C7C8B7",
"}. c #D8CAB7",
"|. c #CAD3BA",
" X c #DBD2BB",
".X c #D6C8AD",
"XX c #E7C0AA",
"oX c #E3C1B5",
"OX c #E6C8B9",
"+X c #E9D2B7",
"@X c #D6D3A8",
"#X c #83AACA",
"$X c #96BBD7",
"%X c #89B2D4",
"&X c #BBBBC3",
"*X c #ABBBD3",
"=X c #C1BFC1",
"-X c #B5CAD2",
";X c #ABCDE6",
":X c #C4C3C4",
">X c #CBCACC",
",X c #C8C6C8",
"<X c #D2CEC3",
"1X c #DAD5C6",
"2X c #DBD7C9",
"3X c #DDDACC",
"4X c #D6D5C8",
"5X c #CECED2",
"6X c #D0CDD3",
"7X c #CDD6D7",
"8X c #D4D3D5",
"9X c #DDDDD2",
"0X c #D5D6D9",
"qX c #DBDBDD",
"wX c #D5DBD9",
"eX c #C9D6C6",
"rX c #E2DBCD",
"tX c #E9DFCD",
"yX c #E4D7C6",
"uX c #E2DED2",
"iX c #E2DDDA",
"pX c #ECCEC3",
"aX c #DCE3D9",
"sX c #D2E2C5",
"dX c #E9E0CE",
"fX c #EAE1C9",
"gX c #E5E1D6",
"hX c #EBE3D4",
"jX c #E6E3DA",
"kX c #E9E5DB",
"lX c #ECE9DE",
"zX c #F1E9DA",
"xX c #DDDEE2",
"cX c #DDE0E3",
"vX c #E2E3E5",
"bX c #EEEAE1",
"nX c #E5E6E9",
"mX c #EAEBED",
"MX c #E8E8E9",
"NX c #F3EEE6",
"BX c #F6F4EA",
"VX c #EEEEF1",
"CX c #EEF0F3",
"ZX c #F1F2F4",
"AX c #F4F6FC",
/* pixels */
"VXZX0XZ .XrXyX1XtXtXrXgXgXhXJ.C k 3 z k 1 9 t i i -.%.r 9 3 k 3 l ~ _ .XgXkXhXfX3XrXrXdXtXjXnXnX&XxX",
"ZXmXVXk.1XtXtXtXdXdXhX+XL.O.v c p $ , O ; t 4.t R t %.8.&.9 1 * , v ~ ~ @.]. XhXdXdXdXdXtXtXnX0X5X0X",
"ZXZXAXMXuXtXtXtXtXfX].b f a j < , 3 T L G J 4.6.(.6.8.9.-.P q 9 # , l v v ^ ( ].hXtXdXdXtXgXcX>X>XxX",
"ZXZXZXVXhXtXtXtXfXfX( f p , , 3 )  .z.s.6 H 4.9.7.2.-.T q q 3.t r r - = f ^ ( o.gXdXdXdXtXgXxX,X7XxX",
"mXZXZXBXtXtXhXtXfX].^ l a < 5 { l.j.l.s.: H 8.9.v.I I R R 6.%X4.4.8.3.9 s b ( ~ .XlXfXhXdXhXnXxXxXcX",
"mXmXZXVXhXtXtXhX+Xc a a 2 e s.j.x.l.j.>.3.4.8.6.,...R -.4.6.q.w.q.q.q.^.) s g g _ yXhXfXdXhX0XB.7XM.",
"VXmXmXmXdXtXtXtXo.s * > 4 4 P E E T L *.0.8.8.v.I 1.9.#X7.W 7.0.q.w.'.U P > , v ( o.fXfXdXhXnXvXnX&X",
"mXmXxXvXhXtXzX@.v h % 3 ` K G 6 G J J 5.6.=.a.E E 1.6.6.:.J -.7.:.$X^.U J F 5 f B ^ ].hXfXhXmXnXxXnX",
"qX>X6X8XdXhX@X^ c # o I R H K : G 6 H 0.6.T ) R q.6.3.5.*.6 H Y *.*Xd.U L : U 2 g ( _ yXhXhXxX8XcXxX",
"vX=X8X8XfXfXO.f 2 o e z.v.-.Y G J Y 9.0.R I P 8.7.q.Y 8 + ; 6 G h.6X1.! ! U #.5 p b ^ F.hXgX8XM.xXxX",
">X,X>X8X3XyXn h % o `  .7.#X#X9.q.0.0.9.-.R -.8.5.;.6 ; : G W J Q v.&X<.Q )./.X.= j b _ dXhXaX0XxXxX",
"MXmXVXMXhX].l l # + I I =.#X#X%X%X%X0.4.4.v.0.5.;.>.: : 7 e././.Q 1.&X-Xd.g./.$.> p b ^ }.zXmXVXmXmX",
"MXVXcX,XjXF.a 2 o 5 f.[ =.%X*X-X$X$X%X0.%X%X#Xt ; 9 9 ; 0 y.[./.#.v.7XeX..K (.^.q < B m ].kXmXvXxX5X",
"xXMXnXY.jXL.f 2 o w /.f.g.*Xn.C.$X$X$X%X%X;X%.  0 U.U.D X 0 /.#.Q <.9X).! G Y 2.4 = / ^ .XNXmXvX5X5X",
"qXMX0X,X+X_ c 2 o ` f.T g.7X>X,X-X-X$X$X$X;X6.. S T.i.P.-   4 L K Q aXd.G F 2.=.4 2 ~ ~ _ yXvXvX5XnX",
"xXmX6XV.yXO., & o  ._.z.V.xXBXkX-X;X-X;X;X7X-.0 Z.G.G.OXA O A G.I ^.wXh.J 2.$X6.L & a v F.hXvXvX7X=X",
"=Xb.i.=XzX@.N 2 % j.{._.8X<XO.@.7XwXxXcXqXcX5XS A.!.~.~.!.S S !.E ,.7XwXeXwXC.;.6 > ( ( L.lXmX>X8X=X",
"8XM.i.n.zX+.p $ > s.{.[.eXjXF.}.7X7XaXcXjXvXzXA X A !.I.!.+ + A =.'.M.8XVX'.T ;.6 # b ( J.kXvX&Xn.n.",
"VXVXmXMXzXO.p $ > I s.`.x.rXA.{.7XwXvXlXvXlXVXp.X - ~.!.U.@ @ + b.=X:X4XwXV.h.2.: % v ~ F.lXnX0XxX0X",
"VXiX0XNXtXo.d % > T ..Y.| A.S A.cXlXlXbXbXbXNXR.- D !.Q.A.X . + + ; 9X4X..`.MX1.W > x ( O.lXvXb.y.] ",
"nXi.n.ZX+X/ j , ` l._..XA.| o.S G.bXbXbXbXbXwXx.S D.W.+XA X . +   X m.BX`._.aX'.'.q f ( _ fXxXc.y.Z ",
"V.Z c.VXL.b j , ' ).f...<X}.Z.U.U.MXbXlXbXNXu + Z.XXXXA.+ X X 9 p.r.4XkXNX4X).'.).w f ( ^ .XVXr.Z u ",
"=Xr.E.AXo.c s , ' z.f.I l.mXR.U.T.kXbXbXzXE.@ - D.D.D.9 . . @ y OXpX X4XkXjX/.d.W I s ( v X.AXc.Z Z ",
"5Xb.&XxXC x j , [ z._...m.`.Y.W.U.}.bXiXR.i.@ x.+XD.y + . . E 1XE.oX+X3XuXaXgX).L q a ( v } AXV.] t.",
",XM.b.0X_ b N $ ' z.z.}.f.T E.Q.T.Q.pX}.yXiXm.}. X{.1 @ .   9 vX3XU.OXOXrXgXeXsX/.5 < ( b | CXb.y.V.",
"MXV.V.cX+.g N *  .l.l./.f.{.OXT.Q.Q.T.OXbXkXbXgX4XV.+   + + 9 0XvX{.G.Y.T.U._._.sXe < m c J.CXV.c.] ",
"qX0XnXxXOXm j $ ' ).f...eXkXR.R.R.Q.Q.iXkXjXgXkXgXkXn.; k.gX2XkXkXjX{.<XR.Z.Q.E.|.I < x _ 2XVXb.Z Z ",
"xXB.8XE.1X_ x < ) .. .f.4XgXR.R.Q.Q.yXlXjXjXkXkXkXgXkXzXiXgXkXiXkXkXkXkX}.Q.OXQ.sXI l m | 3XvXy.r.y.",
"6X-XV.V.yXO.l , I ../.[.|.3XOXoXOXW.rXgXgXkXkXkXjXgXgXgXgXgXgXuXgXkXrX2XQ.Q.P.Q.zXI p b S.uXvXi.N.vX",
"<X,XV.:XtX+.f , I /.J.l.`.aX}.W.oXH.rXgXgXkXlXkXgXjXkXgXgXgXgXuXiXjXrX}.H.W.P.U.zX' < b S.zXmXn.=XZX",
"VX6XN.N.yXC d * ' _.l.a.Q -X1XA.U.H.pXjXlXkXlXjXkXkXkXjXjXgXgXgXwXuXrX}.Z.H.U.H.zX' < g } zXmXmXvXVX",
"vXxX>Xi. Xz j * ' [.a.W W 1.eXY.T.T.2XaXkXkXlXkXgXjXkXjXgXgXgXuX9XrX1X{.U.W.W.K.pX[ < v } iXmXvXvXmX",
"mXvXMXqX1Xz j * ) m.[.h.2.W '.sX|. XgXgXlXlXlXjXgXjXjXhXjXgXgXgX3X1X1X|.U.K.T.P.Q.[ < x } hXmXVXnXZX",
"mXMXMXvXuXC s , ` j.z.[.<.W 2.'.|.2XgXgXjXlXlXlXgXjXjXjXgXgXgXkXaX1XyXuX}.U.H.+.p.[ h x } kXMXqXqXxX",
"mXmXvX=XrX@.j , ` l.j._.).<.;.>.[.1XjXkXjXlXlXkXgXjXjXhXgXgXgXkXjX4X1XrXrXu.A A Z [ j v T.hXMXN.u e.",
"VXmXvX>XyXO.x h ' j.j._.`.1.;.<.|.3XgXkXkXlXkXgXgXkXjXjXgXgXgXjXkX3X1X3XuX:Xu y u A v n S.uXmX,Xt.e.",
"MXvX,X5XiXK.M < { j.l._.`.^.1.-XuXuXgXgXlXlXkXjXgXlXgXkXkXgXhXjXkXaX4X3X3XhXm.y u e l m .XhXMXVXVX>X",
"MXvX,XY.zX].x , I >.f.d.).dX3XdXuXjXgXlXlXbXjXgXgXlXgXjXjXgXjXkXkXgX4X3XrXrXjXe.u 9 h n }.kXmXVXnXVX",
"iX6XM.i.hXL.s * E ^.s.a.3XrXgXdXgXuXjXlXbXbXkXjXuXlXgXgXkXgXgXjXlXjX9X4XrX3XgXk.y 1 < n .XgXaXZXVXnX",
"vXqX0XM.dXJ.d $ E l.s.1XgXgXaX2XrXuXgXuXlXlXkXkXgXjXgXgXjXgXgXhXlXjXkX3X3XtXgX{.u 9 < n .XhXvXZXVXmX",
"0X>X6X>XbXJ.d * q W m.gXrXgXrX3X3XuXgXgXgXkXgXgXgXkX9XrXgX9XuXuXbXkXkXgX9XrX3X1Xe.- < n .XhXMXVXVXmX",
"6X&XY.>XhXH.< % w a.m.iX3XgX3X3X3XuXuXuXuXgX3X9XrXuX2X3XuXrXrXrXkXkXkXbX9X3X2XgXz.+ p n  XhXmXnXxXnX",
"VXVXb.=XzXJ.< % ` l.l.wX9X3XuX3XuX3X3X3XrXuXrX2X2X1XrXrXuXrXrXuXjXlXjXbXkXaX3XuX3X0 < n }.gXMX>Xt.&X",
"0XxX&X,XzXJ.= % P ^.k.4X3X3X3X3X3X3X3X3XrX3X1X2X2X1X3XuXrX3X2XuXuXkXkXkXbXlXbXuXkX[ p n  XtX0X&Xy.u ",
"nXxX,Xt.rXY.= # P f.l.{.uX3X3X9X3X3X3XrX3X3X1XrX3XuXrX3X1X1X2X2X3XgXkXjXbXkXbXkXzX[ p n  XyX5X0Xu r.",
"xXxX0X>XtXJ.$ & q ,.y.<X3X3X2X3X9X3X3X3X3X3X4X3X3XrX3X2X2X2X3X2X4X3XkXjXjXbXbXkXBX[ a n  XyX:XqXc.b.",
"&XB.B.cXhXJ.% # w l.{.uX2X3X3X2X3X9XuX3XrX2X1X3XrX3X2X3X1X2XrX2X1X2X3XkXuXuXzXkXBXu.a n OX1X{.:Xy.b.",
",X>XxX0XzXx.& o w jX3X9X3XgX9X3X3XuXgXuXgX3X3X3XrX3X3X3X2X2XrXrX1XrX3X3XuX3X9XiXNXx.a n }.gXxXMX>X8X",
"e.b.c.M.zXx.o o y gX3XrXgXgXrX3X3XgXjXgXjX9XuXgXuXuX3X2X3X2X3X2X3X1XuXuXuXrXuXgXBXu.s z .XzXMX8X>XB.",
"y.] e.M.NXJ.# - w :XgXgX9XgXgX9X<X<X4X9XkXjXjXjX9XjX9XjXgXuXuXuXuX9X4X2XuXuX2XuXvXu.n C Y.1XqX8X-Xb."
};
