/* XPM */
static char *luna_do[] = {
/* columns rows colors chars-per-pixel */
"50 50 219 2 ",
"   c #010000",
".  c #0C0A08",
"X  c #15110E",
"o  c #161616",
"O  c #181615",
"+  c #191917",
"@  c #161618",
"#  c #1A1A1A",
"$  c #251E18",
"%  c #25211C",
"&  c #2A2A2B",
"*  c #352A23",
"=  c #363129",
"-  c #443836",
";  c #464129",
":  c #534337",
">  c #625A3A",
",  c #6B623E",
"<  c #2B3B58",
"1  c #374967",
"2  c #2E4873",
"3  c #484444",
"4  c #4B4B4B",
"5  c #4D4951",
"6  c #585457",
"7  c #5D5D5D",
"8  c #614D40",
"9  c #7B7044",
"0  c #595968",
"q  c #656567",
"w  c #716C67",
"e  c #7D736A",
"r  c #7A7774",
"t  c #7E7E7E",
"y  c #877B49",
"u  c #836957",
"i  c #89786B",
"p  c #827B75",
"a  c #867E79",
"s  c #FE7D7F",
"d  c #978952",
"f  c #978856",
"g  c #A79859",
"h  c #9F806A",
"j  c #86817C",
"k  c #8A827C",
"l  c #A6856E",
"z  c #BC977D",
"x  c #FF8B58",
"c  c #FF935A",
"v  c #FF8B65",
"b  c #FF886B",
"n  c #FF8276",
"m  c #C8B970",
"M  c #DAC075",
"N  c #ECD37B",
"B  c #FDE47F",
"V  c #2E5491",
"C  c #26569F",
"Z  c #2A589E",
"A  c #375B94",
"S  c #2658A1",
"D  c #2B5AA1",
"F  c #3B67A8",
"G  c #4A6A97",
"H  c #526A90",
"J  c #4E75AE",
"K  c #4C75B1",
"L  c #6379A3",
"P  c #6B7FA7",
"I  c #FE778A",
"U  c #FF6F94",
"Y  c #FE7394",
"T  c #FE7C92",
"R  c #718595",
"E  c #5E83B9",
"W  c #7285AB",
"Q  c #6E8FC1",
"!  c #7897C6",
"~  c #818080",
"^  c #8C8682",
"/  c #8F8984",
"(  c #8B8989",
")  c #918984",
"_  c #938D8B",
"`  c #99928D",
"'  c #859091",
"]  c #959393",
"[  c #9B9593",
"{  c #9E9896",
"}  c #9A9698",
"|  c #9D9A9A",
" . c #A19684",
".. c #A19A96",
"X. c #A29D9C",
"o. c #9DAE8A",
"O. c #B4AA8B",
"+. c #A2B18A",
"@. c #ABB68B",
"#. c #B8B58C",
"$. c #A5A09E",
"%. c #A8A49A",
"&. c #8995A7",
"*. c #919EB5",
"=. c #A29FA0",
"-. c #A5A2A3",
";. c #AAA5A4",
":. c #AAA7A8",
">. c #AEAAAB",
",. c #BCA6AA",
"<. c #B2ADAD",
"1. c #B6B1AC",
"2. c #A4ACB9",
"3. c #B5AEB1",
"4. c #B5B2B3",
"5. c #B8B5B5",
"6. c #BAB7B7",
"7. c #B9B7B9",
"8. c #BCBABC",
"9. c #CA9A8B",
"0. c #D5978F",
"q. c #DB908F",
"w. c #DB8993",
"e. c #E28F8E",
"r. c #FC8B88",
"t. c #FE928D",
"y. c #FE9A8D",
"u. c #E58991",
"i. c #FD8491",
"p. c #FE8B90",
"a. c #F88B99",
"s. c #E29093",
"d. c #FE9194",
"f. c #CBA487",
"g. c #CEB78F",
"h. c #FEA78B",
"j. c #FFB38A",
"k. c #FFBC88",
"l. c #E8B99A",
"z. c #FCB395",
"x. c #DF98A3",
"c. c #F390A9",
"v. c #F79AAD",
"b. c #C0BEBE",
"n. c #F8AFB1",
"m. c #D1C791",
"M. c #D7CA9B",
"N. c #FCCA86",
"B. c #E7D688",
"V. c #FFDC82",
"C. c #FDD988",
"Z. c #F0CB96",
"A. c #FCD998",
"S. c #FFE681",
"D. c #FFE881",
"F. c #FBE488",
"G. c #FDE48B",
"H. c #FBE795",
"J. c #D4CBB2",
"K. c #F9C6A6",
"L. c #FDCCA7",
"P. c #FDCCAA",
"I. c #FED1A3",
"U. c #FFD0AC",
"Y. c #EDD4B6",
"T. c #F5E6A9",
"R. c #EDE2BA",
"E. c #F2E7B9",
"W. c #FBF0BB",
"Q. c #90ABD3",
"!. c #ABB3C2",
"~. c #BEBEC1",
"^. c #B7BDC9",
"/. c #A4BADC",
"(. c #C1BFC1",
"). c #F6B3C5",
"_. c #BFC0C4",
"`. c #B4C7E5",
"'. c #C4C2C4",
"]. c #C8C6C6",
"[. c #C6C6C9",
"{. c #C8C7CA",
"}. c #CCCACC",
"|. c #D1CDCE",
" X c #DBD5C3",
".X c #C7C8D4",
"XX c #CDCDD1",
"oX c #D1CFD1",
"OX c #CFD0D3",
"+X c #D3D2D5",
"@X c #D6D6D9",
"#X c #D8D7D9",
"$X c #D8D8D9",
"%X c #DBDBDD",
"&X c #E3DECB",
"*X c #F4C6D2",
"=X c #EED0D5",
"-X c #ECE6C7",
";X c #F3EAC8",
":X c #E6E5D9",
">X c #F2EADB",
",X c #C9D7EC",
"<X c #DEDEE1",
"1X c #D2DAEA",
"2X c #CDDBF1",
"3X c #D3DFF3",
"4X c #E3DEE2",
"5X c #DFE0E3",
"6X c #D9E4F6",
"7X c #DCE7F9",
"8X c #E3E3E5",
"9X c #EBE7E5",
"0X c #E6E6E9",
"qX c #E7E8EB",
"wX c #EAEBEC",
"eX c #F0EFEF",
"rX c #EEEFF1",
"tX c #EFF0F2",
"yX c #F1F1F3",
/* pixels */
"8XwXwX#X_ ^ 5.:...+XqXqXyXqXqX<XrXrXyXyXyXwXyXyX9XrXqX%X4X%X8.8.9X0X(.}.9X8X+X'..XOX5XwXeXqX%X_.XX5X",
"0XrXrX#X^ _ 7.'.'.qXwXrXyXrX0X<XqX<XwXyXyXyXrXyXrX0X+XoX%X8Xb.;.|.%X}.'.qX0X@X}.[.+X1XwX6X5X5X}.5X5X",
"qXtXtXwX;.X.+X5X#XqXwXyXyXrXrXqX4X'.8XyXwXqXwXyXrX4X8.(.8X}.;.;.7.%X}.}.8X8X@X{.}.+X5.+X5X5X@XXX%X0X",
"qXtXyXyX%X+X0X+X+XqXqXwXrXrXyXrXwX8XrXyXwX8X4XyXyXqX#X%X0X6.].}.(.%X#X3.6.}.}.%X}.-.-.~.@X5X.XOX1X5X",
"rXtXyXyXyXqX9XwXyXqXqX8XwXqXeX*X=XyXrXrXyXyXyXeX0XoX+XqXwX+X8XwX+X|.XX>.,.b.#XwX'.` ` 6.%X#X.XOX1X5X",
"qXwXtXyXyXeXtXwXyXyXyXyXeXwXeX).v.yXrXrXeXyXeXeXrXwXwXrXyXyXyXyXrXwX0X=Xc.|.<XwX5X+X'.+XqX0X@X<X:X0X",
"<XwXrXtXeXyXtXwX9XqX%X0XeX9X).*Xc.).*Xn.v.v.).>X-X;X;XE.R.Y.n.).K.-Xb.x.T >.}.#X>.6.) k {.#X[.OX8.@X",
"<XwXwXwXwXwXeXqX4X#Xb.qXyX>Xn.a.d.U Y n v v n r.N.G.D.V.y.s.9.f.e.T T a.x.c.9X@X|.8X].j 4.wX5X5X_.@X",
"0XqX8X<X8X%X%X$X5...` &XW.z.y.j.T Y v c c c c v y.V.S.h.0.@.@.@.@.9.U T p.n.*X0X+X:X+X| >.qX8X8X@XOX",
"rX0X}.XX+X5.}.].b.`  .B.S.N.y.i.T s c c c x c c n j.N.s.@.@.@.@.@.@.u.Y j.d.n.qXX.k k e [ %X.X<X1X<X",
"wX8X{.XX+X5.$X1.<.<.B.S.N.y.h.t.U s c c x x c c n Y T q.@.@.+.o.@.@.9.Y i.h.z.=X{ e i e ` oX^.<X5X5X",
"<X%X+X+X+X|.9X|...m.S.S.S.k.y.i.Y s c x x x c c n Y U w.@.@.o.o.+.@.9.Y i.t.t.Z. .k X.$.b.8X0X8X8XwX",
"5XrXwXrX<X8XeXwX XC.D.D.V.y.y.p.Y I v c c c c v r.j.z.r.O.@.@.@.@.#.T Y t.h.k.V.m.4.+XOX<XrXqX8X5X0X",
"0X0XqX8X'.8.%X4XR.S.B D.D.N.j.h.h.i.I b c c b r.z.L.I.z.u.O.@.@.O.w.Y T i.p.y.S.B g.XX<X<XwX5X@X}.5X",
"<X<X0X4X}.1.;.}.M.B F.B D.D.D.D.S.V.j.y.t.r.y.N.L.L.P.L.n.a.s.s.a.a.z.C.N.V.B B B M.OX#X@X0X8XXX5X0X",
"+X8X0X+Xb.X.a 5.g.F.B B S.S.S.B S.B D.S.N N.I.L.P.L.P.P.L.l.0.z.K.L.L.C.D.D.B B B T..X'.+X5X5XOX@X%X",
"'.%X}.8.'.'.X.5.M.S.S.S.S.S.S.S.S.N M y ; = h L.P.P.P.L.i * X : f.l.U.I.S.S.S.S.S.T.[.{.4X0X%XOX[._.",
"].#X:...1.@X(..X XS.S.S.S.S.S.S.F.g.: .     X z P.P.U.f.X       = f.P.P.C.D.S.S.B T.qXwX<X8X8.5.>.6.",
"8XqX%X+X+XqX0X0X$XF.S.S.S.S.S.S.A.K.-         u U.P.U.h         * l.P.P.I.S.S.S.S.G.>XtXqX8X+XXX{.[.",
"yXeX0X4XyXyXrXJ.1.G.B S.S.S.S.S.L.K.>         h U.P.P.z .       : K.P.P.U.G.S.S.S.S.;XrXwX4X3.;.` [ ",
"qXwXb.5.qXyX8X) l F.S.S.B D.D.F.L.L.9.*     : l.P.P.P.K.u O . * f.P.P.P.U.C.D.D.S.S.W.rXrX%X-._ r p ",
"8X|.) ..8XwX9X..@.F.S.S.D.D.B G.L.P.P.l.l z K.U.P.P.P.P.K.f.9.l.P.P.P.P.P.G.B D.S.S.R.<XqX<X_ a p j ",
"}.+X` 1.8X}.0X#XM.S.S.S.D.D.D.H.K.P.P.P.P.P.P.U.P.P.P.K.K.P.I.U.P.K.K.K.P.A.B D.S.S. X{.8X8X{ p / ] ",
"}.$X<.5.$X].8X8XT.S.S.S.D.D.B #.W %X4X@XW L L ^.4X8X.XW L P .X8X.XP L W XXR.D.D.B D.:X+X<XqX>.^ [ / ",
"%X#X4.3.+X+X%X%XH.S.S.S.S.S.D.' Z `.6X6XE Z Z ! 6X1X!.K S S Q.6X2XK S S Q.-XB D.B H.:X<X8X8X:.{ <._ ",
"yXwX'.8.+X}.$X|.H.B S.S.S.S.D.R C ! 6X6XQ.Z Z J ,X1X{ 0 V S E 3X3XQ S S Q R.B B B H.0XqXrX8X5.` / j ",
"qX0X+X<XOX>.J.@XR.B D.D.S.B B.G S K 1X7X`.F Z D /.7X6X*.5 2 F `.7X/.D Z F J.D.F.B T.<X8X8X<XX.k k / ",
"4X8X(.}.8.{ =.~.:XG.B D.S.F.m 2 2 2 R &.2.L H H &.^.^.!.H : < *.qX,X! Q E g.D.F.S.T.<X@X'.@X[ [ >.$.",
"#X%X'.8.7.;.;...-XF.F.D.D.D.g # + # # # 7 j j R j t j R ^ 4 $ 8 3.,X/.! J m.D.B S.R.%X+X[.@X$.'.5X}.",
"8X4XXX7.8._ ;...J.F.B B D.D.9 @ # # # # 7 k t t t t j j ^ 4 @ 5 6 6 A D G B.D.D.B R.@X[.OX0X~.@XqX5X",
"wXwX#X8.;._ <...M.F.S.S.D.F., @ # # # # 7 R j j t ~ t t P 4 O < Z 1 - 2 R B D.D.G.&X[.'.OXwX0X0XqX$X",
"8XwX8X#X<...|.].6.Y.S.S.B B > + # # # # 7 j t R j t j p j 4 @ < Z Z H 6 f B D.B T.qX$X.X%XtX5X0XwX5X",
"wXwX0X0X8X%X9X9X8X>XH.D.m N , o # # # # 7 ~ t ~ ~ t ~ ~ ~ 4 o 1 ! /.,X.XN F.B G.>XtXrX5XwXrXqXqXqX$X",
"8XrXwX0X+X1.4.#X0XwXW.D.d g y o # o # # 7 ~ ~ ~ ~ ~ ~ ~ j 4 o q 6X7X7X:XR.F.B -X5X<X5X@X<X8X~.4.<.'.",
"8XrXwX0X(.a _ ;.}.qX9XH.d ; 9 o o o # # 7 ( t ~ j j t ~ j 4 @ & R !.2.2.+.V.S.:X0XXX[.{.{.8X>.~ k <.",
"%XwX0X@X|._ ) ) 4.%X9XT.d o + o o o o # 7 ~ t ~ j R ~ ~ R 4 + + o # # @ , B F.J.<X7.[.XX8.8X<XXX| ] ",
"<XqX4X}.'.8.%.a $.8.@X;Xf o o # # # o # 7 R j j t t j t j 4 + + o + # o d B F.J.}.:.3.+X4XwXrXqX$X'.",
"qX8X$Xb.<.$X%X4.$.4.OXwXt o o # # o o # 7 j t R t j j R t 4 + + o # # % d d m.b.{.| } }.[.0XrXrX0X8X",
"qX4X+X].<.}.8XwX].>.].8X( # o o o o + # 7 k t j R j t j ~ 4 # # o o o o # = ^ 8.@X<.}.[.8.5XrXrXwXqX",
"qX8X+X#X{.%X9XwXwX9X0XrX:.# # # + # # + 7 j t t j j t t ~ 4 # # # o + # + 4 }.'.(.X..XXX<XqXrXrXwXqX",
"8X%X'.8.}.%XwX9X8X9X9XrX[.3 o # # # # # 7 R j j R j j t ~ 4 # # # # # # # } qX}.8.) { >.}.wX0X<X5X5X",
"OXqX8X6.J.<X%X8X%X0XwXwX$X} & o # # # # 7 k j R j t t j ~ 4 # # # # + # 7 }.4X}.+X;.=.) :.0X[.>..X5X",
"OX8X%X_._.5X8XqX9X8X8X0X%X4.} 3 # + + + 7 t t t a t P i ~ 4 @ @ + # & q | 4.+XXX8X%X@X[ -.+X7.] | <X",
"'.8X5X.X:.4.qXwXqX8XqX9X5X}._.~.=.( r q / } } >.-.| ] ] | ~ 7 w t ] '.+XoX}.#X}.8X8X4X:.{ oX(.~ _ 4.",
"}.%X%X+X}.@X0X0X+XoXwX0XwX<X<.4.#X4X}.<.-.>.J.8X$X5.J..X@X'.'.'.%X0X8X'.XX%X0X%X8X].>.[ a {.{.-.} ( ",
"}.}._._.$X+X$X5X}.1.<X5XwX5X;.:.<.+X|.8.5.~..X0X$XOXOXOX#X+Xb.5.XX%X%X}.@X8XqXqX<X:.k _ { '.~.-.-.=.",
"@X'.'.}.+X<X5X5X5X8X5XqXwXrX5X%X%X8X%X5X0X8XqXwXqX0X5X8XwX0X8X%X8X%X8X8X%X:X9XqX0X%X'.'.+X8X4X.XXXXX",
"8.;.| X.1.<X<X8.4.1.}.%XqX:X%XOX8.%.$.}.qX5X0X5XOX+X$X5X0X<X%XOX%X0X8X$X:X8X0X%X+X%X8.$.'.0X}.}.=.r ",
"}.$.a / 5.8X<X| | :.8.%X%X+X8X+X{ p e 5.wX8X5X$X'.+X8X8X0X:X<X8X8X%X{.'.+X+X.X8.-.+X4.} ] }.XX~.( w ",
"XX} r ] 7.5X0X;.] :.7.}.'.X.%X+X[ ) ) b.9X8X0X8X].}.8X5X8XqX5X5XqX@X<.| 4.5.>.-._ ~.[..X{ b.{.~.] ( "
};
