/* XPM */
static char *luna_L[] = {
/* columns rows colors chars-per-pixel */
"50 50 241 2 ",
"   c #020202",
".  c #080706",
"X  c #0C0C0C",
"o  c #09090B",
"O  c #110E0A",
"+  c #0A0C13",
"@  c #141414",
"#  c #1B1B1B",
"$  c #1A1916",
"%  c #10100F",
"&  c #1F2117",
"*  c #38373B",
"=  c #302C26",
"-  c #2D241E",
";  c #47392F",
":  c #4E4832",
">  c #544934",
",  c #685830",
"<  c #223C61",
"1  c #2C4B79",
"2  c #1D4074",
"3  c #474747",
"4  c #4B4A4A",
"5  c #494949",
"6  c #5C5B58",
"7  c #6A645A",
"8  c #776A50",
"9  c #626262",
"0  c #6A6A6A",
"q  c #766D65",
"w  c #7C746C",
"e  c #7E7E7D",
"r  c #7C7774",
"t  c #666C7A",
"y  c #5F5F56",
"u  c #856434",
"i  c #867151",
"p  c #837B74",
"a  c #877F7A",
"s  c #9A7C67",
"d  c #FF7976",
"f  c #91854D",
"g  c #AC934F",
"h  c #88837E",
"j  c #95847F",
"k  c #B39078",
"l  c #B7A767",
"z  c #B0A179",
"x  c #B3A15C",
"c  c #FF8756",
"v  c #FF9556",
"b  c #FF945B",
"n  c #FF9855",
"m  c #FF8464",
"M  c #FF8276",
"N  c #C2AD6C",
"B  c #CDB05B",
"V  c #ECD575",
"C  c #FEE67C",
"Z  c #FFEB7E",
"A  c #FBE579",
"S  c #FFF07F",
"D  c #D5C87F",
"F  c #174C9A",
"G  c #1D519E",
"H  c #26559C",
"J  c #36588B",
"K  c #184FA4",
"L  c #2658A3",
"P  c #3463A7",
"I  c #3D6095",
"U  c #47689A",
"Y  c #797C80",
"T  c #6D7786",
"R  c #567DB8",
"E  c #4B73AD",
"W  c #707FA2",
"Q  c #FD7886",
"!  c #FE6C94",
"~  c #FE6696",
"^  c #FE7194",
"/  c #FE7A95",
"(  c #ED7F93",
")  c #FF7DA0",
"_  c #D4738B",
"`  c #7583A4",
"'  c #688ABC",
"]  c #7F8BB0",
"[  c #658198",
"{  c #6F91C3",
"}  c #7FA0CF",
"|  c #828282",
" . c #8B8582",
".. c #8D8B8A",
"X. c #8A8887",
"o. c #928A85",
"O. c #948D8B",
"+. c #958785",
"@. c #96908E",
"#. c #9A938E",
"$. c #9A9593",
"%. c #9D9A9B",
"&. c #999595",
"*. c #8C9391",
"=. c #A29D9C",
"-. c #A09995",
";. c #BF9B81",
":. c #97AA8A",
">. c #ACB68B",
",. c #A5BB8B",
"<. c #A6B68B",
"1. c #A7A19D",
"2. c #BAB09C",
"3. c #8E9BAF",
"4. c #A29FA1",
"5. c #A5A2A3",
"6. c #AAA5A4",
"7. c #ADA9AA",
"8. c #AAA7A8",
"9. c #B1ADAD",
"0. c #B1AAA6",
"q. c #B6B2AF",
"w. c #B1AEB1",
"e. c #B5B2B3",
"r. c #B9B6B6",
"t. c #B7B5B9",
"y. c #B9B7BA",
"u. c #BDBBBC",
"i. c #BAB9B7",
"p. c #AAACB4",
"a. c #99A3AC",
"s. c #D2948F",
"d. c #D49290",
"f. c #D8898E",
"g. c #FE8D8F",
"h. c #F8838C",
"j. c #FE988E",
"k. c #EB8191",
"l. c #FE8991",
"z. c #FE8393",
"x. c #FD9899",
"c. c #E99288",
"v. c #D2B08C",
"b. c #FFA88B",
"n. c #FEB788",
"m. c #FFB891",
"M. c #F2B197",
"N. c #F89BB5",
"B. c #F58FA4",
"V. c #C1BEBD",
"C. c #C8B3A9",
"Z. c #FFB3AB",
"A. c #CB9CAB",
"S. c #D8CC9B",
"D. c #D6C68B",
"F. c #FEC886",
"G. c #FDD985",
"H. c #FED499",
"J. c #EAD09B",
"K. c #FEE681",
"L. c #FFEB82",
"P. c #FEE48B",
"I. c #FBE789",
"U. c #FFF483",
"Y. c #FFF488",
"T. c #FEE698",
"R. c #FFF793",
"E. c #C6C1B7",
"W. c #F4C5A3",
"Q. c #FDCBA5",
"!. c #FDCBAA",
"~. c #F9C8A9",
"^. c #FFD2AB",
"/. c #FED5A3",
"(. c #E5DDB9",
"). c #FFD5B1",
"_. c #FFDBB3",
"`. c #F1D2AE",
"'. c #F6E6A5",
"]. c #EDE3B6",
"[. c #FCE8B5",
"{. c #F8EDB0",
"}. c #99B3DA",
"|. c #90A9CE",
" X c #BEBDC2",
".X c #B3BCCB",
"XX c #A3BBDF",
"oX c #A6BEE0",
"OX c #C0BFC1",
"+X c #D6B9C0",
"@X c #F0A9C0",
"#X c #BFC0C5",
"$X c #BBC4D2",
"%X c #BBCEEA",
"&X c #C4C2C4",
"*X c #C8C6C6",
"=X c #C5C4C9",
"-X c #C8C7C9",
";X c #CBCACD",
":X c #CBC8C7",
">X c #D0C7C8",
",X c #D6D2C9",
"<X c #CDCDD1",
"1X c #CBCED9",
"2X c #D1CFD1",
"3X c #D3D3D5",
"4X c #D5D5D9",
"5X c #D9D7D9",
"6X c #D7D8DC",
"7X c #DBDBDD",
"8X c #D9D4D6",
"9X c #CED0D5",
"0X c #F4C8D3",
"qX c #E5DDDB",
"wX c #EAD3CD",
"eX c #E9E4C6",
"rX c #EAE6DA",
"tX c #F7E6D0",
"yX c #F3F1D3",
"uX c #DDDEE1",
"iX c #D6D8E3",
"pX c #C9D8EF",
"aX c #E0DFE1",
"sX c #DFE0E4",
"dX c #DAE6F9",
"fX c #DEF2EC",
"gX c #E3E3E5",
"hX c #E5E6E9",
"jX c #E7E9EB",
"kX c #EBEBEC",
"lX c #EAEAE4",
"zX c #EDEEF1",
"xX c #E2EDFE",
"cX c #E2E9F6",
"vX c #F0EFF2",
"bX c #EFF1F2",
"nX c #EBF6FB",
"mX c #F1F2F3",
"MX c #F4F4F9",
"NX c #F4FBFB",
"BX c #F0EEEA",
/* pixels */
"gXjXkXuXo.p OX8.O.6XjXhXmXjXjXaXvXmXmXMXmXjXbXmXkXkXkX7X7XaXi.u.kXkXV.*XkXhX9X X9X<XsXjXbXjX7X#X-XfX",
"hXbXzX7Xa  .u.&X&XkXkXzXmXzXjX6XjX7XkXMXmXbXkXmXvXkX3X3X6XkX&X-.3X7X:XOXkXhX6X;X&X4X6XzXjXsXsX-XsXsX",
"hXmXzXmX-.$.6XhX8XkXkXmXmXvXmXhXgXu.rXMXkXhXkXvXvXgXq.i.hX2X-.1.e.gX;X;XkXhX6X&X;XuXw.4XiXjX1X<XiXfX",
"jXmXmXMXuX3XkX2X;XjXhXkXmXzXzXzXkXhXzXzXkXsXrXmXvXvX6X7XjX7.*X4Xr.gX7X7.q.:X-XsX2X%.5. X4XsX;X<XsXsX",
"kXzXmXmXmXkXlXjXMXlXkXhXlXjXbXkXmXlXkXzXmXmXvXzXgX*X3XjXmX2XaXmX4X*XV.0.V.e.6XmX&Xh @.i.uX6X=X4XiXsX",
"kXkXmXmXvXmXzXkXvXmXvXmXkXN.BXmXvXNXmXlXmXMXmXMXbXkXzXnXNXNXNXbXnXN.B.bXqX6XaXvXgX7X;X4XzXjX6XsXsXhX",
"7XkXkXmXkXvXvXkXlXkX5XhXmXB.N.nXyXtX0X0XtXyXrXBXrXBXhX0X@XN.0XlX0XB.C.A.4.6.;X4X1.i.p w ;X6X X9Xe.4X",
"7XbXvXkXkXzXvXkXhX7Xu.lXN.0X/ x.l.k.c.f.h.n.Z C L.I.x.d m d d ^ ^ B.) x.y.<XMX4X;XzX3Xq e.bXgXsX=XiX",
"hXjXhXuXgX7X7X7Xe.-.+.wXZ.z.l.~ f.>.,.<.>.f.n.Z K.j.d n v v n M ^ ^ n.b.c.eXMXjX8XrXgX-.8.mXgXhX2X9X",
"zXjX*X2X3X9.:X:XE.@. ._ x.n.^ k.,.>.>.>.>.>.( G.G.Q v b v b v v Q z.j./ G.S '.MX#.p h q #.uX-XhX4XsX",
"kXgX&X;X8X7.gX=.0.r.+.v.b.z.^ s.,.>.<.<.>.<.d./ / M v b c c b v M ~ g.n.g.G.A {.&.q w q o.3Xt.iXsXsX",
"sX7X;X4X5X;XmX,XO.u.J.Q j.g.! s.,.>.:.:.>.,.d.~ ~ M v b c c b v M ! l.l.n.K.C Z z a 1.=.&XjXhXhXsXkX",
"sXbXzXmXgXgXvXMX-XD.U.F.b.l.^ k.,.>.>.>.>.,.k.b.b.Q b v b b v b ^ ! g.b.j.G.L.L.V e.sX4XgXzXjXgXgXgX",
"hXhXkXgXu.r.hXgX>XA G.l.l.z.! ~ d.,.,.,.<.f.b././.m.Q b v v c Q ^ g.g.j.n.C K.K.K.v.1XsX6XjXhX6X#XsX",
"gXuXgXaX2Xq.1.<XS.Z K.K.F.F.F.b./ k.d.d.( x.!.!.~./.m.h.Q Q / j.G.Z L.Z L.Z K.K.A S.1X6X4XhXgX;XjXkX",
"3XgXkX6XV.-.q u.D.Z K.K.Z Z P./.^.Z.Z.x.~._.!.!.!.!.^.T.I.I.Y.S L.K.K.K.K.K.K.L.A (.<Xi.3XuXgX<X4XsX",
"V.gX:XV.=X:X$.t.S.Z K.K.C H.~.!.W.W.8 & = k ).!.!.Q.).s.: , x I.A Z K.K.K.K.K.K.C eX X&XjXkX7X5X=X#X",
"&X6X%.o.9.aXV.;X(.C K.K.K.!.!.^.v.*       . v.).!.^.v.X       : v.L.C K.K.K.K.K.C eXzXzX6XhXw.e.8.e.",
"hXkXgX8X2XkXkXbX7XK.K.Z H.!.!.!.!.-     .   s _.W._.s   . .   = !.H.Z K.K.K.K.C K.rXmXzXhXhX6X8X;X;X",
"mXvXkXgXmXNXmX&X2.L.K.K.H.!.!.Q.^.;   .     k ).W._.s     .   ; ).Q.K.K.K.K.K.Z P.zXzXjXkXgX7.8.@.#.",
"lXkXV.7.BXMXjXr z L.K.K.Q.!.Q.Q.).v.X     > ^.!.!.!.W.=       s._.Q.K.K.K.K.K.K.P.kXzXbXmXiX=.O.w w ",
"hX8Xp $.jXkXlX@.N U.K.K./.!.!.!.W.).M.k ;.!.~.!.!.!.^.W.s i v.`.~.~.P.C K.K.K.K.C rXgXuXkXgX .a r h ",
":X8Xo.q.jX:XkX7XC.K.K.K.H.!./.`.^.Q.!.)._.^.^.!.Q.Q.Q.^._.[.^.Q.W.^.P.Z K.K.K.K.A (.9X&XjXkX$.w o.&.",
";XgX6.r.aX#XsXbXj V L.I.eX8X] ` W -XqX8X` ` ` -XqXqX;X` W ` 8XqXrX] v.S K.L.K.K.A '.hX2X6XmX7.a %.o.",
"uX6X9.7.8X3X7XhX+.g U.`.dX$XG G L pXxXXXF G P pXdXxX|.F F P dXdX%XK ` S S Z K.K.C '.zXuXgXjX=.$.i.O.",
"MXkXOXr.6X;X7X:Xi.i A ].dX{ H H { cXcX' H H ' cXpXdXE H G |.cXdX} F [ S Z A K.K.C '.hXjXMXgXu.$.h p ",
"kXhX3XjX8X6.&X7XBXj x [.dXL F F }.cXpXP L G XXnXxX%XG L L %XnXxXE K P A Z K.K.K.A ].uXhXhXhX-.p o.o.",
"7XkXu.;Xu.$.-.V.lXD.u L.3.' ' ' pXxX|.2 J U .X;X1X3.I U E .Xp.3.J 1 1 D L.C K.K.L.rX6X6Xy.7XO.#.8.%.",
"5X6X&Xy.r.7.1.@.eXU.u B y E |.pXdXnX[ . 4 X.e p e e h h o.6 X @ # # X x Y.K.K.K.L.rXiX3X&XuX$.*XkX;X",
"hXgX;Xr.&Xj 6.%.].S N u 7 F F H E }.e . 4 | e [ e e e e X.9 @ # # # + 8 Y.K.K.K.C eXiX&X<XzXt.4XkXsX",
"kXbX4Xy.6.O.q.@.E.C C , * G H H G L < O 5 X.r h h e h a X.9 @ # # # + , L.K.K.K.Z wX=XOX<XbXjXjXkX4X",
"gXkXgX7X8.o.8X:Xr.J.U.f * |.R P H L < O 5 X.e h h [ h [ | 9 @ # # # + : I.K.K.A {.zX6X;XiXbXsXsXkXuX",
"jXzXhXkXkXlXjXkXlXkXR.V 4 xXcXpX}.{ 1 X 5 X.e h e h h r | 9 # # # # + , S l S L.lXbXzXgXjXzXzXzXbX7X",
"gXkXkXhX3X7.e.7XkXjXtXA 7 pXxXcXnXNXr   4 | r h [ h h e X.9 @ # # # + f x i S {.fX7XgX8XuXjXu.9.9.*X",
"gXzXkXkX&Xw o.6.:XjXrXY.: t $X.X$X3.= % 5 | e h h h e e | 9 @ # @ # + f ; i R.7XgX<X X;X&XzX8.q w e.",
"6XkXkX3X;Xo.j j r.gXrXL.:   O @ + o @ @ 5 X.[ h h h [ e | 9 $ @ + @ @ # X f {.1XhXe.;X1Xw.hXuXiX$.X.",
"7XkXgX-X&X&X1.q =.u.,XU.: + $ $ # @ # @ 3 X.e e e e e e X.9 $ @ # # # @ + f yX&X;X4.9.4XjXjXvXzXsX&X",
"lXhX6XV.6.gXhX9.-.r.;X[.: + $ # # @ # @ 3 X.e h h e e h | 9 @ @ @ # # @ + 7 u.OX;X$...<X&XjXzXzXjXjX",
"jXgX3X:X6.=XgXMX*X=.&XzX4 X @ @ @ @ # @ 3 X.e e e h h e X.9 @ # @ @ @ @ @ 4 h i.hX8.4X&Xw.gXmXzXjXgX",
"kXgX3X6X:XqXhXkXzXmXkXNX0 + # # @ # # @ 5 | e e [ h e e | 9 @ # # # # # @ 6 7X:XOX-.4X6XsXjXzXzXkXjX",
"hX6Xr.V.;X7XkXlXgXrXhXmX7.% # # # # # @ 5 X.h h Y h Y e X.9 @ # # # # @ = V.mX-Xy.a @.8.<XzXhXgXhXuX",
"2XzXzXe.&XgX5XgX6XjXBXkXgX9 . # # # # $ 5 X.h [ | | | e X.9 $ # # # @ % a 7XuX-X7X4.4.h 4.vX-X5.2XhX",
"2XgX6XV.&XhXhXlXkXgXgXgXsX9.r # + X O o * j r r e e e e [ y o X X % * h 5.8.6X;XgXqXaXO.=.7Xt. .$.jX",
" XjX7X2X=.6.zXkXkXgXhXkX7X;X3X X&.Y r 6 [ -.&.8.4.&.X.O.=.+.6 0 e 5.jXuX<X<X6X&XjXgXzX8.O.iX=Xr ..e.",
";X7XuX3X;X5XhXhX3X:XzXgXkXgX5.e.gXkX5Xe.6.p.#XbXsXe.&X8XqX;X;X3XjXbXjXt.;XrXhXuXhX-X9.&.w 2X;X4.&.| ",
"<X;Xu.u.gX<X6XgX*X8.qX7XmXgX=.5.6.<X<Xr.9.E.=XjX4X;X<X3X6X3Xe.7.;X6X6X-X7XgXjXjXgX=.q o.O.-Xu.4.4.%.",
"6X*X&X6X3XuXsXjXjXkXhXkXkXzXhX7XrXjXjXgXkXkXkXkXBXlXaXgXkXhXlX7XgX7XhXgX5X7XhXlXkXhX:X-X7XhXhX<X6XiX",
"u.5.&.%.8.gXaXu.7.w.;X7XkXlX3X3Xu.1.-.;XkX7XjXsX;X2X7XgXhXgX6X<XuXjXlX7XrXhXkXuX2XgX X&.;XkX-X<X4.q ",
"2X5.r | r.kXaX&.=.5.t.gX6X3XhX8X#.q 7 r.vXqXsX7X X4XgXgXhXaX7XgXgX7X*XOX6X4X2Xy.%.iXw.@.h 2X<X X| 9 ",
"6X$.w @.t.hXkX4.@.8.e.<X&X@.gX6X#.#.o.u.kXgXlXgX&X;XhXaXgXkXaXsXjX6X8.&.w.e.8.4...OX&X7XO.OX1X X@.O."
};
