/* XPM */
static char *l_lose[] = {
/* columns rows colors chars-per-pixel */
"50 50 243 2 ",
"   c #010101",
".  c #0B0B0C",
"X  c #12100F",
"o  c #0A0B11",
"O  c #141515",
"+  c #1B1B1B",
"@  c #1A1715",
"#  c #100E0E",
"$  c #221B16",
"%  c #29231D",
"&  c #252525",
"*  c #2D2121",
"=  c #39322A",
"-  c #453B2C",
";  c #49442E",
":  c #524734",
">  c #685E34",
",  c #214478",
"<  c #535353",
"1  c #765A4E",
"2  c #716654",
"3  c #646363",
"4  c #776D67",
"5  c #7C736D",
"6  c #7D7D7D",
"7  c #7A7773",
"8  c #6F7070",
"9  c #BC2627",
"0  c #FF0000",
"q  c #FF040A",
"w  c #FA0609",
"e  c #FC0C11",
"r  c #FD161B",
"t  c #E51216",
"y  c #FE1D22",
"u  c #D03435",
"i  c #FA262B",
"p  c #F92A31",
"a  c #FC3338",
"s  c #EF3036",
"d  c #AD443F",
"f  c #FC3C40",
"g  c #847B73",
"h  c #877E79",
"j  c #947668",
"k  c #AE716E",
"l  c #995B51",
"z  c #DA5457",
"x  c #D4484A",
"c  c #FA4449",
"v  c #F75458",
"b  c #F4494D",
"n  c #FB5B61",
"m  c #D76F72",
"M  c #F8676B",
"N  c #FB7B79",
"B  c #EF6A6F",
"V  c #FF7E50",
"C  c #89827D",
"Z  c #948870",
"A  c #AC8D77",
"S  c #B49279",
"D  c #AA8A72",
"F  c #8E8250",
"G  c #FE8E59",
"H  c #FF9756",
"J  c #FF935A",
"K  c #FF9955",
"L  c #FF8565",
"P  c #FE8378",
"I  c #CDB86C",
"U  c #EDD579",
"Y  c #FFE67D",
"T  c #FFEB7D",
"R  c #FFE676",
"E  c #FFF17E",
"W  c #D6C16E",
"Q  c #184C99",
"!  c #1D4C94",
"~  c #375E9B",
"^  c #2D558F",
"/  c #2657A1",
"(  c #3964A5",
")  c #3C6BB0",
"_  c #27569E",
"`  c #7F7F80",
"'  c #677A8D",
"]  c #486FAB",
"[  c #FE7A86",
"{  c #FE6A96",
"}  c #FB7695",
"|  c #EE738F",
" . c #5B82BC",
".. c #708BB4",
"X. c #698CC1",
"o. c #828281",
"O. c #8B8583",
"+. c #8E8A87",
"@. c #928A85",
"#. c #948D8A",
"$. c #968C86",
"%. c #9A928D",
"&. c #96918E",
"*. c #9A9593",
"=. c #9E9995",
"-. c #9B9797",
";. c #90938F",
":. c #BB978D",
">. c #A29D9C",
",. c #A29895",
"<. c #B28A8A",
"1. c #9BAA8E",
"2. c #B8AB8C",
"3. c #A8B78B",
"4. c #A6A09D",
"5. c #B0AD90",
"6. c #8899B0",
"7. c #A29EA1",
"8. c #95AAB1",
"9. c #A5A2A3",
"0. c #AAA5A4",
"q. c #ADAAAA",
"w. c #A9A8A8",
"e. c #B2ADAD",
"r. c #B8A9A9",
"t. c #AFAEB0",
"y. c #B1AEB1",
"u. c #B5B2B3",
"i. c #BAB6B6",
"p. c #B5B6BA",
"a. c #B9B6B9",
"s. c #BDBABC",
"d. c #B7B9B6",
"f. c #B1B2B0",
"g. c #D8938E",
"h. c #CA938D",
"j. c #F88689",
"k. c #FE938D",
"l. c #FC988D",
"z. c #EA8792",
"x. c #FA8994",
"c. c #F69597",
"v. c #E89091",
"b. c #D1A98E",
"n. c #FEA58C",
"m. c #FFB78A",
"M. c #F7AE93",
"N. c #D99EA0",
"B. c #F193A6",
"V. c #C1BEBD",
"C. c #D8B7BC",
"Z. c #D6AAB2",
"A. c #F2A7B3",
"S. c #E9B7B9",
"D. c #F3B7B9",
"F. c #F7B2A9",
"G. c #CFC489",
"H. c #FEC586",
"J. c #FFD786",
"K. c #FDD99A",
"L. c #F1D192",
"P. c #FEE682",
"I. c #FFEA82",
"U. c #FBE58C",
"Y. c #FDE88C",
"T. c #FCE896",
"R. c #FFF38A",
"E. c #C7C3BB",
"W. c #DBCFA0",
"Q. c #FDCBAB",
"!. c #FCC8A7",
"~. c #FED3AE",
"^. c #FDD4A6",
"/. c #FBCEB1",
"(. c #FED4B1",
"). c #FDDAB7",
"_. c #EFC3A6",
"`. c #F8E7A5",
"'. c #FAE6B7",
"]. c #F4E9AE",
"[. c #99ACCC",
"{. c #8EA9CF",
"}. c #BDBDC1",
"|. c #B7BDC7",
" X c #A0B2D3",
".X c #859CC1",
"XX c #C1BFC1",
"oX c #DDBEC6",
"OX c #E6B7C5",
"+X c #BAC5C7",
"@X c #B4D4DD",
"#X c #B7CAE6",
"$X c #C4C2C4",
"%X c #C9C6C6",
"&X c #C5C5C9",
"*X c #C9C7C9",
"=X c #CBCACC",
"-X c #C4CAC8",
";X c #D1CFCE",
":X c #CECED1",
">X c #C8CFDB",
",X c #D0CFD2",
"<X c #DBCFD3",
"1X c #C9D8DA",
"2X c #D3D3D5",
"3X c #D6D6D9",
"4X c #D9D7D9",
"5X c #D6D9DD",
"6X c #DBDBDD",
"7X c #D9D8D6",
"8X c #F2C0C2",
"9X c #E6D4D8",
"0X c #F2D8D9",
"qX c #ECC8CE",
"wX c #F3EDD8",
"eX c #EAE5D6",
"rX c #DDDEE1",
"tX c #DDDFE8",
"yX c #CAD8F1",
"uX c #E0DFE2",
"iX c #DDE2E4",
"pX c #D7E6E9",
"aX c #D8E6F7",
"sX c #E3E3E5",
"dX c #EBE9E4",
"fX c #E5E6E9",
"gX c #EAE7E9",
"hX c #E6E9EB",
"jX c #EBEBEC",
"kX c #EBE3E4",
"lX c #F2E7E8",
"zX c #F3F2E7",
"xX c #EDEEF1",
"cX c #E3EBFA",
"vX c #E4F2F4",
"bX c #EEF1F3",
"nX c #EBFDFD",
"mX c #E8F8FC",
"MX c #F1F2F3",
"NX c #F5F6F8",
"BX c #F2FBFD",
"VX c #FCFCFD",
"CX c #EDF3E8",
/* pixels */
"sXhXhXrX@.h XX0.#.4XhXhXMXhXhXuXxXmXBXMXBXbXbXMXdXjXhX6XrXsXi.d.jXxXV.%XhXsX2X}.:X>XsXfXxXfXrX|.:XiX",
"fXbXxX6Xh O.s.$X$XjXjXjXMXxXfX4XxXS.a r v lXbXMXnXmX2X,X4XgXE.>.2XrX*XE.bXsX5X=X&X2X6XxXfXfXrX&XiXfX",
"fXMXxXMX,.*.5XfX7XjXjXxXMXxXMXhX6Xr a D.r b kXa b z.r.}.hX1X>.>.u.6X:X=XjXgX5X$X=XrXt.2XrXhX2X=XrXpX",
"gXMXMXNXrX2XjX,X=XjXfXxXMXxXxXBXD.0 D.BXx.f N.0 b r i 4XS.m *X2X+XhX4Xw.e.%X*XrX=X>.9.}.2XrX:X>XrXiX",
"xXxXMXMXMXgXgXjXNXgXjXfXgXdXjXnXN q kXjXBXBXM q mXZ.0 8XM q sXNXB g.1Xf.+Xp.4XMX$Xh %.i.6X6X+X2XrXtX",
"jXjXxXMXxXMXxXjXxXMXxXMXMXxXjXBXN q NXkXj.lXc 0 s i p lXi v nX0X0 P xXn c c.fXMXvXpX%X7XxXsX6XiXiXhX",
"6XjXjXMXxXxXMXjXgXjX6XgXjXkXjXMX0Xy i i e 8Xe M c.0 c.sX0 v.nXA.0 C.a r z w z pXx h...5 1XpXs.:Xp.3X",
"6XxXxXjXjXxXxXjXfX6Xi.CXMXxXMXMXnXlX[ M 0XD.0 8XnXy v F.0 8XnXM e N.w g.@Xx p qX0 c.E.9 s j.hXiX&X5X",
"fXjXfX6XsX6XrXuXf.,.Z sXVXMXNXMXMXBXnXnXvX9Xv.lXkXw j.F.0 S.vXy f m w <.w.fXkXj.0 9Xs w z e v vX:X:X",
"xXgX%X2X2Xe.%X%XE.&.C V.VXsX6XsX4XjXgXkXjXiXpXxXxX0X0XbXv q y 0 <.z e 8.q.S.mXv t j 0 l 8.v.0 9XrXrX",
"jXsX$X=X2Xq.kX4.q.i.h 0.sX*XV.=Xi.hXjXgXjXjXxXMXxXNXMXCXvXS.v.oX+Xh.q u u 0 :.r u d q l ;.P w <XiXrX",
"iX6X=X3X7X;XxX;X$.E.;X;X4X6XsX%Xr.zXsXxX$XsXNXjXwXwXwXxXsXiXmXbXuXiXS.s r k k 0 l d e 8.@Xs a cXfXhX",
"iXMXMXMXsXsXxXNX%Xq.eXxXMXfXW.U.Y I.U.T.T.`.T.P.Y Y P.`.`.I.`.dXmXNXpX+X9.1XC.M Z.<.q v B 0 v.vXuXfX",
"fXgXgXsXa.i.sXsX,XZ ,.dXjXT.Y Y I.Y P.P.Y Y P.P.P.P.Y Y R I.Y P.].hXrXy.u.2XhXBX,X9.N.c p c.vX2XXXrX",
"rXrXsXuX2Xu.4.;Xi.C %.V.T.R I.P.P.P.P.P.P.P.P.P.Y P.P.P.P.P.P.Y E R.].eXiXMXMXdXiXs.1XaXtXvXuX:XfXhX",
"2XsXxX3Xs.,.4 V.0.g @.G.Y H.J.J.I.P.P.P.P.P.Y P.P.P.P.P.P.I.R.U F > > 1 3 8 u.VXjX,X=Xd.,X6XfX,X3XrX",
"XXsX*XV.-X=X,.i.p.0.:.k.m.k.n.l.T P.P.P.I.P.Y P.Y I.R.I.P.W W W W 2 . . . . . 8 CX2XV.E.fXhXrX4X&XXX",
"$X4X=.@.e.9XV.%XoXC.x.m.k.l.l.l.I.P.P.Y Y R P.P.L.G.1.8 = + O O & - @ + + + &   6 vXhXbX4XfXy.y.w.y.",
"fXjXsX7X;XjXjXxXA.} z.x.} } { x.P.Y I.J.K.!.(.(.~ Q Q ! O + + + + o O + @ O + + & 5XNXbXfXfX4X3X:X=X",
"MXMXjXsXMXBXNXV.d.oX} { [ P [ { J.R.K.(.Q.).A b.1X{. .^ O + + + + @ O + O + + + O V.NXfXxXuXe.0.#.*.",
"gXxXs.e.xXNXkXg +.a.| L H J H N n.U * j '.A   = bXaXaX8.X + + O @ O O O O + @ @ X d.NXxXMX6X7.+.7 5 ",
"sX7Xg *.hXjXhX%.=.Z.P K J J J G j.I     : #   S #XyXmX+X+ & & & & & & & & & & & + f.xXrXxXuXO.h g h ",
"=X7X@.e.gX-XjX6X&XOXL J G V G H P K.b.$     D ).~ ( ..8.6 6 ..5 6 6 6 6 6 6 6 6 6 s.2X+XgXxX*.5 @.*.",
"*XsX0.i.6X$XsXkXiXqXN K G G G H j.T.b.#     = b.( Q Q ~ C ` g C ` o.o.o.o.o.6 g 6 -XhX,X6XxXq.h -.+.",
"rX4Xy.e.,X2X6X6Xd.fXc.G H H K N M.L.X   D 1   * .X] / ~ O.` ` ` 7 ` C ` ` ` g C 6 ,XxXrXuXjX>.*.a.#.",
"MXxXXXi.4X,XuX*XE.6XK.k.N P [ M.^.~.j D './.j j bXaX#X6.` ` ` ` C g ` ` ` ` ..C 6 3XjXhXNXuXs.*.C h ",
"jXsX2XfX3X0.V.uX4XrXU.T m.{ x.^.Q.!.(.(.!.!.).).cXaXcX>X6 o.o.` ..g h g ` ` ` ` 6 &XuXfXfXfX>.g +.@.",
"rXjXs.=Xs.*.,.V.sXkXI.Y n.{ [ H.~.Q.(.~.).b.S /.{.#XaX>X6 ` ` ` ` h 6 ..` ` ` ` 6 &XuX3Xa.rX#.&.q.>.",
"3X6X$Xa.i.e.4.&.hXCXJ.z.:.2.2.z.!.D - g.Q.-   S ] _ ] ..O.o.O.O.o.+.o.o.o.+.o.O.` *XrX,XXXrX*.&XhX=X",
"fXsX=Xa.$XC r.%.fXwXk.5.3.3.3.1.B.1   . %   : /.~ ! _ ^ 3 3 3 3 3 3 3 3 3 3 3 3 3 }.uXXX:XxXa.3XxXrX",
"jXxX4Xa.0.$.f.$.+XqXg.3.3.3.3.3.g.F.I o     = S [.X.) , O O O O O O O O O O O + # w.,X}.:XxXhXfXxX2X",
"sXhXiX6Xq.$.7X%Xf.8Xg.3.3.1.3.3.g./.S   $ :     |.BXtX..O + + + + + + + + + + + O p.uX=XrXxXuXiXxXrX",
"hXxXsXjXjXdXjXdXhXwXx.3.3.3.3.3.x.!.%   b.).b.2 [.#XnXp.O + + O + + O O O O + + O s.VXrXxXxXxXxXxX6X",
"sXxXhXkX2Xq.f.6XgXCXc.| 2.3.2.z.x.(.b.S ~.!.)./.~ /  .' O + + + + + + + + O + + & &XfX3X6XhXs.y.e.&X",
"sXjXxXgX$X5 $.0.=X9X} } } } } { H.^./.).!.Q.!._.~ Q / ! + + + + + + + + @ + +   3 4X}.=XXXxX7.5 g y.",
"4XxXhX3X,X@.C C h.B.A.x.l.} x.} H.I.!.Q.Q.Q.Q.Q. X .( , o O O O O O o o o O . < iXa.=X,Xy.fXrXrX*.+.",
"rXjXsX*X&X&X4.5 ,.XXB.F.l.M.l.k.H.T P.J.K.^.K.^.hXaXyX6.- ; ; ; ; ; ; ; = = #.=X:X7.y.4XhXhXMXxXuXXX",
"gXfX6Xs.4.iXsXe.,.y.:X0Xg.l.m.n.J.I.P.Y P.P.P.Y T.].].Y.I.I.I.I.I.U.R.U.Z -.XXXX=X*.#.,XXXhXMXhXhXfX",
"gXsX2X*X0.-XsXNXXX7.%XfX=Xu.U R Y P.P.I.Y Y Y P.Y R R R Y Y Y U.E.;XdXe.5 g 7 a.uXq.3XXXy.uXMXxXhXfX",
"gXsX2X6X=X9XjXjXMXMXjXgXdXq.&.].Y.U.U.L.`.U.U.P.P.T.T.'.T.T.].jXfXsXjX,.2 7 4X*XXX,.>XrXuXgXxXMXxXhX",
"fX4Xa.V.*XrXjXhXuXuXdXhX4XsX2XfX7XdXuX$Xs.,XeXwXeX7XrXxXxXhXiXbXhXsXjX,.g V.MX*Xa.h &.q.=XxXfXuXuXrX",
":XxXxXy.E.uX6XsX4XlXMXjX4X=X%XkXq.rX%Xs.-X4.rXNX6X*X$Xe.sXsXfXjXiXsXsX%.-.6XsX-XrX7.7.o.7.MX&X0.:XfX",
"2XsX6Xs.&XsXsXgXlXsXsXsXiX0.6XjX7X6X%X*Xe.f.%XMX:X4XsXV.i.>.=X4XsXsXxXe.>.0.3X=XuXrXuX#.7.rXa.O.-.fX",
"s.hXrX,X>.w.xXjXhXsXgXjXuX-X$X3XsXjX4Xs.i.i.4.gX6X2X0.0.s.u.4.i.rXsXjX3X2X:X7X&XgXfXjXq.#.rXXX7 +.p.",
"*XrXrX2X=X3XgXfX2X=XjXsXjXsX9.e.7X6X=X0.>.w.}.gX4Xq.V.2X4X%X$X%X6XgXfXa.=XiXdX6XfX&Xt.*.5 ,X=X7.-.o.",
"2X=X}.a.sX:X4XsX%X0.rXsXxXsX>.0.0.2X2Xs.u.$X*XgX6X:X:X2X4X4Xi.q.:X6X6X*X6XsXhXjXuX>.4 $.#.&X}.7.7.-.",
"6X*XXX3X2XrXsXhXgXjXfXgXjXMXsXrXuXdXhXsXgXgXjXjXjXfXsXsXjXfXsX6XsXrXsXsX6X9XsXgXgXgX&X&XrXuXuX:X3XrX",
"s.9.-.-.0.sXuXa.q.f.*X6XjXsX3X2Xs.4.>.=XjXrXhXsX=X2X7XsXfXsX6X:X6XhXdX6XsXgXjXuX,XsX}.-.=XxX=X,X7.4 ",
":X9.7 o.i.hXuX*.>.9.p.uX6X,XgX4X*.4 2 i.MXrXsX6X}.3XsXsXsXsXrXsXsX6X$X$X5X3X,X}.-.rXt.&.o.2X:X}.o.3 ",
"3X*.5 *.a.fXhX7.&.q.p.,XXX&.uX6X&.&.C V.jXsXkXsX&X=XsXsXsXjXrXrXxX3Xw.*.y.y.0.7.+.}.XXrX#.XX,X|.&.#."
};
