/* XPM */
static char *luna_r[] = {
/* columns rows colors chars-per-pixel */
"50 50 236 2 ",
"   c #020202",
".  c #0C0C0C",
"X  c #090906",
"o  c #0B0D13",
"O  c #050813",
"+  c #141414",
"@  c #1B1B1B",
"#  c #191715",
"$  c #120F0B",
"%  c #251E18",
"&  c #2F281B",
"*  c #1F2020",
"=  c #38352F",
"-  c #433B2E",
";  c #493D31",
":  c #534936",
">  c #68522E",
",  c #69603D",
"<  c #263753",
"1  c #1A3866",
"2  c #403D47",
"3  c #274471",
"4  c #384B67",
"5  c #4B4B4C",
"6  c #5F5E5E",
"7  c #555453",
"8  c #4F514E",
"9  c #615F5F",
"0  c #736857",
"q  c #646463",
"w  c #766D65",
"e  c #7C746C",
"r  c #7D7D7D",
"t  c #7C7773",
"y  c #656B77",
"u  c #55605C",
"i  c #836333",
"p  c #8A7C4B",
"a  c #866C55",
"s  c #837A74",
"d  c #847E7A",
"f  c #887F7A",
"g  c #9E7F6A",
"h  c #FF7C74",
"j  c #97874D",
"k  c #AF9750",
"l  c #B6A35E",
"z  c #88827D",
"x  c #93867B",
"c  c #A98771",
"v  c #B8A762",
"b  c #FF8958",
"n  c #FF9656",
"m  c #FF935B",
"M  c #FF9855",
"N  c #FF8668",
"B  c #FF8375",
"V  c #FF9062",
"C  c #CAAF5A",
"Z  c #D8C470",
"A  c #F8DD78",
"S  c #E8D07B",
"D  c #FFE67D",
"F  c #FFEA7E",
"G  c #F8E179",
"H  c #FFF07F",
"J  c #184D9A",
"K  c #1E529E",
"L  c #24549B",
"P  c #2A599E",
"I  c #3A5884",
"U  c #2458A4",
"Y  c #3866AB",
"T  c #0F48A0",
"R  c #4D6A96",
"E  c #7B7D80",
"W  c #5B74A2",
"Q  c #4973B0",
"!  c #637BA7",
"~  c #807F80",
"^  c #FE6B8E",
"/  c #FE7A87",
"(  c #FF6C94",
")  c #FE6897",
"_  c #FD7895",
"`  c #E77F98",
"'  c #E57A99",
"]  c #768390",
"[  c #6386BB",
"{  c #7797C6",
"}  c #828282",
"|  c #8B8582",
" . c #8E8985",
".. c #8D8B8A",
"X. c #868788",
"o. c #928B85",
"O. c #948D8B",
"+. c #9A928E",
"@. c #96918D",
"#. c #928F90",
"$. c #9A9593",
"%. c #9E9A9B",
"&. c #999595",
"*. c #869297",
"=. c #A29D9C",
"-. c #A19995",
";. c #A59684",
":. c #9AAD8A",
">. c #ADB58B",
",. c #A5BB8B",
"<. c #A7B78B",
"1. c #A7A19D",
"2. c #B6B28E",
"3. c #8997AD",
"4. c #A29FA1",
"5. c #A5A2A3",
"6. c #AAA5A4",
"7. c #ADAAAA",
"8. c #A9A7A8",
"9. c #B1AEAE",
"0. c #B3ADA6",
"q. c #B4B1AF",
"w. c #B1AEB1",
"e. c #B5B2B3",
"r. c #BAB5B6",
"t. c #B7B5BA",
"y. c #B9B6B9",
"u. c #BDBABC",
"i. c #BBB8B6",
"p. c #ADAFB7",
"a. c #D98A91",
"s. c #CB988B",
"d. c #FE848B",
"f. c #F4848F",
"g. c #FD948D",
"h. c #FF9B8A",
"j. c #E98693",
"k. c #FE8391",
"l. c #FE8C90",
"z. c #FC849C",
"x. c #EC8B90",
"c. c #D1AE8F",
"v. c #FEA78B",
"b. c #FCB88C",
"n. c #FEB695",
"m. c #E7B395",
"M. c #F993AA",
"N. c #C1BEBE",
"B. c #F8AABB",
"V. c #FDB7A9",
"C. c #D89EA7",
"Z. c #D5C898",
"A. c #DDCD8B",
"S. c #FFC686",
"D. c #FFD883",
"F. c #FBD798",
"G. c #EECE8B",
"H. c #FFE682",
"J. c #FFEB81",
"K. c #FDE38A",
"L. c #FAE787",
"P. c #FFF382",
"I. c #FFF788",
"U. c #F7E696",
"Y. c #FFF694",
"T. c #CAC7B7",
"R. c #CEC7B0",
"E. c #FDCBA6",
"W. c #FDCCA9",
"Q. c #F5C6A4",
"!. c #FED3A4",
"~. c #FFD2AC",
"^. c #FDDDA1",
"/. c #E9DFB5",
"(. c #FFD5B1",
"). c #FFDBB4",
"_. c #F1C9AE",
"`. c #EBE3BD",
"'. c #F3E8B5",
"]. c #FBEEAB",
"[. c #8EA9D2",
"{. c #BEBDC2",
"}. c #B5BCC9",
"|. c #A9B7CD",
" X c #9FBAE0",
".X c #C1BFC1",
"XX c #F4B2C7",
"oX c #BEC1C7",
"OX c #BDC2D2",
"+X c #B2C7E5",
"@X c #C4C2C4",
"#X c #C8C6C6",
"$X c #C6C5C9",
"%X c #C9C7C9",
"&X c #CBCACC",
"*X c #CBC8C6",
"=X c #D9D5C8",
"-X c #CDCDD1",
";X c #CBCCD8",
":X c #D0CFD1",
">X c #D3D3D5",
",X c #D5D5D9",
"<X c #D7D8DC",
"1X c #DBDBDD",
"2X c #D9D7D8",
"3X c #CFCED1",
"4X c #ECD6D8",
"5X c #ECE4C7",
"6X c #E7E4D8",
"7X c #F3EAD6",
"8X c #F9EFC7",
"9X c #C8D6ED",
"0X c #DDDEE1",
"qX c #D9DAE5",
"wX c #CEDCF3",
"eX c #E2DDE2",
"rX c #DFE0E3",
"tX c #DBE6F8",
"yX c #E3E3E5",
"uX c #E5E6E9",
"iX c #E7E8EA",
"pX c #EBEBEC",
"aX c #EAE8E6",
"sX c #F0EDEA",
"dX c #EBF0ED",
"fX c #F0F0EF",
"gX c #EDEEF1",
"hX c #E3EDFD",
"jX c #E7EBF2",
"kX c #EFF1F3",
"lX c #ECF6FC",
"zX c #F1F2F3",
"xX c #F4F5F9",
"cX c #F2FBFC",
"vX c #F7FAFB",
"bX c #F0EDF0",
/* pixels */
"yXpXpX0X .s .X6.O.,XpXiXzXpXpX0XkXgXxXzXzXpXzXfXpXpXiX1XeX0Xr.u.pXfXN.#XiXuX;XoX-X-XyXiXdXaX1XoX$XrX",
"uXgXgX1Xd  .N.@X@XpXpXpXzXgXuX<XpX1XpXxXzXgXgXzXfXpX>X:X1XiXT.=.:X0X*XN.pXuX<X&X@X,X<XgXuXyXrX&XrXrX",
"uXzXgXzX-.$.<XuX2XpXpXzXzXgXzXiXyXu.6XxXpXuXpXzXgXyXe.u.uX-X%.=.e.eX&X&XfXuX1X@X&X0Xw.,XrXtX,X&XrXrX",
"iXzXkXxXeX>XpX:X*XpXuXpXgXkXgXkXgXuXgXfXpXrX6XxXfXfX<X1XiXw.$X>Xr.yX1X7.q.*X$X0X3X%.5.u.,XrX$X;XrXrX",
"gXgXzXzXzXiXaXpXxXiXiXuXiXiXxXXX4XgXfXpXzXzXpXpXuX@X>XpXzX:XeXzX:X&X:X7.r.w.1XzX@Xz @.y.0X<X@X,XrXrX",
"iXiXzXzXgXzXpXpXzXzXzXzXzXpXcXB.M.cXzXiXzXvXcXxXgXpXkXlXxXcXcXlXxXbXjX4Xz.2XeXzXyX0X%X,XgXiX<XrXrXjX",
"1XpXpXzXfXzXzXpXaXiX1XaXpXiXXX4Xz.B.4XB.M.M.XX7X7X7X5X'.'._.B.B._.5XT.` ' 6.*X2X1.i.d e &X1X{.;Xp.<X",
"1XgXgXpXpXpXzXpXuX1Xi.pXxXsXV._ M.^ ^ h m b h / A F F H B x.s.s.j./ k.z.C.' zX>X&XdX>Xw q.zXuX0XoX<X",
"uXpXuX0XyX1X1X0Xe.-.o.1X].v.h.S._ ) b n n m M N d.H.P.v.a.,.,.,.,.s.( _ l.V.4XpX>XuX6X%.7.xXyXuX>X-X",
"gXiX#X-X,X9.#X*XT.o.o.G.F D.g.z._ h n n m m m n h b.D.j.<.<.>.>.>.,.j._ b.l.M.lX+.s z w +.0X$XyX<XrX",
"pXuX@X&X>X0.yX=.0.e.A.H D._ v.g.) B n n b h m m B ( ( a.,.>.:.:.>.,.s.( _ b.b.eX%.0 e w o.,Xr.qXrXrX",
"eX1X&X,X2X&XfX>XO.Z.F D J.S.g.k._ / n n b b m n B ) ) a.,.>.:.:.>.,.s.) l.l.d.F.o.x 1.=.@XyXuXuXrXdX",
"rXkXfXzXyXyXfXxX=XS J.J.D.l.g.l.) _ b n m m n b d.n.b.f.>.<.>.>.>.<.j.) l.v.S.F A.w.0X,X0XgXjXuXrXrX",
"uXuXiXyXy.i.uXeX`.F H.H.F S.v.v.v._ ( N m m N / S.!.F.n.j.>.<.<.>.a.) _ k.k.l.D.F 2.-X0X1XpXyX,X$XrX",
"yX0XyXyX>X9.1.-XZ.F J.H.H.F P.F F H.b.g.l.d.g.S.~.W.W.~.V.z.j.a.f.z.b.D.D.D.J.J.J.Z.;X0X>XuX0X-XrXjX",
">XyXpX,XN.-.e r.c.P.H.H.J.H.H.H.H.J.H I.L.D.].W.W.W.E.E.(._.x.W.W.~.!.F.J.H.H.H.F F.&Xu.,X0XyX-X1XrX",
"N.eX#XN.%X*X$.t.Z.F H.H.H.H.H.H.J.S S j & & c ~.E.!.Q.(.c $   : m.m.(.W.!.H.H.H.D '.{.T.uXiX0X<X@XoX",
"@X2X=.o.9.1XN.&X=XD H.H.H.H.H.H.H.m.=         s.(.Q.!.c.        % c.~.W.W.K.J.H.D 5XjXgX1XyXe.w.5.e.",
"uXpXyX2X>XiXsXgX1XL.H.H.D H.H.D F.(.-     X   a ).Q.).c         % W.W.E.W.F.F D K.aXzXgXuXuX1X,X&X&X",
"zXzXpXyXzXvXxXN.q.K.D H.H.H.D H.E.(.:   X     g ).Q.(.s.        ; ~.W.W.W.E.D H.D 7XkXiXgXeX0.6.+.$.",
"iXfXN.0.dXxXaXs x J.J.H.H.H.F K.E.W.c.%     : _.W.W.W.~.0     % c.~.W.W.W.E.J.H.D '.kXgXzXqX=. .t e ",
"uX>Xs $.iXdXiX@.;.I.H.H.H.H.D K.W.W.).m.c c W.W.W.W.W.W.~.m.s.Q.(.E.W.W.W.!.H.H.G '.yX0XpXeX .d s z ",
"*X,Xo.9.iX#XpXqXZ.F H.H.H.H.J.I.W.W.W.W.'.(.W.W.E.E.W.~.!.(.~.!.E.W.W.W.W.F.H.H.F R.:X@XiXgX$.e  .$.",
"%XeX6.i.1XoXuXiX^.D H.H.H.H.P.2.! eXyXqX! ! W OXyXyX;XW W W ;XyX;XW W ! ,XeXL.F S x pX-X1XzX7.d %. .",
"rX1Xw.7.:X>XeX1XU.F G H.H.H.P.] J +XtXtX[ K K [ hXtXwXY K J [.hXwXY L J [.hX/.H k u.xX1XeXpX=.$.i.O.",
"zXgX.Xi.1X-X1X$XF.D J.H.H.H.L.] J { tXtX[.L P Q wXwXjX{ L P ! tXhX{ L P [ hX'.A a zXuXpXxXyXu.$.z d ",
"pXyX>XuX>X6.N.0X5XD H.H.H.J.L.Y U Q lXlX9XP L K +XhXhX+XK U Y +XhX XJ L U wX8Xk ;.zX2XuXuXuX-.s z  .",
"0XpXu.&Xu.$.=..X6XH.H.H.G J.Z 3 3 3 ] 3.p.W R R 3.}.}.}.W I 1 [.tXwX3.[ [ *.I.i A.pX<X<Xu.1XO.+.7.1.",
",X1X.Xy.i.0.6.O.6XH.D H.F I.k . @ # $ X 7  .z z r t t t  .8   r lXwX+X[.Q 8 C i F `.qX>X@X0X&.$XiX&X",
"uXeX-Xr.@Xz 6.%.`.D H.H.G I.0 o * @ * + 9 X.r ] ] z ] d X.5 X y [.Q L L K 6 i C P./.qX@X-XgXr.,XgXrX",
"pXgX<Xu.6.O.q.+.R.G H.H.J.P., o @ @ @ + 6 X.~ ~ z z ] d X.5 . < U L P L K < > G J.=X@X.X-XkXiXuXiX,X",
"yXpXyX1X6.o.>X*Xe./.G H.L.P.: o @ @ @ + 6 X.r ~ r r d r X.5 $ 1 L L Y [  X2 p P.].jX,X&X<XgXrXyXgX0X",
"pXgXuXiXpXuXpXuXuXsXJ.J.v L., O @ @ @ + u X.~ ~ ~ ~ ~ r X.5 X 4 {  X9XtXjX6 Z I.sXgXgXyXjXgXgXgXkX1X",
"yXpXiXaX:X0.q.eXuXgX`.I.p l j O * @ @ + 9 X.r ~ ~ } ] r X.8 X y vXlXhXjXtX6 G `.uX1XyX,X0XiXu.9.9.@X",
"yXgXpXpX@Xe O.6.*XuXaXY.j = j O + + @ + 6 X.r ~ ~ } z r X.5 + * X.}.|.}.y = J.=XuX-X{.&X@XgX6.w t e.",
"2XfXuX,X:X .x z i.yXuX].j O + + + + + + 6 X.z ~ } r z r X.5 + + X . $ X   : F =XuXe.&X:Xw.uXqXqX$. .",
"0XpXyX%X@X@X=.e %.T.,X7Xj O # @ @ @ + + 6 X.~ ~ r } } r X.5 + @ + * @ @ o : P.R.;X=.9.,XiXiXzXgX0X@X",
"uXuX2XN.6.yXyX0.%.e.3XvXE X + @ @ + + # 6 X.r ~ } r } r X.5 + @ + @ @ @ o = Z.{.&X&.O.-X@XuXzXpXiXiX",
"iXyX>X*X6.@XyXxX@X1.N.kXX.. @ + $ + @ + 9 X.~ ~ r } r r X.5 $ @ + + + + + = t u.yX7.,X@Xw.yXzXgXiXuX",
"iXyX>X1X&X0XaXfXzXdXaXcXw.. @ @ @ @ @ # 6 X.r ~ } r } r X.8 + @ @ + + * + = 1X$XN.%.,X,XeXiXgXgXpXiX",
"uX<Xi.u.#X1XpXaXyX6XiXpX>X= + * @ @ @ + q X.r ~ ] r ] r ..5 + @ @ @ @ @ $ %.vX%Xr.d &.6.&XgXuXyXuX0X",
"-XgXgXe.@X0X1XuX1XuXpXpXyX=.+ + @ @ @ + q X.d ] z z d r ..5 + * @ @ # . 8 1XeX%X1X=.4.d 5.kX$X5.3XuX",
":XyX1Xu.@XaXaXiXpXyXyXyX0Xe.5.= o . . . 7 } r r t t r r } 5 X o . . * q 5.7.,X&XyX0XeXO.=.1Xt.X.&.uX",
"u.pX0X-X=.7.pXpXpXyXaXpXrX%X3X;X8.X.t 9 ..%.&.8.8.%.X.#.4.t 9 q r #.,X1X>X-X1X@XiXaXpX7.@.0X@Xt ..e.",
"%X1X0X,X&X2XiXiX>X&XpXyXpXyX5.w.yXfX2Xe.5.7.N.zXrXe.@X,X1X&X&X:XpXxXgXt.&XyXuX1XyX$X7.&.e &X-X4.&.} ",
"3X-Xu.y.yX-X1XrX#X6.0XyXpXyX=.6.5.:X&Xr.q.@X%XiX2X&X&X>X2X>Xr.0.%X,X1X@X1X6XiXiXyX=.e o.O.%Xu.4.4.%.",
"1X@X@X,X>X1XyXiXpXpXiXiXpXpXyX0X6XiXaXyXiXiXpXpXdXiXrXaXpXuXuX1XyX0XuXyX1X1XaXiXuXuX%X%X0XyXuX&X,XqX",
"u.5.&.%.6.yXyXy.7.9.%X1XpXaX,X>XN.=.=.&XpX0XiXrX&X3X2XyXuXyX1X-X1XaXaX1XyXaXpXeX:XyX.X&.*XjX&X-X4.w ",
">X5.e } t.iXyX&.%.5.t.yX1X>XiX2X+.w 0 r.kX1XyX1XoX>XyXrXuX0X0XyXrX0X@X@X<X>X-X{.%.qX7.#.~ >X-X{.} q ",
",X$.e &.t.uXpX=.O.7.t.-X@X@.1X1X+.+. .u.pXyXaXyX@X&XuX6XyXgX0X0XpX,X7.&.w.e.8.4. .{.$X1XO.N.-X.X&.o."
};
