/* XPM */
static char *luna_up[] = {
/* columns rows colors chars-per-pixel */
"50 50 183 2 ",
"   c #161616",
".  c #171718",
"X  c #171818",
"o  c #1A1A1A",
"O  c #201F1D",
"+  c #21201C",
"@  c #262521",
"#  c #312E24",
"$  c #3B3729",
"%  c #333333",
"&  c #433F2D",
"*  c #48432D",
"=  c #484434",
"-  c #5E5638",
";  c #675E3D",
":  c #70663F",
">  c #454545",
",  c #484848",
"<  c #514C49",
"1  c #5E5E5E",
"2  c #615C48",
"3  c #7F7448",
"4  c #67625B",
"5  c #5F5F60",
"6  c #626161",
"7  c #6A6864",
"8  c #716B67",
"9  c #7D7267",
"0  c #7D746B",
"q  c #777573",
"w  c #7E7E7E",
"e  c #81766D",
"r  c #817A75",
"t  c #887D77",
"y  c #847E7A",
"u  c #887F78",
"i  c #8C804D",
"p  c #91844F",
"a  c #968952",
"s  c #9B8D54",
"d  c #95895A",
"f  c #9E9055",
"g  c #9F9260",
"h  c #87807C",
"j  c #8A837C",
"k  c #A79960",
"l  c #B6A663",
"z  c #B7A779",
"x  c #C1AF65",
"c  c #CBB86A",
"v  c #C8B57C",
"b  c #DECA73",
"n  c #E8D377",
"m  c #EFD87A",
"M  c #F0D77F",
"N  c #FDE47F",
"B  c #7F7F80",
"V  c #7F8080",
"C  c #818180",
"Z  c #8C8682",
"A  c #8D8982",
"S  c #888788",
"D  c #8D8A8A",
"F  c #918984",
"G  c #938D8B",
"H  c #979280",
"J  c #9C9780",
"K  c #9A928D",
"L  c #959393",
"P  c #9B9593",
"I  c #9E9896",
"U  c #9A9698",
"Y  c #9D9999",
"T  c #A59E80",
"R  c #A19A96",
"E  c #A29D9C",
"W  c #ADA481",
"Q  c #B0A488",
"!  c #BDB181",
"~  c #A5A09E",
"^  c #A8A29F",
"/  c #A29FA0",
"(  c #A5A2A3",
")  c #AAA5A4",
"_  c #ACA8A7",
"`  c #ABA7A8",
"'  c #AEAAAB",
"]  c #B2ADAD",
"[  c #B4B0AF",
"{  c #BBB5A9",
"}  c #B1AEB0",
"|  c #B5B2B3",
" . c #B9B5B5",
".. c #BCB9B7",
"X. c #B7B5B8",
"o. c #B9B6B9",
"O. c #BCBABC",
"+. c #DA9D8C",
"@. c #FC9B9E",
"#. c #C7B981",
"$. c #C5BA9B",
"%. c #F596AE",
"&. c #D5A4A9",
"*. c #C0BDBD",
"=. c #EDA1B4",
"-. c #F6A8BB",
";. c #D9C886",
":. c #D6C895",
">. c #E0CE81",
",. c #FECE8B",
"<. c #E7D381",
"1. c #EAD581",
"2. c #F4DD83",
"3. c #F9D988",
"4. c #F7C498",
"5. c #EBD996",
"6. c #F7E082",
"7. c #FFE681",
"8. c #FFE982",
"9. c #FDE68A",
"0. c #FCE793",
"q. c #CAC2AB",
"w. c #DBCFA0",
"e. c #D9CFAA",
"r. c #C8C0B1",
"t. c #E6DAA8",
"y. c #F7C6BA",
"u. c #E4DBB8",
"i. c #F5DBBF",
"p. c #F7E7A4",
"a. c #F4E6AE",
"s. c #EEE3B8",
"d. c #F2E6B3",
"f. c #F7E9B3",
"g. c #F8EBB7",
"h. c #F4E9BD",
"j. c #BEBDC1",
"k. c #C1BFC1",
"l. c #D5B9C0",
"z. c #BFC0C4",
"x. c #C4C2C4",
"c. c #C8C6C6",
"v. c #C6C6CA",
"b. c #C8C7C9",
"n. c #CCCACC",
"m. c #D3C1C5",
"M. c #D0CECD",
"N. c #DBD6C6",
"B. c #CDCED1",
"V. c #D0CFD2",
"C. c #CFD0D3",
"Z. c #D3D3D5",
"A. c #D8D7D6",
"S. c #DCD9D5",
"D. c #D6D6D9",
"F. c #D8D7D9",
"G. c #D7D8DC",
"H. c #DBDBDD",
"J. c #E1C1C9",
"K. c #E4DDC2",
"L. c #E1DDCF",
"P. c #EAE3C7",
"I. c #F3EAC7",
"U. c #F5ECC5",
"Y. c #EAE6D4",
"T. c #E2E0D8",
"R. c #EEEADB",
"E. c #F0ECDB",
"W. c #DEDEE1",
"Q. c #E4DFE2",
"!. c #F1DEE5",
"~. c #DFE0E3",
"^. c #E3E3E5",
"/. c #ECE6E7",
"(. c #EBE9E5",
"). c #E6E6E9",
"_. c #E7E8EB",
"`. c #EAEBEC",
"'. c #F1ECE8",
"]. c #F1F0ED",
"[. c #EEEFF1",
"{. c #EFF0F2",
"}. c #F1F1F3",
/* pixels */
"^.`.`.D.G Z o._ R Z._._.{.[._.~.[.[.{.}.}.`.}.].`.`.^.H.^.H.O.O.^._.c.c./.^.C.v.B.B.~._.[.).G.z.C.).",
").[.[.G.Z F o.x.x.).[.`.[.[.).W.).W.[.}.}.].{.}.}._.Z.B.H.^.*.) n.H.n.c._.^.G.n.v.C.W._._.~.~.z.~.).",
"_.{.{.`.^ E Z.^.D._.`.{.{.{.[._.^.c.^.}.`._._.}.`.^.O.x.^.n.) ) O.H.M.n.^.^.F.b.n.D.X.C.W.~.D.C.G.).",
"_.{.}.}.H.Z.).Z.Z.`._.`.[.[.[.[._.^.[.[.`.^.^.}.}.`.S.H.^.O.c.n.*.H.A.| ..n.n.H.n.( ( z.D.W.B.C.G.).",
"[.[.}.}.}._._.`.{.`._.)././.{.`.[.`.}.`.}.}.}.{.^.M.D._.].D.H.`.Z.m.l.] O.O.D.`.c.G K o.H.G.v.C.G.~.",
"_.`.}.}.}.[.].`.{.{.{.{.'.-./.}.}.}.}.`.].}.}.}.{._.`.{.}.}.}.}.].-.=.H.A.Z.W.`.~.Z.x.Z.).).G.~.~.).",
"W.`.[.[.[.}.[.`._./.H.)./.%.-.E.I.U.U.f.f.g.h.U.I.I.I.d.f.a.f.U.i.@.&.&.] ] B.A.' ..A j b.G.b.C.z.C.",
"W.`.`.`.`.`.].`.Q.A.*.!.-.y.,.8.9.8.N N N N 8.8.N N 7.8.N N N 7.N M 3.4.*.M.`.D.M.^.n.y | _.~.W.z.G.",
")._.^.W.Q.H.H.S. .E K J.y.M N N N 7.7.7.7.7.7.7.7.N 7.7.7.7.7.7.7.7.7.7.2.s.]._.A.W.Z.E ' ).).~.G.C.",
"[.^.n.Z.Z. .n.x.*.K j +.3.8.N 7.8.7.7.7.7.7.7.7.7.8.7.7.7.7.7.7.7.7.7.7.N 9.a.(.R j j 0 P W.B.W.G.~.",
").^.v.B.Z. .S.] _ _ Q 2.7.7.7.7.7.7.7.7.7.7.7.7.7.7.7.7.7.7.7.7.7.7.7.7.7.N 7.a.R 9 e 9 G B.j.W.~.~.",
"W.W.V.Z.A.M._.M.^ *.5.N 7.7.7.7.7.7.7.7.7.7.7.7.7.7.7.7.7.7.7.7.7.7.7.7.7.7.7.7.z j E ( k.^.^.^._._.",
"^.[.[.`.W.^.].`.r.:.8.7.7.7.7.7.7.7.7.7.7.7.7.7.7.7.7.7.7.7.7.7.7.7.7.7.7.7.7.7.1.{ D.Z.W.`._.^.~.~.",
"^.)._.^.x.O.H.Q.N.9.8.N 7.7.7.7.7.7.7.7.7.7.7.7.7.7.7.7.7.7.7.7.7.7.7.7.7.7.7.7.7.$.B.W.W.`.^.D.z.~.",
"W.Q.).W.n.[ _ n.:.N 8.8.7.7.7.7.7.7.7.7.7.7.7.7.7.N 7.7.7.7.7.7.7.7.7.7.7.7.7.7.7.w.V.G.D.).~.B._._.",
"Z.^.).Z.*.E t  .:.8.8.N 7.7.7.7.7.7.7.7.7.7.7.7.7.8.7.7.7.7.7.7.7.7.7.7.7.7.7.7.7.t.B.k.D.W.~.B.G.~.",
"x.H.c.*.x.x.E o.:.7.7.7.7.7.7.7.7.7.7.7.7.7.7.7.7.7.7.7.7.7.7.7.7.7.7.7.7.7.7.7.7.u.v.b.^.).H.D.x.z.",
"c.D._ I [ D.x.n.u.7.7.7.7.7.7.7.7.7.7.7.7.7.7.7.7.7.7.7.7.7.7.7.7.7.7.7.7.7.8.N 7.P.).`.H.Q.O.| ' X.",
"^._.H.D.Z.(.`._.L.9.7.7.7.7.7.7.7.7.7.7.8.7.7.7.7.7.7.7.7.7.7.7.7.7.7.7.7.7.7.8.9.R.{.[.).).D.V.b.v.",
"[.].^.^.}.}.}.r.$.9.7.7.7.7.7.7.7.7.7.7.N 7.7.7.7.7.7.7.7.7.7.7.7.7.7.7.7.7.7.N 9.'.[.[.`.W.| ) K P ",
"_.`.*. ._.}.^.F z 7.7.7.7.7.7.7.7.7.7.7.7.7.7.7.7.8.7.7.7.7.7.7.7.7.7.7.7.7.7.7.0.(.[.[.{.G.( G q r ",
"^.M.F E ^.`.^.R v 7.7.7.7.7.7.7.7.7.7.7.7.7.7.7.7.N 7.7.7.7.7.7.7.7.7.7.7.7.7.7.9.P.~.~.`.H.F u r h ",
"n.V.K [ W.M.).S.5.7.7.7.7.8.7.7.7.7.7.7.7.7.7.7.7.7.7.7.7.7.7.7.7.7.7.7.7.7.7.7.N u.Z.b.).).P r A K ",
"n.A.] ..H.c.^.Y.7.7.7.7.7.7.7.7.7.7.7.7.7.7.7.7.7.7.7.7.7.7.7.7.7.7.7.7.7.7.7.7.N p.~.Z.W.).' Z U F ",
"W.A.| | V.Z.W.A.5.7.7.7.7.7.7.7.7.7.7.7.7.7.7.7.7.7.7.7.7.7.7.7.7.7.7.7.7.7.7.7.N p._.W.Q.).` P [ G ",
"[./.k.O.Z.V.H.n.e.7.7.7.7.7.7.7.7.7.7.7.7.7.7.7.7.7.7.7.7.7.7.7.7.7.7.7.7.7.7.7.N p.).`.[.^. .P A h ",
"`.).V.W.V.] *.A.S.9.N 7.7.7.7.7.7.7.7.7.N 8.7.7.7.7.7.7.7.7.7.7.7.7.7.7.7.7.7.7.8.d.W.^.^.W.E u A F ",
"W.).x.n.O.R ^ *.T.0.N 7.7.7.7.7.7.7.7.7.7.7.7.7.7.7.7.7.7.7.7.7.7.7.7.7.7.7.7.N 9.Y.W.G.k.D.P P ` E ",
"G.G.k.O.o.) ^ R K.9.N 7.7.7.7.7.7.7.7.7.7.7.7.7.7.N 7.7.7.7.7.7.7.7.7.7.7.7.7.7.9.Y.W.B.x.G./ x.~.n.",
").Q.V.O.O.G _ R t.N 8.7.7.7.7.7.7.7.7.7.7.7.7.7.7.7.7.7.7.7.7.7.7.7.7.7.7.7.7.7.9.s.G.v.B.).j.D._.W.",
"`.`.G.O._ G [ R q.9.N 7.7.7.7.7.7.7.7.7.7.7.8.N 7.7.7.7.7.7.7.7.7.7.7.7.7.7.7.N 9.L.v.k.B.[.^.)._.G.",
"Q.`.Q.A.] R M.c.*.5.8.7.7.7.7.7.7.7.7.7.7.7.7.8.6.7.8.7.7.N 8.7.7.7.7.7.7.7.N N f._.W.B.W._.).).[.~.",
"`.`.).).(.H.^./.^.E.0.7.7.7.7.7.N 7.7.7.7.7.8.7.v 6.6.7.8.6.8.N 8.N 8.8.7.7.N 9.R.{.[.~._.`._.`._.H.",
"~.[.`.).Z.]  .A.^.`.U.9.7.7.7.7.8.8.7.8.7.7.N ;.J <.z 6.6.b b 8.N 8.8.N 7.N 8.s.).W.W.D.W.).j.| ] c.",
"^.[.`.).x.t G _ n.^.E.9.7.7.7.7.8.N 8.N N 7.7.W A ;.H <.8.g a N l b N N 8.N 9.T.~.B.x.n.v.).' C h ' ",
"H.`.).D.n.K j F  .H.Y.8.N 7.7.8.c c 6.f b 8.<.j j T V #.8.d & n ; a b l m x p.Z.~...v.B.O.^.W.B.Y L ",
"W._.W.n.x.O.^ t E O.N.9.8.7.8.n - c l @ f 8.<.C S h B j 6.k O l : $ 3 p x p P.v.B.) } V.Q._.[.[.H.x.",
"/.^.H.*.] H.H.[ ~ | M.d.6.8.m s - b * . 2 6.>.C C C C B W l O f : X o i : 1 [ z.b.Y Y v.v.^.[.[._.^.",
"_.^.Z.c.] n.^.`.x._ c.H.! N f + s - . . , ! <.A C B C B V 7 @ f *     : # < H ..D.] B.v.j.W.[.[._.).",
"_.^.Z.Z.b.H./.`.`.(.(.`.j c i X # o o . , A W C C C B C V 6 O $ O X X O o 4 n.v.k.E B.B.G.).[.[.[._.",
"^.G.k.k.n.T.`.(.(.^.`.`.( = * o . o o o , V V V V C C V C 6 o . o o o . % ] _.n.O.F P ' n.`.).W.W.W.",
"Z.`.^.o.x.H.H.^.H.(.`.`.Z.7   o o o o . , C V V V V V V C 6 o o o o . O y Z.W.n.V.) / D ` ).v.' B.~.",
"B.^.H.k.v.W.^.`.`.^.^.^.~._ q % o   X   > V V V V V V V C 5 o     O = w ( | Z.n.Q.W.Z.P ) Z.o.L Y H.",
"x.^.W.n.` | _.`._.^.(._.W.n.z.} L B q 6 w L U ` ( Y D L Y S 6 7 B ( D.D.B.n.H.n.).^.Q.` U V.k.C L } ",
"n.H.H.Z.n.D.^.^.D.M.`.^.`.H.} | Z.T.n.] ( ' k.^.G.X.z.n.D.x.*.c.W.).^.j.n.H._.H.Q.v._ P u c.b./ U G ",
"B.n.k.j.H.Z.H.~.c.[ W.^.`.W._ _ ] Z.Z.*. .x.n.(.H.B.n.D.H.D.*. .B.G.W.n.F.^._._.Q._ j G P v.j.) ( / ",
"D.x.k.B.Z.H.~.^.^.^.^.).].`.~.H.H.^.W.W.^.)._.`._.^.^.^.`.^.H.H.~.W.^.Q.T.T.^._.^.W.x.k.Z.^.W.B.V.B.",
"O.` U / [ ~.H...| | b.H._.).F.C...^ ~ n.(.^.).W.C.Z.S.^.^.^.H.Z.H.^.^.H.^.^.).H.Z.W.j.E v.^.B.b./ q ",
"n.E r Z | ^.H.E E ( O.H.H.B.^.Z.I e 9 .._.^.^.H.x.Z.^.^.^.^.~.^.^.H.v.x.Z.D.B.O./ C.X.U L B.B.j.S 8 ",
"B.I w L o.).^.( P ` o.B.x.( A.D.P G F *._.^./.W.c.n.^.W.^._.~.^._.D.} Y | | ' / L j.k.B.U *.b.j.L S "
};
