/* XPM */
static char *lunawin[] = {
/* columns rows colors chars-per-pixel */
"50 50 247 2 ",
"   c #030202",
".  c #0D0D0D",
"X  c #050609",
"o  c #13110E",
"O  c #0A0C13",
"+  c #141414",
"@  c #1B1B1B",
"#  c #181716",
"$  c #100F11",
"%  c #231C19",
"&  c #28241D",
"*  c #1E2837",
"=  c #252423",
"-  c #3E3129",
";  c #353225",
":  c #333434",
">  c #3C3C3C",
",  c #2E2B2C",
"<  c #493C34",
"1  c #42352C",
"2  c #554738",
"3  c #5C5536",
"4  c #4C4734",
"5  c #655E3A",
"6  c #69613E",
"7  c #253752",
"8  c #162A4B",
"9  c #3F4753",
"0  c #2C4773",
"q  c #464647",
"w  c #545455",
"e  c #6D584A",
"r  c #7C6453",
"t  c #70684C",
"y  c #6D6D6D",
"u  c #666566",
"i  c #766D68",
"p  c #7B736D",
"a  c #7E7E7D",
"s  c #797573",
"d  c #686B71",
"f  c #516078",
"g  c #897D4A",
"h  c #856E58",
"j  c #837C76",
"k  c #8C7768",
"l  c #FF7A79",
"z  c #FF7F50",
"x  c #A7995B",
"c  c #B9A95D",
"v  c #87827D",
"b  c #898572",
"n  c #BB967C",
"m  c #A98E72",
"M  c #B6A869",
"N  c #998D54",
"B  c #FF8656",
"V  c #FF9656",
"C  c #FF935A",
"Z  c #FF9856",
"A  c #FF8B64",
"S  c #FF856D",
"D  c #FF8070",
"F  c #C9BA69",
"G  c #CDBF73",
"H  c #C1987F",
"J  c #ECD677",
"K  c #FEE67E",
"L  c #FFE97E",
"P  c #F5E17E",
"I  c #FFF37F",
"U  c #D5C872",
"Y  c #194C99",
"T  c #1E509A",
"R  c #22539C",
"E  c #2A599F",
"W  c #28579D",
"Q  c #335C9D",
"!  c #254B85",
"~  c #2859A3",
"^  c #305EA2",
"/  c #3C65A4",
"(  c #3663A8",
")  c #1F56AC",
"_  c #516C93",
"`  c #7D7E81",
"'  c #797F89",
"]  c #617793",
"[  c #4F75AF",
"{  c #DC7F97",
"}  c #FF6B8E",
"|  c #FE6888",
" . c #FE758A",
".. c #FE7A88",
"X. c #FE6C95",
"o. c #FD6996",
"O. c #E87B92",
"+. c #FE7394",
"@. c #FE7B93",
"#. c #F87795",
"$. c #6688BC",
"%. c #738299",
"&. c #7494C4",
"*. c #688CC2",
"=. c #818181",
"-. c #8A8482",
";. c #8E8A87",
":. c #918A86",
">. c #938D8B",
",. c #988E83",
"<. c #97908D",
"1. c #939293",
"2. c #9A9594",
"3. c #9D9999",
"4. c #8E9495",
"5. c #A29D9C",
"6. c #A09789",
"7. c #96AA8A",
"8. c #BBA78D",
"9. c #ACB58B",
"0. c #A6BB8B",
"q. c #A7B68B",
"w. c #A8A299",
"e. c #AEAC91",
"r. c #8E96A2",
"t. c #A29FA1",
"y. c #A5A2A2",
"u. c #AAA5A5",
"i. c #ACA9AB",
"p. c #A7A7AC",
"a. c #B1ADAD",
"s. c #BEACA2",
"d. c #B1AEB2",
"f. c #B4B3B4",
"g. c #BCBABC",
"h. c #B8B6B8",
"j. c #B5B1AF",
"k. c #9FA6B0",
"l. c #CD998C",
"z. c #FE8B8F",
"x. c #FE928E",
"c. c #FE9A8D",
"v. c #E48494",
"b. c #FE8491",
"n. c #F98591",
"m. c #FD9498",
"M. c #E3838B",
"N. c #C9A288",
"B. c #D4AA8D",
"V. c #D5AC97",
"C. c #D8B297",
"Z. c #C5B597",
"A. c #FEA88B",
"S. c #FEB98A",
"D. c #E6BA9A",
"F. c #FAA898",
"G. c #F989A5",
"H. c #EF96AF",
"J. c #C7B7AE",
"K. c #FFA8A0",
"L. c #FEB8A5",
"P. c #F2ABB9",
"I. c #DD98AF",
"U. c #BCC2BF",
"Y. c #D5C788",
"T. c #FEC687",
"R. c #FFD384",
"E. c #FBDA87",
"W. c #F4C69A",
"Q. c #FDDA94",
"!. c #FED79B",
"~. c #ECD395",
"^. c #FFE681",
"/. c #FFEB82",
"(. c #FEE48B",
"). c #FFF586",
"_. c #FAE797",
"`. c #FFFB97",
"'. c #D1C9B4",
"]. c #EFC3A5",
"[. c #FCCBA6",
"{. c #FDCCAA",
"}. c #F4C6A8",
"|. c #FED2AD",
" X c #FFD4A5",
".X c #FFD5B1",
"XX c #FFDBB4",
"oX c #FFDFB8",
"OX c #ECD4B3",
"+X c #F6E7A7",
"@X c #FDE3BA",
"#X c #819CC6",
"$X c #94AED4",
"%X c #BDBDC2",
"&X c #B8BCC9",
"*X c #A3B9D9",
"=X c #ABB4C2",
"-X c #A1BBE1",
";X c #C1BFC2",
":X c #F2B4C5",
">X c #BEC1C4",
",X c #B9C6DE",
"<X c #B9CBE7",
"1X c #C4C2C4",
"2X c #C9C7CA",
"3X c #CBCACD",
"4X c #C7C6C9",
"5X c #CDCDD2",
"6X c #C7C8D3",
"7X c #D0CFD2",
"8X c #CCD1D4",
"9X c #CFD4D8",
"0X c #D4D3D5",
"qX c #D5D5D9",
"wX c #DAD6D9",
"eX c #DBDBDD",
"rX c #D7D8DA",
"tX c #D5CDC0",
"yX c #E9DCC7",
"uX c #E4DCD5",
"iX c #F4C8CB",
"pX c #E8E5D8",
"aX c #F5EECE",
"sX c #CDDAEF",
"dX c #C6D3E8",
"fX c #DDDEE1",
"gX c #D3DAE9",
"hX c #CCDAF0",
"jX c #E9DBE3",
"kX c #DDE1E3",
"lX c #DAE3EC",
"zX c #D5E1F4",
"xX c #DAE5F5",
"cX c #DDE8FA",
"vX c #E3E3E5",
"bX c #E5E6E9",
"nX c #E7E8EB",
"mX c #EAEBED",
"MX c #EAE9E4",
"NX c #EDEEF1",
"BX c #E2ECFB",
"VX c #E2E8F4",
"CX c #EDF2F3",
"ZX c #E9F3FC",
"AX c #F1F1F3",
"SX c #F5F8F9",
"DX c #EEF5EB",
/* pixels */
"vXmXmXfX:.j J.i.>.wXmXjXjXNXnXfXNXNXAXAXNXmXNXAXmXmXnXfXfXkXh.g.nXCXU.3XiXH.wX;X7X6XbXmXNXbXeX>X6XkX",
"bXNXNXeXj ;.%X1X;XmXZXP.b.SXvXqXNXfXCXSXSXNXCXAXAXmX8X6XeXVXU.5.8XkX4X>XG.G.gX;X;XqXfXNXbXbXkX2XkXbX",
"bXAXNXAX3.2.qXbXwXmXAXjXo.:XSXaXyXV.P.iXyXaXaXpXMXuXj.'.fXI.v.v.I.:XtXI.+.wXP.;X5XfXi.qXfXnX9X6XeXlX",
"nXAXAXSXfX0XmX0X3XNXH.iXiX} F.c...n.v.M. .A.L /.K /./.S.@.l S S l X.+.X.F.P.| uX5X5.t.%X0XvX6X5XkXkX",
"NXNXAXAXAXmXMXmXSXmX:Xo.m.z.o.#.N.0.0.0.e.v.x./.^.L T.} A Z C Z V A +.+.@...R.K.V.=.4.h.fXrX1X9XkXkX",
"mXmXAXAXNXAXmXmXSXH.P.E.b.X.+.N.0.9.9.9.0.0.O.A.)./.@.A Z C C C C V S X.@.R.c.X.K _.tXqXNXbXeXkXkXmX",
"eXmXmXAXDXAXAXmXNXiX| c.A.X.v.q.9.9.9.9.9.0.8.b.R.S. .V C C C C C C C  .@.X.@.R.R.^.P m 2XeX%X8Xf.qX",
"wXNXNXmXmXNXNXmXjXW.R.n.+.X.l.0.9.q.7.q.9.9.9.#.X.o.l C C C z B C C V ..X.x.T.x.@.^./.J '.VXbXfX>XeX",
"bXmXbXeXkXkXeXeX~.} z.A.b.o.l.0.9.q.7.7.9.9.9.#.o.o...V C C z B C C C ..X.@.+.z.R././.P _.CXkXbX8X8X",
"NXnX2X7X0Xj.3X~.L R.A.b.@.+.v.q.9.q.q.9.9.q.8.+.z.z.@.C V C C C C V A +.+.x.T.S.A.^.^.^.L OX6XbXrXkX",
"mXbX;X3X0Xi.OXL E.x.A.A.b.X.o.N.0.q.9.9.q.0.O.S.(.!.A.} C Z C C Z C  .o.X.+.+.X.A./.^.^.L E.g.fXfXkX",
"fXuX3XwX0X8X+XK /.A.b.@.@.n.+.o.l.9.0.q.8.O.m.!.{.{.!.A. .D B A D } X.A.T.T.R.^.L ^.^.^.^./.pXbXbXNX",
"fXAXNXAXvXpX^.^.^.L /.^.^.L T.m.@.#.v.O.@.K.{.{.{.{.{.!.S.x.b.b.z.S.E././.L /.L ^.^.^.^.^.K pXbXbXvX",
"bXnXnXvXh.J./.K /.^.^.^.K ~.XXXX{.L.L.L.[.|.{.{.{.{.{.{. X(.^./.`.J J L ^.^.^.^.^.^./.^.^.^.pXqX1XfX",
"kXfXvXvX5XJ.P ^.^.^.^.^.[.< < n .XXX X[.{.[.[.{.[.{.{.[.[.{.@XD.e % N._.K ^.^.^.^.^.K ^.^./.pX6XvXmX",
"qXvXmXwXg.5.J /.^.^.L Q.{.{.m - < m {.XX{.{.{.{.[.{.[.{.XXC.e % e D.{.{.(.L ^.^.^.^.^.^.K (.vX8XqXfX",
";XvX2Xg.2X>XY.L ^.^.K  XD.N.V.B.r . % k D.{.{.[.{.[.|.W.r ; h D.@XXX|.{.!.K ^.^.^.K ^.^.P _.fXqX4X%X",
"1XwX5.:.i.gX~.L ^.^.E..XB.- 1 1 e 2     n .X{.{.{.|.N.    < h < 1 1 ; r |.^.^.^.^.^./.^.I  Xd.d.u.j.",
"bXmXvXwX0XNX+XK ^.^.Q.{.|.|.XX@XH 1 < C.{.{.{.{.[.{.].h %   < n B.B.N.C.[.^.K ^.^.^.^.^.K +XfXqX3X3X",
"AXAXmXvXAXSX(.^.^.L Q.{.[..XB.< & m |.|.{.{.{.{..X.XD.B.[.n 2 1 e B.XX{.[.(.^.^.^.^.^.^.P +Xp.u.<.2.",
"MXNXg.i.NXmXK L ^.L Q.{.{.h # k |.XX[.[.{.{.[.{.H 2 X   B.oX.XC.h = < [.{.E.^.^.^.^.K Q.[.|.s.;.p p ",
"vXwXj 2.nXnXQ.Q.Q.^.!.{.[.8.D.oX[.[.[.[.{.[..X2         N.{.[.|.@X{.B.[.{.Q.L ^.^.L Q.{.[.|.C.j j v ",
"3XwXv j.nXtX{.[.{.!.Q.{.{.{.{.D.}.{.{.{.}.}..X6.o     o C.}.}.}.}.{.XX|.}.Q.L /.^.L !.{.[.|.V.y :.2.",
"2XvXu.J.jX'.{.{.{.[.uXVX$XW [ Q #XVXxXdX_ ^ ^ [ gX4.7 ` &.Q / / ,XxXlXsX( 4.L ^.^.K !.{.[.|.C.v 2.;.",
"vXwXa.a.0XyX[.{.{.{.zXBX$.Y ~ R *XcXcX$XT ~ T *.BXBXZXhX~ ~ R / zXzXBX*XY %.P /.^.K ~.{.{.{.V.2.g.:.",
"AXNX;Xf.rX'.{.{.{.{.lXhX^ ~ W / hXzXcX[ R ~ ~ ,XBXsXcX$XR ^ T &.BXhXcX$.Y ( ^././.F q .X.X{.OX1.v b ",
"mXbX0XmX7XJ.{.[.|.OXcX$XR ^ R $.BXxX<XE ~ E / hXzXzXcX[ ~ ~ R *XxXzXdX( T ~ Y.I /.3 X r D.[.N.a :.:.",
"eXmXg.3Xh.Z..X.X].~.cX$.Y R Y $XBXcX$X) ( T *.ZXxXBXdX~ ~ ~ ( zXBXZX,X) ( ) 0.).x O & X g _.:.1.i.5.",
"wXeX;Xh.g.5.e q = c M [ $X*X$XsXzXxXf 8 9 ] r.k.k.p.r.] ] ] ' r.u d 9 7 7 8 b I = @ + 4 /.+X1.1XmX3X",
"bXkX3Xh.;X,.2 . X t N 0 [ #X<XzXBXBX4   > ;.a s a s s v j =.-.u . . + # #   3 t O @ % U /._.h.qXNXfX",
"NXNXwXg.u.6.G % @ = 3 ! ~ T R [ &.<Xq O > =.%.=.%.j b a v j =.s @ % @ @ @ @ @ @ @ O x ).P ^.vXVXnXqX",
"kXmXkXeXi.;._.5 O @ = ! ~ ^ ^ W R ~ * $ > -.b a j v %.v a %.=.d @ @ @ @ @ @ @ @ O 6 ).(.^.^.pXvXmXfX",
"mXNXvXmXMXbXaXF # @ # _ ^ T T ~ ( ^ * o > %.` =.a =.` =.=.a =.y @ @ @ @ @ @ @ + ; /././.P @XZXDXCXeX",
"jXNXmXbX0Xa.f.+X3 $ # &XhX$X$.( T T * o 4 v a ` v ` =.` =.a ;.y # @ @ @ @ @ @ + M P P L _.nXg.i.a.1X",
"vXNXmXmX1Xp ;.s.M + # =XBXBXBXsX-X&.: o > %.b =.a =.a =.=.a ;.y # @ @ # @ @ O N U x ).I '.NXu.y j j.",
"wXNXnX0X3X;.:.-.Y.w   k.ZXsXzXzXBXBX> . > -.` =.=.=.a =.a b %.y @ @ @ @ @ + = I 5 x ).~.h.bXfXeX1.;.",
"eXmXvX2X1X1X5.p e.M   9 dXxXzXzXzX%.+ + > =.` ` a =.=.=.a ` =.y # @ @ # @ O 4 U X c I uXbXnXCXNXfX1X",
"bXbXeXg.y.bXbXi.e.L 4 . % : : : = . @ + > ;.a v a =.a =.a =.=.y @ @ $ $ . . & ; O M /.3X1XnXAXmXnXnX",
"mXvX7X2Xu.1XbXAX'.).t $ + $ $ $ + + @ + > -.a ` =.=.a a =.a =.y @ # + @ @ @ + + O c +X4Xa.vXAXNXmXvX",
"mXvX7XuX3XuXMXCXDX).N O # @ @ @ @ + @ + > -.` ` a =.=.=.=.a ;.y @ + + @ @ @ + @ $ m wXqXvXmXNXNXmXnX",
"nXqXh.%X4XkXmXMXfXaXg O @ # @ @ # + @ + 7 v ` v j b v j b %.;.y @ @ $ @ @ @ + # + u 2.u.8XNXbXbXbXfX",
"5XNXCXf.1XuXeXvXuXSX=.X @ + # # O @ @ + > ;.` ` %.%.j %.j =.=.y @ @ + + + + + % + s u.v w.CX4Xy.8XbX",
"0XkXeXJ.1XbXbXmXnXNX2.. @ @ + # @ @ @ + > -.` v j v b j =.a =.y # @ @ # # @ @ @ + g.nX;.5.fXh.=.2.bX",
"%XmXeX5X5.i.mXmXnXmX7X& @ @ @ @ @ @ @ + > -.` ` %.j %.j =.` -.y @ @ @ @ @ @ @ # : MXmXi.<.eX;Xa ;.h.",
"2XfXeXqX3XwXnXmX0X2XSXy X = # @ @ @ @ + < v a a b j v v a %.b y # @ @ @ @ @ @ X 2.0Xi.2.p 3X5Xt.2.=.",
"7X3Xg.h.vX5XwXkX4Xu.vXeXq X @ @ @ @ @ # > v %.a j %.a a a a =.y @ @ @ @ % @ X u NX5.i :.>.2Xg.5.y.3.",
"eX1X1XwX0XeXvXmXmXmXbXmXvXu # O + # # X : =.a a a a a a a a ` y $ $ + O . # a mXnXbX2X2XfXvXbX5XrXeX",
"g.y.3.3.p.bXuXf.a.a.3XwXmXCXp.u 4 : ; 9 u 2.4.4.-.;.4.>.1.1.1.=.q q w w =.3XSXeX7XvX;X2.2XNX2X5X3.i ",
"0Xy.p =.h.mXuX2.3.y.h.kXeX5XAXbX5.k i '.SXfXbXeX1XqXbXbXmXvXvXbXmXbX5X3XnXeX3Xg.3.eXd.1.=.0X5X%X=.u ",
"qX2.p 1.h.nXnXy.1.i.h.5X1X1.eXwX>.<.v g.nXvXnXvX1X3XbXuXvXmXfXfXmX0Xu.1.i.f.p.t.;.%X1XeX1.J.5X&X1.>."
};
