/* XPM */
static char *shoe[] = {
/* columns rows colors chars-per-pixel */
"50 50 219 2 ",
"   c #010101",
".  c #0A0B0B",
"X  c #0A0101",
"o  c #180101",
"O  c #141212",
"+  c #1A1A1B",
"@  c #250000",
"#  c #3C0000",
"$  c #300000",
"%  c #3E1717",
"&  c #1F2222",
"*  c #282726",
"=  c #3D3D3D",
"-  c #333333",
";  c #243737",
":  c #4A0101",
">  c #440000",
",  c #590101",
"<  c #750101",
"1  c #7D0707",
"2  c #690E0D",
"3  c #403F3F",
"4  c #492929",
"5  c #733737",
"6  c #6B3C3C",
"7  c #434242",
"8  c #5C5C5C",
"9  c #555454",
"0  c #514E4E",
"q  c #695D58",
"w  c #795D59",
"e  c #694D4D",
"r  c #6D645D",
"t  c #75685C",
"y  c #686766",
"u  c #766D65",
"i  c #7C746C",
"p  c #727071",
"a  c #7C7672",
"s  c #7A7A7A",
"d  c #797B7A",
"f  c #6C7777",
"g  c #890505",
"h  c #980404",
"j  c #841616",
"k  c #961B1B",
"l  c #A40101",
"z  c #AC0101",
"x  c #AA0D0D",
"c  c #B20101",
"v  c #BA0000",
"b  c #A71313",
"n  c #B31212",
"m  c #862828",
"M  c #983C3C",
"N  c #AA2828",
"B  c #C20202",
"V  c #C80000",
"C  c #D40101",
"Z  c #DC0000",
"A  c #DB1E1E",
"S  c #CA1515",
"D  c #E50000",
"F  c #EC0101",
"G  c #E50C0C",
"H  c #F30000",
"J  c #FD0101",
"K  c #FF0A0A",
"L  c #E21010",
"P  c #FD1616",
"I  c #D82424",
"U  c #DD3030",
"Y  c #FC2727",
"T  c #E43737",
"R  c #FD3333",
"E  c #914444",
"W  c #8A4F4F",
"Q  c #A84747",
"!  c #AB5757",
"~  c #B04141",
"^  c #896666",
"/  c #847B74",
"(  c #867E7A",
")  c #887876",
"_  c #966363",
"`  c #BE6D6D",
"'  c #A66C6E",
"]  c #D45454",
"[  c #FB4646",
"{  c #FD5252",
"}  c #FC5C5C",
"|  c #F35454",
" . c #C56868",
".. c #DB6363",
"X. c #FE6868",
"o. c #F97A79",
"O. c #8C837C",
"+. c #85817E",
"@. c #7D8585",
"#. c #838283",
"$. c #8C8583",
"%. c #8E8986",
"&. c #8D8B8B",
"*. c #928A85",
"=. c #948D8A",
"-. c #998E8A",
";. c #908780",
":. c #96918D",
">. c #9B938E",
",. c #959393",
"<. c #9A9593",
"1. c #9E9896",
"2. c #9D9B9B",
"3. c #979799",
"4. c #8C9090",
"5. c #A19A95",
"6. c #A29D9C",
"7. c #AA9393",
"8. c #B2898A",
"9. c #A5A09E",
"0. c #AAA29D",
"q. c #A29FA1",
"w. c #9BA6A7",
"e. c #A4A2A2",
"r. c #AAA5A4",
"t. c #AEA9A7",
"y. c #AAA6A9",
"u. c #ADAAAA",
"i. c #A5ABAB",
"p. c #B1ADAD",
"a. c #B6ABA8",
"s. c #B5B1AE",
"d. c #B9B3AF",
"f. c #AEADB1",
"g. c #B1AEB1",
"h. c #B4B3B3",
"j. c #B9B6B6",
"k. c #BBB8B6",
"l. c #B7B5B9",
"z. c #B9B7B9",
"x. c #B5BABB",
"c. c #BCBABB",
"v. c #A6B2B2",
"b. c #C88A8A",
"n. c #D58C8C",
"m. c #D49A9A",
"M. c #FF8C8C",
"N. c #FD8383",
"B. c #E29797",
"V. c #FD9999",
"C. c #E48888",
"Z. c #D9A9A9",
"A. c #C1BEBD",
"S. c #CBB9B9",
"D. c #DCB4B4",
"F. c #C9A0A0",
"G. c #F8ACAC",
"H. c #E8B3B3",
"J. c #FFB4B4",
"K. c #F8BBBB",
"L. c #C3C0BF",
"P. c #BEBDC2",
"I. c #C1BFC1",
"U. c #ADC4C4",
"Y. c #BFC0C4",
"T. c #B9C8C8",
"R. c #C4C2C4",
"E. c #C8C6C6",
"W. c #C5C5C9",
"Q. c #C9C7C9",
"!. c #C5CECE",
"~. c #CBCACC",
"^. c #CBC8C7",
"/. c #D2CDCD",
"(. c #CECED1",
"). c #D0CFD1",
"_. c #CDD3D5",
"`. c #CADADB",
"'. c #D3D3D4",
"]. c #D6D6D9",
"[. c #D8D7D9",
"{. c #D7D9DC",
"}. c #DBDBDD",
"|. c #D8D6D6",
" X c #D3D1CF",
".X c #ECC2C2",
"XX c #EACFCF",
"oX c #FDC4C4",
"OX c #FECDCD",
"+X c #F0CBCB",
"@X c #E0DFDF",
"#X c #FCD4D4",
"$X c #FDDBDB",
"%X c #E4E2DE",
"&X c #DDDEE1",
"*X c #CDDFE1",
"=X c #E0DFE1",
"-X c #DEE1E4",
";X c #D4E7E8",
":X c #DFF0F0",
">X c #E3E3E5",
",X c #E9E6E5",
"<X c #E5E6E9",
"1X c #E7E9EB",
"2X c #EBEBEC",
"3X c #E8E8E7",
"4X c #EFF0EE",
"5X c #F0F0EF",
"6X c #EEEFF0",
"7X c #F0EFF0",
"8X c #EEF0F2",
"9X c #ECFBFD",
"0X c #E7F1F1",
"qX c #F2F2F3",
"wX c #FFF3F2",
"eX c #F6F7F8",
"rX c #F1FCFD",
"tX c #FDFDFE",
"yX c #FFE8E8",
/* pixels */
">X1X1X&X%./ I.t.=.{.2X<X8X2X2X&X8X8XqXqX8X6X6X8X2X6X2X}.=X&Xz.z.2X6XA.E.2X>X(.P.(.(.=X2X8X<X&XP.!.-X",
"<X8X6X&X( $.P.I.I.1X6X2XqX6X1X[.1X}.2XeXqX6X6X8X6X2X).).[.2XI.6.).@X^.I.6X>X&X~.P.*X&X6X<X=X&X!.-X<X",
"<XqX6X8X5.<.].<X'.6X1X7XqX8X8X1X=Xz.=XeX2X,X6X8X6X=Xj.A.<X).6.6.j.=X~.^.4X,X&XI.~.&Xf.'.&X1X(.(.&X<X",
"1XqXqXeX&X'.6X).~.6X<X6X8X8X6X6X6X,X6XqX2X=X=XqX7X7X{.}.<Xp.^.'.z.=X}.t.g.^.W.&X(.6.q.P.].&X(.(.&X-X",
"6X6XqX8X8X2X<X2XqX2X3X<X3X3XqX1XqX2X8X2XqXqX7X7X>XE.'.2XqX).=XqX)./.).t.c.j.{.qXI.+.-.l.=X&XP.*X*X-X",
"2X2X8X8X7X7X2X4XqXqXqXqXqX2X8X8XqXqX7X,X4XeX7XqX7X2X4XqXqXeXqXqX8X6X2X=X@X[.@XqX<X&XW.[.2X<X&X&X<X1X",
"&X2X2X6X6X6X7X6X3X1X}.<X4X>X4X4X6XqX6X,X2X6X2XqX2X2X>X2X=X=X7XqX=X}.E.A.r.r.~.[.6.z./ a (.{.I.(.P.(.",
"&X6X6X6X2X4X7X2X,X}.c.2XqX7XqXqXqXeXtXtXtXtXtXeX,X,X,X4X<X,X>XeXW.).A.^.g.^.eX'.).4X).u g.8X<X&XI.].",
"=X2X<X&X>X}.}.}.h.5.O.>XeXqXeXqXqXtXc.#.s #.2.'.qXeXeX2XqX,X>X/.h.'.c.=.t.4XqX2X|.>X&X6.y.8X&X1X_.(.",
"6X1XW.(.[.p.^.^.L.>.O.A.tX>X}.%X>Xp           . 7 3.1XtX5X<XeX}.y./.>X6.t.'.3XqX-./ O.u ,.&X(.&X{.-X",
"6X=XI.(.'.t.>X0.a.k.) 0.>X^.c. Xu.O   .             + &.<X}.~.h.&.,.I.<.5.d.0.>X5.t / t =.].l.&X-X-X",
"=X}.~.].|.~.5X'.-.L. X X{.}.@X{.w ,                     * +           O * / *. X-.O.6.6.I.<X<X<X-X6X",
"=XqX8XqX=X=X2XeX^.0.%X5XqX>X~.*XN J < o           , C z o                   = <Xc.a.&X'.=X6X6X<X<X-X",
"<X1X6X=XP.c.>X>X X*.1.3XqX>Xs.w Z J J J V g @   : J J J B g <                 c.=X6._.&X{.2X=X].I.&X",
"=X=X=X=X).g.6.'.d.O.-.k.5XqXv.l J J J J J D D > z J H J J h C X               g.6Xl._.&X'.1X=X(.<X6X",
"].=X6X].I.5.^ c.r.O.O.a.4X9X' H J J J J K ^ n C B J J J J j Q @ o : > # $ , z a.eX(.Q.c.].&X>X(.].&X",
"A.>X~.c.Q.^.1.k.d.s.0.E.eX`.j J J J J J } #XJ D z J H K X..X;Xm D F J J J J F 8.9X).A.R.1X1X&X{.W.I.",
"R.{.2.*.a.-Xc.^.'.~.}.4XeXw.6 H J J J J K._ ] M. .{ } oXJ.U ) #Xm E J J J J J ! 9X}.2X7X}.>Xg.g.y.g.",
"<X2X>X|.'.1X2X4X>XE.0./.eXj.T.x J J J Y #Xj m.J.H.+XOX$XoXo.< m.>XH.J J J J J N 1X2XqX7X<X<X{.].(.~.",
"qXqX2X>XqXeXqXL.d. X5.A.eX<.0X7.C K J X.G.J D L S S J J Y V.F.F.U./.L J J J J B _.eX2X2X6X&Xa.y.=.<.",
",XqXc.t.2XqX1X/ *.c./ d.tXh.s.tXM J J V.o.J l g.wX,X$XOXG.OXm.~ k /.'.m.n.A J n P.rX6X8X8X&X2.=.a a ",
"<X'./ <.1X4X2X-.5.j.r a.eX4X4.tX{.b J K.} J J P J z n.X.[ M.C.h P +X] ] n.S.D 2 w.2X=X=X6X=X$.) / ( ",
"^.|.*.p.1XQ.2X}.^.L.q 0.tXtXA.<.tXu.v oX{ J J v ! G.H.M.} R { 8.U OXJ J G S.^ c.g.-X(.I.<X2X<.a *.,.",
"Q.=Xt.z.@XL.%X3X%X%XO.a.qXqX~.s L.tX_ D.X.J J B ! M. .n.wXoXyXb.~ oXH J I _.1Xu.}.6X&X_.&X6Xf.) 1.%.",
"=X}.g.u.).'.@X{.c.3X2X%XeXqX2XL.=.!.qX;Xo.J J J J J Z Q N.J P | q.o.J b -.0Xk.. l.tX<X&X=X2X6.<.z.=.",
"qX7XI.z.}.).=XE.L.}.~.}.eXqX2X2X@.% '.tXB.H K J v q wXXXK.+XG.oXb.h ! U.1X2.+   8 tX=X2XeX=Xz.<.O.( ",
"6X<X).<X).r.I.=X{.>X3X3X3XqXtX$.E P k ;X_.< J J H I R P ` #XK.$XH.*.4X>XR.      3 8X].<X<X<X6./ $.*.",
"&X1Xc.~.A.<.5.A.>X2XqXqX3X Xd 2 J K J N }.f h J J J 1 .XG. .[ Y R ] y [.=       f.qX].&Xz.&X=.-.u.6.",
"[.}.I.z.z.a.t.=.<X4XqX4X3.&.2X~.m D J c x.Q.3.l J J g I J c v J J J 5 ;     - W.tX<X{.].P.&X,.W.2X~.",
"<X=X(.z.I.;.t.>.@XeX|.4.R.tXtXtX0X5 C < D.$.1Xs v K J J J J h F J K T o = O z.tX7X<X{.I.(.6XP.].2X&X",
"6X6X{.z.r.-.g.-.^.^.3.qXtXtXtXtXtX1X4 g H. .E 9Xe D J J J J c c J F Z 2 4.O q.eX8X=XW.I.(.6X1X1X2X].",
"=X2X=X}.t.*.'.^.j.+.5XtXtXtXtXtXtXtXU.> D...C 7.9X5 H J J J v l z E y.1Xd - qX2X2X6X].~.&X6X-X-X2X&X",
"2X6X>X2X2X<X2X2X,Xp eXtXtXtXtXtXtXtXtXr R.U c e {.;X1 K J K < 4 U.tXtXtXtX&.}.qX2X8X6X>X6X6X6X6X8X}.",
"=X6X2X<X'.p.s.}.2Xd u.eXtXtXtXtXtXtXtX{.) m !.tXy 3XT.h J v 0 0XtXtXeXtXtX3X&.1X1X}.>X].&X1Xz.f.g.I.",
"=X6X6X<XE.u *.r.'.c.#.c.c.'.3XeX5X>XW.:.6.tX,X0   7 tXr.l W 9XtXtXtXtXtXtXtX).3.8X~.P.~.I.6Xe.p / h.",
"{.6X<X].~.%.%.$.s.6X3.s Q.~.c.c.x.x.|.|.'.p O .     y tX@.i.tXtXtXtXtXtXtXtXtXr.'.z.~.'.g.2X=X{.,.%.",
"&X2X=X~.I.W.6.^ 6.A.}.3.8 +.h.!.'.).u.&.O = ~./.-     y tXh.e.qXtXtXtXtXtXtXtX4.g.q.f.].2X2X8X6X&XI.",
"<X,X{.A.q.<X=Xp.1.h.~.tXs.a &.y.h.c.Y._.8 ^.{.qX'.y +   = qX2Xu.h.'.3X4XqX4XQ.& q.6.&.(.I.<X8X2X1X1X",
"2X=X).^.r.R.=XeXE.6.E.>X^.k.t.{.1XeX3X'.).~.k.>X/.R.k.d + . &.2X>X^.c.x.l.u.9 y =Xf.].I.f.=XqX6X1X>X",
"2X=X].}./.=X2X4X5X5X2X2X3Xs.;.'.1X4X^.).,X|.}.3X3X2X4XtXeXh.y y 4.y.p.e.+.y c.).I.6.].&X=X1X6X8X6X1X",
"<X[.z.A.^.@X4X<X,X%X3X2X|.>X'.3X{.2X=XR.z.'.<XqX<X[.=X<X4XeXeXeX&X).~.( r A.eXW.l.( >.y.(.2X1X=X<X&X",
"(.6X6Xg.I.=X[.<X{.<X5X2X{.^.E.3Xa.}.^.c.^.6.}.qX[.^.E.p.>X=X=X2X>X<X1X5.6.}.=XQ.@Xq.q.+.q.qX~.q.(.<X",
").=X{.A.R.<X<X3X2X>X>X>X-Xr.}.2X[.}.E.^.p.p.E.qX).[.<Xc.j.6./.}.>X>X6Xu.6.t.].(.=X=X=X=.q.&XP.#.,.<X",
"P.6X&X).6.u.7X2X2X,X<X3X}.~.R.'.<X1X[.c.j.c.r.3X}.|.r.r.z.h.6.k.&X>X7X].).(.[.R.2X=X2Xu.&.&XI.) %.l.",
"W.&X&X'.(.].<X<X'.^.2X>X2X>Xe.u.[.@X^.t.6.u.I.1X[.a.P.'.{.E.I.I.&X<X<Xz.~.-X<X&X1XI.y.<.i /.(.q.,.$.",
").~.P.z.>X(.[.=XR.t.=X=XqX>X6.r.r./.).c.h.I.^.1X}.~.(.'.[.].k.g.~.}.}.W.}.>X3X1X=X6.i =.&.Q.z.q.q.2.",
"}.^.I.].'.&X>X<X1X6X<X3X2X6X<X&X>X2X<X>X1X<X2X2X2X<X>X>X2X<X>X&X>X=X<X>X@XXX=X1X2X3XW.Q.=X=X=X).[.&X",
"c.q.,.6.r.>X=Xz.p.g.~.}.2X<X].'.A.6.6.~.2X@X<X>X~.'.|.>X<X>X}.(.&X3X3X[.=X2X6X=X].=XI.,.(.2X~.).6.y ",
").q.a ( l.2X&X,.6.q.z.=X&X).2X].>.u r k.qX}.>X}.I.'.>X>X<X=X&X>X=X&XR.R.].].(.z.2.&Xf.&.$.).(.P.#.y ",
"].1.a ,.z.<X2Xq.=.u.l.(.I.:.=X}.-.>.$.c.2X>X<X>XE.~.<X=X>X2X=X&X6X].y.,.g.l.y.q.%.P.I.&X:.A.(.P.,.&."
};
