/* XPM */
static char *wall[] = {
/* columns rows colors chars-per-pixel */
"50 50 171 2 ",
"   c #25352B",
".  c #2A3B2E",
"X  c #243629",
"o  c #2D3D32",
"O  c #303E34",
"+  c #2F4034",
"@  c #324335",
"#  c #344837",
"$  c #354539",
"%  c #39463C",
"&  c #37493A",
"*  c #3A4B3D",
"=  c #3D503F",
"-  c #404F3F",
";  c #394740",
":  c #3D4D41",
">  c #3E5142",
",  c #414E43",
"<  c #425345",
"1  c #465847",
"2  c #455549",
"3  c #4A564C",
"4  c #475949",
"5  c #4B5A4C",
"6  c #4A5547",
"7  c #525B4F",
"8  c #4D5C51",
"9  c #525D54",
"0  c #555D59",
"q  c #555953",
"w  c #4E604E",
"e  c #4F6153",
"r  c #536254",
"t  c #596557",
"y  c #556359",
"u  c #5A655B",
"i  c #5C695D",
"p  c #626559",
"a  c #6C645C",
"s  c #626C5F",
"d  c #5E6760",
"f  c #5E6B61",
"g  c #626D63",
"h  c #696D65",
"j  c #666E68",
"k  c #696D6B",
"l  c #656460",
"z  c #746B63",
"x  c #796D64",
"c  c #796F68",
"v  c #756E6D",
"b  c #637165",
"n  c #6B7167",
"m  c #66736A",
"M  c #6B746C",
"N  c #6D796E",
"B  c #7C756D",
"V  c #73796E",
"C  c #6C7670",
"Z  c #6E7A71",
"A  c #717673",
"S  c #7D7670",
"D  c #737C74",
"F  c #7E7876",
"G  c #757D79",
"H  c #7A7F7B",
"J  c #807167",
"K  c #80796E",
"L  c #837B74",
"P  c #857F79",
"I  c #758179",
"U  c #7C847E",
"Y  c #7D887F",
"T  c #728076",
"R  c #86817D",
"E  c #8A827C",
"W  c #7E8681",
"Q  c #848583",
"!  c #8B8582",
"~  c #838B85",
"^  c #8C8A85",
"/  c #858D89",
"(  c #8C8B89",
")  c #918A86",
"_  c #938D8C",
"`  c #988F8C",
"'  c #859087",
"]  c #87918A",
"[  c #8B948E",
"{  c #97918D",
"}  c #99938E",
"|  c #938F90",
" . c #8E9692",
".. c #8F9891",
"X. c #939492",
"o. c #9A9593",
"O. c #949A95",
"+. c #9C9996",
"@. c #969A99",
"#. c #9E9B9B",
"$. c #9A9699",
"%. c #A39D9C",
"&. c #A09894",
"*. c #97A099",
"=. c #9BA19D",
"-. c #A5A19E",
";. c #A9A19C",
":. c #A29FA1",
">. c #9DA6A1",
",. c #A4A3A3",
"<. c #AAA5A5",
"1. c #A3A9A4",
"2. c #ACA8A7",
"3. c #A9A6A9",
"4. c #A6ABA9",
"5. c #ADAAA9",
"6. c #B1ADAD",
"7. c #ABB1AB",
"8. c #B7B2AF",
"9. c #AFADB1",
"0. c #B0AEB1",
"q. c #AEB4B0",
"w. c #B4B3B4",
"e. c #B9B6B7",
"r. c #B3B8B5",
"t. c #BBB8B6",
"y. c #B7B6B9",
"u. c #B9B6B9",
"i. c #BCBABC",
"p. c #B7BCB9",
"a. c #C1BDBE",
"s. c #BDC1BE",
"d. c #BDBDC2",
"f. c #C0BEC0",
"g. c #BFC0C5",
"h. c #C4C3C4",
"j. c #C8C6C6",
"k. c #C5C9C7",
"l. c #C6C5C9",
"z. c #C9C7C9",
"x. c #C6CAC8",
"c. c #CBCBCC",
"v. c #D0CECF",
"b. c #CED1CE",
"n. c #D3D0CE",
"m. c #CDCED1",
"M. c #D0CFD2",
"N. c #CFD1D3",
"B. c #D3D3D5",
"V. c #D5D8D6",
"C. c #DAD8D7",
"Z. c #D5D6D9",
"A. c #D9D7DA",
"S. c #D7D8DB",
"D. c #DBDBDD",
"F. c #E2E0DF",
"G. c #DDDEE1",
"H. c #DFE0E4",
"J. c #E3E3E5",
"K. c #E8E6E5",
"L. c #E5E6E9",
"P. c #E9E6E9",
"I. c #E7E8EA",
"U. c #EBEBED",
"Y. c #EFF0EE",
"T. c #EEEEF0",
"R. c #F0EFF1",
"E. c #EFF0F2",
"W. c #F1F2F3",
"Q. c #F6F6F8",
"!. c #FCFCFD",
/* pixels */
"J.U.U.G.^ L f.2._ Z.I.I.E.U.U.G.T.E.W.W.E.U.E.Y.U.Y.I.D.G.G.t.i.U.R.a.j.I.L.Z.d.m.m.H.I.E.L.G.d.g.L.",
"L.T.T.G.L ^ f.f.h.U.U.T.E.T.I.S.U.D.U.Q.W.W.E.Q.Y.I.B.N.D.I.a.%.v.D.c.a.Y.J.S.z.h.Z.G.T.I.H.G.m.H.L.",
"L.W.T.W.o.o.A.L.V.U.U.E.W.E.E.I.J.i.J.Q.Y.N.K.k.U.U.e.s.L.v.%.%.w.J.c.c.U.L.Z.l.m.G.9.B.G.I.N.m.S.H.",
"I.W.E.Q.G.B.T.M.c.U.L.Y.E.E.Q.W.W.L.Y.U.D.' N r.V.7.c.c.R.6.h.Z.e.J.C.5.8.c.z.D.c.#.:.d.Z.G.c.m.H.L.",
"T.T.W.W.W.U.P.U.Q.I.I.H.L.H.V.k.x.U.!.b.q.s N N s > t i D x.I.W.B.c.v.2.i.w.D.W.j.P } y.G.S.g.Z.H.H.",
"I.U.R.W.R.R.U.Y.Y.E.Q.!.!.K.>.N N k.s.F.T r ~ D > 1 1 * # r r.!.J.Y.Y.F.D.D.D.W.L.G.z.S.T.I.G.H.H.I.",
"G.U.U.W.R.R.R.U.K.Y.k.4.' s s 6 5 i D 7.- Y t 5 4 = - 5 < * b 1.Y 1.I w.2.6.z.S.%.u.L B m.S.d.m.d.N.",
"S.T.T.U.U.Y.R.U.L.H.-.t & & & - @ 1 i - = w r w 1 1 * = * # * + r i < T s [ !.V.c.Y.B.z w.T.L.G.g.S.",
"L.U.L.G.J.F.D.F.0.} s 6 - & # @ 1 1 = = = w 1 - # = # 1 % @ - 1 * 1 5 + > 8 [ H.C.J.J.%.3.W.H.I.N.N.",
"T.I.l.m.Z.6.j.j.j.s 1 * % O & < < - - - # # * < * & @ - - * - & : # # < 5 > y U.} L E z o.G.c.G.S.H.",
"U.K.f.m.B.2.K.;.5.8.* * 1 $ * & & * - @ @ & o & 1 # . . . * - & & o o < 1 : y ..h J J z ) Z.y.G.H.H.",
"G.D.c.Z.Z.c.T.v.} ~ n 6 & & @ # = * @ . * * & > 4 * . @ & = & = 6 < * & & & o . p K +.%.f.L.L.L.L.I.",
"H.R.R.W.K.J.U.Q.n.D b = = * * < = = @ & 1 : 1 < * % - % # - & - < : < & & # 2 2 9 i V.Z.J.T.U.J.H.H.",
"L.P.I.K.e.e.K.K.s.n 5 6 1 # & - = * * - 1 > > > * & 6 - * - & - & @ & * # @ & 8 5 D Z.S.S.U.L.Z.g.H.",
"H.G.J.G.M.w.%.B.8.s < = * $ @ 6 < % 6 1 > = > < - = @ % - @ & $ O ; + & # o o o 5 X.Z.S.B.I.J.m.L.I.",
"B.L.U.Z.f.&.x a.;.r # & : * $ % : % 2 > 5 4 # & 6 u - @ 3 O , * : & o o o @ o 2 u w.A.t.B.G.H.c.S.H.",
"a.F.j.i.j.j.o.i.#.r & @ < < - = @ @ 0 < > 2 w f e y * * , : : , : @ # & & # @ > W C @.c.L.L.D.D.l.h.",
"h.D.%.) 8.U.f.c.s.f : * . 5 5 * < < 3 5 > > m C : : & 5 e > @ ; 6 * * 1 * : > f 4.> g.Q.D.J.0.w.3.0.",
"L.U.H.D.w.*.b.I.s.r > & . j b < 1 * < * : 2 d f 5 8 < 5 > 4 8 * # 1 > : : : > * 4 e >.Q.J.I.S.Z.z.z.",
"W.E.I.E.k.t b f e = * 6 & 6 e > : , < < 2 e : > ; : 2 ; & > @ * * , * % 1 & : : & * y E.Q.S.5.2.} o.",
"P.Y.a.+.Z 1 i * 5 6 < r 5 < = 6 1 > q G g * q f / : 3 3 & > 3 O . * * % & @ o o $ : I /  .~ ( ` B S ",
"L.B.E i * > 1 2 t s p 6 @ - < 1 : & 3 8 V M U r 8 : & 2 M 8 d < & < 2 2 ; o . o ; > 2 o + f M P S R ",
"c.V.` r e w 6 y 5 5 6 # * - 3 = * * 3 q Q C N g 1 + G D g u ; ; * u q o & o % ; $ O ; 8 > b u B ) o.",
"j.J.{ t Z 2 1 ~ T * 1 6 & 6 s , 8 0 0 h Q k 5 6 , % f g 9 , $ @ ; 8 o o o o ; 2 ; :  .4.u 5 5 Q +.^ ",
"H.D.A A t > 5 I Z 1 * > * # ; t j D M g d u l , % 3 2 > 8 q , 9 g g o O * @ o ; ; o 8 f ~ ~ k %.e._ ",
"W.Y.,.~ 5 5 1 X + 4 # & > & & 3 0 3 8 < % C #.8 O 4 1 + m W 8 h r ~ ; < > @ o $ : > 3 8 u q.e.o.R P ",
"U.L.Z.J./ u U N 4 . f s & & : < 7 5 i 8 * G Q , 9 : * # f [ m q 5 : + 4 5 < & & > > . 3 W l.<.S ! ) ",
"G.U.i.c.j.o.,.j.b + r s ; * ; 5 r > 1 6 r ~ A X.* 8 W 3 y W 1.D 9 % * 4 > < & O & > : : I c.` ` 6.%.",
"Z.D.f.e.w.6.%.E s 1 & @ * - , % > < 1 5 q % 3.3.3 r b 3 U ~ A r A g > > > ; ; + ; > > Z w.G.$.h.T.z.",
"P.H.m.e.h.E ( 7 w r 1 * , - # : 5 9 > : u O n u G * * 1 * ; & & 2 f 4 # 4 & & & > > 8 d.G.T.y.S.U.G.",
"U.R.Z.t.<.D b 1 5 1 6 $ % * O O < e 8 b 9 u R 6 < * 1 : , * 5 G 8 2 > : > & ; ; ; : C ] l.E.U.I.U.Z.",
"G.T.J.D.2.t 1 1 w 1 1 * * & @ < u u b e * h 9 & = * 4 8 , , 1 1 f 2 & : : 8 8 @ ; > d > W Q.G.H.U.G.",
"U.T.K.L.W.T + 1 > > # & 5 & & y 0 y e o @ D Z r & * 5 1 & ; 9 * i 9 : @ : y > O : ; + # e V.E.U.T.D.",
"J.T.P.L.S.R = # > > : 4 1 $ & @ # & & < 2 +.X.r 5 1 4 3 @ : r > = < : & $ 8 0 9 ; ; ; ; 8 g.g.7.0.h.",
"J.T.U.U.h.B t 9 & $ 2 u t 6 O % # 6 > < ; * * 6 > * * o & 6 5 & ; $ , 9 9 o $ f 8 o @ & =.Q.1.v L w.",
"Z.T.L.Z.v.R g n y < C Z 4 , @ ; * > * : @ < % @ O . o & > 2 r < : & o o 2 : + > > & > ; @.T.G.S.o.^ ",
"D.U.J.z.h.h.~ 7 D R q.I @ * + : 8 > # # & $ & o o & * 1 < > ; * $ ; O . @     ; > $ 0 : W W.E.U.G.f.",
"P.I.D.i.<.J.P.5.+.s.h.b < > & # > 6 : : $ O O @ o < 1 : : > & O o & @ + O O o ; ; ; : ; W U.W.U.L.L.",
"U.J.M.j.<.j.J.Q.h.;.i.r 5 * * o . : < : o o + & . 8 3 * @ + & & # O + ; o o ; ; > 8 m @.y.H.W.E.I.L.",
"I.K.B.D.c.D.K.U.Y.U.W.r.1 , & o @ O : * % $ $ $ @ * * * & @ @ & ; o O O o ; C m / X.Z.G.G.I.T.E.T.I.",
"L.Z.e.a.j.D.U.P.J.F.Y.T * < 1 # & & < & * @ # : +   & @ ; ; > ; + & $ O $ d p.f.f.R { 3.M.T.L.J.L.G.",
"M.T.T.w.h.F.D.J.D.P.!.=.= = r 1 ; & > & - * ; ; $   o O o ; : : ; ; ; o   ~ Z.M.A.:.:.R :.R.l.:.m.L.",
"M.J.S.a.j.L.L.I.U.F.L.b.b u 4 1 1 & r [ 5 o @ % $ o O ; & + : d $ ; > A @ G z.m.L.F.G._ :.G.u.! o.I.",
"i.U.D.m.%.2.R.U.U.J.P.U.N.O.8 5 f r ~ c.Z 2 : $ + + @ > 2 k 0 3 > & 3 G O  .K.h.P.L.I.5.| G.f.F ( 0.",
"z.D.G.B.c.Z.P.P.B.c.Y.J.E.J.=.,.c.8.i.2./ 9 : & 3 > ; [ j /  .> $ @ : @ @ [ T.S.L.j.5.$.c v.m.:.$.Q ",
"M.m.i.i.J.m.Z.J.j.<.G.F.U.H.-.2.2.D.B.u.y.>.Z f 5 4.G m < ~ 9.H d # i d u s.T.L.L.%.c ) _ z.t.:.:.$.",
"D.z.f.S.B.G.G.U.I.U.L.I.U.U.L.D.F.L.L.K.L.W.q.; & C C @ . ~ R.L.G.I W b.c.F.K.P.P.K.j.z.G.J.L.m.G.G.",
"i.:.$.#.3.K.G.e.6.6.c.D.U.L.Z.B.i.%.%.c.I.J.G. .e m d : O.Z.S.c.G.E.H.H.K.L.U.H.M.H.f.$.z.T.z.m.:.z ",
"M.,.S R y.I.G.o.%.,.e.H.D.M.P.Z.} x a t.W.D.K.K.u.l.=.8 p.U.D.J.H.D.j.g.Z.Z.m.i.$.G.9.| ! M.m.d.Q l ",
"Z.o.B o.y.L.U.:.| 3.y.m.h.{ G.D.} } ! a.U.J.P.G.h.B.I.b.N.W.G.G.Y.V.3.O.0.w.3.:.^ d.l.A.` i.m.g.| ( "
};
