/* XPM */
static char *bella[] = {
/* columns rows colors chars-per-pixel */
"50 50 212 2 ",
"   c #1D0000",
".  c #190908",
"X  c #0F1010",
"o  c #151515",
"O  c #1C1C1C",
"+  c #191919",
"@  c #0E0E0E",
"#  c #240402",
"$  c #2B0502",
"%  c #2E0906",
"&  c #2C0D0A",
"*  c #250A08",
"=  c #330401",
"-  c #3C0401",
";  c #350804",
":  c #3B0A06",
">  c #320D09",
",  c #3D0D09",
"<  c #2E100E",
"1  c #34110D",
"2  c #3D120E",
"3  c #291412",
"4  c #311411",
"5  c #391916",
"6  c #1F201F",
"7  c #20201F",
"8  c #1D2223",
"9  c #232323",
"0  c #2C2C2D",
"q  c #2A2524",
"w  c #3B2725",
"e  c #2F302F",
"r  c #343434",
"t  c #3A3A3A",
"y  c #410A06",
"u  c #430D09",
"i  c #410602",
"p  c #500E08",
"a  c #42130F",
"s  c #49120E",
"d  c #441511",
"f  c #4B1612",
"g  c #451814",
"h  c #4D1814",
"j  c #481E1A",
"k  c #531A15",
"l  c #5B1B15",
"z  c #541E1A",
"x  c #5F1E18",
"c  c #55150E",
"v  c #601D17",
"b  c #52211C",
"n  c #62221B",
"m  c #452B29",
"M  c #552722",
"N  c #552A26",
"B  c #502C28",
"V  c #49312F",
"C  c #5A322E",
"Z  c #4D3634",
"A  c #583B38",
"S  c #613935",
"D  c #643D39",
"F  c #3E403F",
"G  c #40403F",
"H  c #5C423E",
"J  c #56413D",
"K  c #67413C",
"L  c #444444",
"P  c #4A4B4A",
"I  c #4A4847",
"U  c #594644",
"Y  c #545554",
"T  c #5B5B5A",
"R  c #4F5350",
"E  c #674946",
"W  c #6B5852",
"Q  c #745A56",
"!  c #7A5E5B",
"~  c #775855",
"^  c #71504D",
"/  c #54735C",
"(  c #6C625C",
")  c #68625A",
"_  c #76655B",
"`  c #5E7263",
"'  c #666865",
"]  c #746C62",
"[  c #7A6C66",
"{  c #716F6C",
"}  c #7A6966",
"|  c #657669",
" . c #7C746C",
".. c #7B736A",
"X. c #706F70",
"o. c #767676",
"O. c #7C7D7D",
"+. c #797874",
"@. c #6C7A72",
"#. c #806763",
"$. c #856B66",
"%. c #82796F",
"&. c #87716D",
"*. c #827C75",
"=. c #857E79",
"-. c #8A7976",
";. c #927D78",
":. c #6C8371",
">. c #85817D",
",. c #8C847C",
"<. c #95817E",
"1. c #858583",
"2. c #8B8682",
"3. c #8E8984",
"4. c #8D8D8B",
"5. c #878888",
"6. c #928B85",
"7. c #988A87",
"8. c #938D8A",
"9. c #9B8E8D",
"0. c #918584",
"q. c #96918C",
"w. c #9A938D",
"e. c #949292",
"r. c #999592",
"t. c #9E9995",
"y. c #9D9C9B",
"u. c #969798",
"i. c #A08B85",
"p. c #A19B96",
"a. c #A29D9B",
"s. c #A79895",
"d. c #B09C95",
"f. c #A5A29D",
"g. c #A8A19B",
"h. c #A29FA1",
"j. c #A5A3A3",
"k. c #A9A5A3",
"l. c #ACA9A5",
"z. c #AEABAA",
"x. c #A9A6A8",
"c. c #B2ADAC",
"v. c #B8ABA7",
"b. c #B4B1AE",
"n. c #AFAEB0",
"m. c #B0AFB1",
"M. c #B4B3B3",
"N. c #B9B6B4",
"B. c #BBB9B6",
"V. c #B6B5B8",
"C. c #B8B7B9",
"Z. c #BCBBBB",
"A. c #C1BEBC",
"S. c #CBBFB8",
"D. c #C9BDB5",
"F. c #C3C1BD",
"G. c #CBC3BD",
"H. c #D2C2BC",
"J. c #BDBDC1",
"K. c #C1BFC1",
"L. c #BDC0C4",
"P. c #C4C3C4",
"I. c #C9C6C5",
"U. c #CAC8C7",
"Y. c #C6C6C9",
"T. c #C7C9CA",
"R. c #CBCBCC",
"E. c #C8C7C8",
"W. c #D2CDCC",
"Q. c #DACBC5",
"!. c #D5D1CB",
"~. c #CDCED0",
"^. c #D1CFD0",
"/. c #CED0D3",
"(. c #D3D4D4",
"). c #D9D7D6",
"_. c #DCDAD4",
"`. c #D5D7D9",
"'. c #D7D9DB",
"]. c #DBDCDC",
"[. c #D8D7D8",
"{. c #E1DFDE",
"}. c #E3DFD7",
"|. c #DAE9DB",
" X c #E3E2DD",
".X c #E6E4DB",
"XX c #DDDFE0",
"oX c #E0DFE0",
"OX c #DEE1E2",
"+X c #E3E4E5",
"@X c #E2ECE4",
"#X c #E9E9E5",
"$X c #E5E7E8",
"%X c #E6E9EA",
"&X c #EAECEC",
"*X c #E8E7E8",
"=X c #F1EDE4",
"-X c #F1EBE8",
";X c #ECF0EC",
":X c #E2F1E5",
">X c #F4F3EC",
",X c #FBF5EC",
"<X c #FAF8EF",
"1X c #F3F0E7",
"2X c #EDEFF0",
"3X c #EEF1F2",
"4X c #EEFAF2",
"5X c #F2F3F4",
"6X c #FFFDF4",
"7X c #F5F7F8",
"8X c #F7FBFB",
"9X c #FDFDFC",
/* pixels */
"OX%X&X].3.*.P.k.8.`.%X%X3X%X%XXX2X2X3X9X7X*X9X!.s.W.2X'.XXXXM.N.*X3XA.I.&X+X/.L././.OX%X3X%X'.L./.OX",
"$X3X;X].=.2.Z.P.L.%X2X%X3X2X*X`.$X'.5XW.I.9Xc.z p z c.`.XX3XY.j.W.'.E.Z.;X+X'.R.L./.'.2XOXOXOXL.OX@X",
"$X3X3X3Xt.r.`.+X(.2X&X3X5X2X3X3X3XY.&.u j } h c v p E ~.K.s.$.-.N.+XR.E.&X$X'.L.R.OXn./.OX%X/.T.'.@X",
"$X3X3X7X].(.&X~.R.&X+X&X2X7X&Xc.s.0., 2 2 = s k v l z S h - i i } &X).x.b.U.Y.XXR.y.f.L./.OX~.~.OXOX",
"2X2X5X2X5X&X#X&X5X*X*X+X&XU.D y y y f f h h a d k f d ; a H ^ N N `.~.x.Z.M.`.5XP.>.q.V.XX'.L.`.'.OX",
"%X%X2X5X3X&X&X&X2X5X5X5X5XD i b x v l l k k h a 2 d ; A R.XX$XXX;.^.5X*X].[.|.5X@X'.E.`.2X$X'.OXOX%X",
"XX%X&X5X2X2X5X&X*X*X[.2XI.u k l l l v x v l k h d , B z.~ M ^ Y.Z.< M p.l.k.E.`.a.Z.+. .R.'.J./.J./.",
"'.2X&X&X&X2X&X&X*X].N.7Xv.y k k h f f c l l l h d - E &.~ ! s j K.! U i.C.R.7X(.R.>X(.] b.3XOXOXL.'.",
"$X%X$XXXoX].].].M.p.,.>XW.a f a 2 2 2 d c b k h g h 9.].OX$XM.u E `./.R.N.].7X*X).+XOXf.x.3XOXOXL.L.",
"2X$XY.~.`.c.I.U.A.7.6.8.J a a 2 f f f f h u u h = } %X^.XX+X(.N u j j >.b.(.$X&Xw.%.,.] r.OXT.OXOXOX",
"%X+XL.R.(.l.+Xg.l.N.%.$ : f d f h g h h u K <.C ;.A.`._.7X7X`.H = : 2 5  .P.f._.t._ .._ 4.(.V.XXOX$X",
"OX].R.`.).R.2X!.6.R.3.: b a d f h g h y #..Xd.$.>XY.(.).&X#X].(.w.C , > & 0.6.W.6.,.a.y.P.@X%XOX@X4X",
"OX2X2X3X+X+X&X7XI.b.p.u k f 2 d h g : #.|.1X<.i.<XF.OXOX_.(.(.).+XE.N 1 # U ~. XA.c.OX/.OX2X%X$X$XOX",
"$X*X%X+XC.N.+X+X!.6.6.b f h d 2 d : K .X,X,XH.K #XD.! s.A.'.].{.`.$X<.= % V &X7X(.p./.OXXX%XOX`.L.XX",
"XXXX+XXX^.c.g.(.M.,.q.m s d 2 a 2 y -.}.l.F.6X#.d._.: y a E F.+X+X*Xt., % A &X&XOXZ./.'.(.$XOXR.$X%X",
"(.+X2X(.K.t.[ Z.f.,.W   2 d k k d b w R 4.0 >.G.v.<X^ = 2 : c.].].2X;.- $ ] 8X;X&X~.T.Z.(.OXOXR.`.'.",
"K.oXI.Z.E.I.t.B.b.b.w.w > k l k d k 3 :.9XX.0 [  X1X}.~ : s c.+X{.+X! = # a.9X5X*X(.J.P.$X$XOX`.Y.L.",
"P.`.y.6.c.].Z.R.(.I.&XQ = k l l d f 5 P ' | R w D.6X.X.XG._ , ! R.XXA ; % m R.9X%XXX%X2X`.+Xn.M.j.n.",
"*X*XOX`.!.*X*X&X+XI.g.J a a k v f a j P | :.R W $.9X,X1XF.g.C - #.A.d 1 4 # V 5X5X*X5X3X$X*X'.`.R.T.",
"5X2X&X+X5X8X7XF.b.!.q.H h f d k k a b >.' :.j.!.s.6X6Xq.b.o.' $.#.7.- 2 & < & ^.9X2X&X&X&X+Xl.x.q.w.",
"*X2XZ.l.&X7X*X%.6.B.*.4 j h a c f y D =XS.G.6X.X.X9X.XP y.4.e >.K.Y.S , 4 # V +X2X2X2X2X5X'.y.0. .+.",
"*X(.*.t.&X&X*X7.p.N.) & = 2 a s f f b H.,X,X,X=X<X6X!.Y / ` 0 Y ].$Xv.d % 4 J.%X(.XXOXXX2XXX2.=. .,.",
"E.).2.c.*XE.*X'.I.F.) ,.} : d k l k s a _.9X,X#X1X6X.X2.:.@.e [ oX+XM.> # r.5XoX$X'.~.P.$X2Xe...3.r.",
"Y.+Xk.N.].Z.*X*X|. X<.G.Z.$ g 2 f k k a &.,X6X6X6X6X9X,XQ.Q f M W.`.S U 5 R.&X&X3X$XOX/.].3Xz.=.t.3.",
"oX_.z.z.^.`.].].Z.*X&X].Z ; k 2 f k f 1   J _.!.}.=X}.H.&.u 2 : ! 7.- ^ U R.5X-X&X3X&X].OX%Xf.r.C.4.",
"5X2XK.V.'.~.{.I.Z.].R.*X} ; f > f h f 5 3 U =X,.& w 4 # ; d , j u Q b -.m *X5X5X5X7X$X%X7XOXZ.t.,.>.",
"2X+X~.$X^.k.Z.oX'.+X*X5XN.; > 1 f a &.q.0 .X X=X{ P ..# 5 2 2 h s K &.].w c.&X2X7X+X].$XOX$Xt. .,.6.",
"].&XZ.R.J.r.p.A.+X*X2X9Xv.K H $ 2 a Y ' O b.*X#XI +.p.* , d 2 h f H <.8X(.A.oX&X8X*X'.'.V.XX8.w.l.y.",
"`.XXK.C.V.l.g.q.+X>X&X5XF.q.&.$ f 3 O . q F x.=.0 T e . 1 d 2 j f a.^ I.4X7X@X3X5X*X(.(.L.XXe.P.%XT.",
"*XXXR.V.K.0.l.w.+X&X*X+XP.h.E ; d 9 o A ' 0 0 0 t F 9 3 * f : D } N.`.B.:X|.;X7X7X*X`.P.~.2XV.`.%X|.",
"&X2X[.Z.k.7.b.q.F.*X`._._.$X! ; j 8 q Z 5.e r e 0 T r t E % a ! E.B.9X@X|.:XOX;X5XXXP.J.~.2X%XOX&X`.",
"XX%XOX_.x.6.).U.M.(.!.+X*X8Xd.- 2 + q r.y.0 t t e ' X.X n.a.E 7.b.!.5XR.|.:X&X&X&X2X`.T.XX3XOXOX&XXX",
"&X2X$X%X&X+X&X*X*X2X*X5X5X5X&XS E -.o 5.h.q F F F T Y.r 9 u.b.;X|.5XR.].;X&X5X&X&X3X2XOX2X2X2X2X3X].",
"OX&X%X$X(.c.c.{.*X*X&X+X&X#X5XD.7.G.1.O ' 0 e e 0 t c.z.{ 0 t e.&XR.D.5X+X`.+X*X+X].+X`.'.%XZ.n.n.P.",
"XX2X&X&XP...7.k.Y.*X*X*X*X&X(.+XI.+XE.o X o o + O + { ,.p.w.T ' !.8.%X+X+X!.'.+X*XR.J.T.L.2Xj.{  .M.",
"`.2X*X`.R.3.,.,.N.+X*X2XW.Z.I.+X$X&X(.f.9 + 0 0 e q R g.w.D.#X`.A.^.&XI.E.b.I.`.+XM.R./.n.*XXX`.r.3.",
"XX&X+XY.P.P.a...a.A.R.5XR.] g.7X+X&XP.).I r t t t L I 6.q._.].].&X2X&Xb.6.p.`.I.R.a.z.`.%X%X3X&XOXL.",
"$X$X].Z.k.oXoXc.t.M.R.5Xc.8.N.].*X&X+XI.0 r t r e L G O.B.+X(.(.(.oX5Xc.] q.M.J.~.e.4.~.P.$X3X&X$X$X",
"*XoX^.Y.k.I.oX7XI.a.P.*XR.b.f.R.].&X+XV.q t t t 0 t r 5.7X+X[.+XP.R.&Xc...*.*.B.+Xx.`.L.n.OX3X3X%X$X",
"*X+X(.].R.].*X2X2X;X&X*X#Xc.6.`.*X&X'.y.9 r 0 r 0 t 0 =.9X*X+X*X*X+X&Xp._ ..(.I.K.t.`.`.OX%X2X2X&X%X",
"$X[.V.A.I.{.&X*X*X X*X&X). X`.*X].*X&X1.7 t 0 t 0 r 0 o.7X*X+X2X+X*X&Xt.%.F.3XT.M.=.e.l.R.&X$XOXOXOX",
"~.2X2Xm.K.].].+X'.*X2X&X).Y.P.*Xz.`.R.Y 9 r 0 r e r r T *X+X*X&XXXXX*Xw.t.'.XXE.].f.h.=.j.2XP.x./.OX",
"~.oX'.Z.P.$X$X*X*X+XoX+XXXj._.&X`.OXV.3 0 0 9 t r 6 r 6 2.k.E.'.+X+X&Xc.p.x.(.~.+X].oX8.a.].V.5.r.$X",
"J.&XXX~.a.k.2X&X&X+X*X&XXXR.P.(.OX7XO.@ O O o o O O + o I Z.f.M.XX+X2X`./.^.`.P.*X$X&Xx.8.'.P.+.3.M.",
"Y.].XX(.~.`.*X%X(.R.&X+X&X+Xk.z.`.].j.r.I + Y M.Y + o.L.M.K.A.P.].*X$XV.U. X$XXX+XY.z.r. .R.R.j.u.1.",
"^.R.Z.V.oX~.[.oXP.k.oXXX2XoXa.x.k.(.`.R.4.9 u.9Xn.3 e.$X].`.N.n.R.'.].Y.].+X*X$X+Xa.[ 6.8.Y.Z.a.h.u.",
"].P.K.`.^.XXXX%X&X&X*X*X&X2X+XXX{.*X+X&XM.9 m.8X'.e 5.3X$X*X+X].OXXX+X+X_.].*X*X$X$XY.T.OXOX$XT.`.XX",
"Z.j.u.y.x.+XoXC.z.c.Y.[.&X*X`.~.Z.a.p.`.Y.9 J.$X/.I O.3X+XOX]./.].*X*X_. X$X&X]./.+XJ.r.T.&XT.~.y.] ",
"~.f.+.=.V.%XXXe.y.j.V.XX].^.*X`.w.] ( D.`.F T.].Y.x.M.$X*XOX].OXOX].P.P.`.(.~.C.y.'.n.e.=.(.~.J.1.' ",
"`.r...e.V.*X$Xj.8.z.V.~.P.q.oX'.w.w.2.Z.OXZ.*X+XP.(.&X].+X&XXXXX&X`.x.u.z.V.x.h.5.J.P.].8.Z.~.J.e.5."
};
