/* XPM */
static char *floor[] = {
/* columns rows colors chars-per-pixel */
"50 50 102 2 ",
"   c #6B5E50",
".  c #6B645B",
"X  c #70655A",
"o  c #73685B",
"O  c #746C62",
"+  c #796F66",
"@  c #746E6B",
"#  c #7C7267",
"$  c #7C746C",
"%  c #7D7874",
"&  c #81796F",
"*  c #847C74",
"=  c #887E75",
"-  c #857F79",
";  c #87817C",
":  c #8C847B",
">  c #8F887F",
",  c #868381",
"<  c #8B8681",
"1  c #8E8984",
"2  c #8E8C89",
"3  c #938C85",
"4  c #988E87",
"5  c #938E8A",
"6  c #96918C",
"7  c #9A938C",
"8  c #959393",
"9  c #9A9592",
"0  c #9E9994",
"q  c #9E9B9B",
"w  c #A0988F",
"e  c #A19B96",
"r  c #A29D9B",
"t  c #A5A19D",
"y  c #AAA49E",
"u  c #A29FA1",
"i  c #A5A2A3",
"p  c #AAA6A3",
"a  c #ADA9A5",
"s  c #A9A6A8",
"d  c #ADABAA",
"f  c #B0AAA5",
"g  c #B0ADAC",
"h  c #B4B1AD",
"j  c #B8B4AE",
"k  c #AEADB0",
"l  c #B0AFB1",
"z  c #B5B3B3",
"x  c #B9B6B4",
"c  c #BBB8B6",
"v  c #B6B5B8",
"b  c #B8B7B9",
"n  c #BCBBBB",
"m  c #C0BEBB",
"M  c #C3C1BE",
"N  c #BDBEC1",
"B  c #C0BFC1",
"V  c #BEC0C3",
"C  c #C4C3C4",
"Z  c #C8C7C5",
"A  c #CAC8C6",
"S  c #C6C6C9",
"D  c #C8C7C8",
"F  c #C6C9CC",
"G  c #CBCBCC",
"H  c #D2CEC6",
"J  c #D0CECD",
"K  c #D3D1CE",
"L  c #DAD6CD",
"P  c #CDCED1",
"I  c #D0CFD1",
"U  c #CED0D3",
"Y  c #D3D3D4",
"T  c #D8D7D6",
"R  c #DAD9D6",
"E  c #D5D6D9",
"W  c #D8D7D9",
"Q  c #D6D9DC",
"!  c #DBDBDC",
"~  c #E0DFDE",
"^  c #E2E1DF",
"/  c #D7DCE0",
"(  c #DDDEE1",
")  c #E0DFE1",
"_  c #DEE1E4",
"`  c #E3E4E5",
"'  c #E8E7E4",
"]  c #E7E8E7",
"[  c #E8E8E7",
"{  c #E5E7E8",
"}  c #E6E9EB",
"|  c #EBECEC",
" . c #F0EFEF",
".. c #EFF0EF",
"X. c #F0F0EF",
"o. c #EEEFF0",
"O. c #F0EFF0",
"+. c #EEF1F2",
"@. c #F2F3F3",
"#. c #F6F7F8",
"$. c #F7F8F9",
"%. c #FAFAFB",
/* pixels */
"_ } | ! 1 * V p 5 E } } +.| | / +.o.@.@.o.| o.o.| o.| ! ( ( v c | o.m A } ` P N P P _ } +.} / V V } ",
"{ +.+./ ; , n C B | } | +.| _ / } / o.#.@.o.o.o.o.} I I W | B r J ~ D m o.` Q F V E / | } _ _ V _ } ",
"{ +.+.+.0 8 E { E | o.+.+.+.+.} ) b ( #.| { | O.o.) l n ) I e r z ) G D | { Q S F _ k U _ _ E F / { ",
"{ +.+.#.( Y | U F o.) o.+.+.+.o.o.{ o.o.o.) ( @.O.O./ ! | g S Y v ` Q a h A S / P q u N / _ V F / { ",
"o.+.+.+.+.[ [ | @.| | ) ] { O.| O.| O.o.O.O.O.o.` C I | O.I ( @.I G I a b z Q @.C ; 6 v / Q V E / / ",
"} | +.+...+...| O.O.o.@.O.| O.O.O.@.O.' O.#.O.@.O.|  . .#.#.O.o.O.@.| ~ ! ! ! o.` ! G Q | { Q _ _ } ",
"/ | | +.o.@.+.| ] | W ]  .` | | o.O.O.] O.O.O.#.| | ` | ) ) o.@.! ! C b s a G W t c % $ P Q N U v / ",
"/ | o.} | | +.[ ] ! c | @.O.@.@.@.#.#.#.O.O.O.O.' | ] O.` | ) #.S I m A z A #.Y G ..U O h +._ _ V / ",
"_ | _ _ ) ! ( ! l w 3 ~ %.@.#.@.@.@.o.| | ` ! @.' | #.O.O.' ) I z W n 5 a O.@.[ Y ' _ u s @._ } V V ",
"+.} C U E g Z D m 7 : m %.` ! ` W | | { | Q ! O. .@.O.O.O.{ O.I e C ! e g Y ' @.7 & : O 9 / F _ / _ ",
"| ` V G Y a ` r f x = y ` A m G b [ | ] } | @.O. .@. .| ) ) ] ) m m ` r 7 a y ` 0 o # o 1 E v / / } ",
"_ ! G E W H  .J 4 m J J T ! ) G a @.{ | C ) $.@.O.#.O.| | ) ] | ` W ~ z 4 p : J 3 : t q M { { _ } +.",
"_ o.o.@.` `  .#.H p ~ O.@.` G ` ! ] | { ` { | @.o.[  .@.O.) | ' @.@.Q c t A S ` n d _ U _ +.} { } _ ",
"_ { } ` b v ` ` J < w ' O.{ y f W | ` Q { { ] O.] ! ) ! n E ) ` @.| ) v c E } @.Y t Y / Q } _ Q V / ",
"_ ( ` ( I h t Y z : 7 m O.| G = J %.) W | o.@.@.! G B z J | T ) | | @._ Y { } o._ n U ! Y } _ F } } ",
"E _ o.Y B 0 + c p = : f O.| | < C $.{ ! | | @.@.Q C D Y J D G ! ` X.| { | } | @.| G F n Y _ _ P / / ",
"B ) S m Z S 0 c h h r A @.| ' A ( @.| { | } O.@.C 7 x | h x ~ '  . .^  . .| @.$.{ Y N C } } ! E F V ",
"B W r 3 g ( m D Y G !  . .| ! Z W ! ! | [ { | Q v ! ^ K 7 Y { ' X.@.` [ | | @.O.| ( } o.Q ` k z i l ",
"{ | ) W I | | | ` Z f H #.| ` ' T w 0 O.X.X. .' X.@.` y H $.O.#.%.@. . .| @.$.#.+.} @.+.} ` E T G G ",
"O.O.O.) O.#.#.m j K 7 m @.T ^ $.Z m C | @. .X.$.| ~ g r '  .Y M M R  . .| ~  .O.@.+.| | | _ d s 6 9 ",
"| O.m s | @.{ & 3 c * x #.J x [ ~ y j T Y A | $.! C A ` #.@.G : : m  .[ @.{ ` { +.o.| +.@.Q q 5 $ $ ",
") W * 9 | | | 4 e x   f %.@.T ~ ~ 4 o t y f ^  .@.[ Y A K @.J 3 = w ~ ' @.o.{ ( E / _ ( | _ < * & ; ",
"G W 1 l ] D [ ! Z m   y %.@.` R H y - f ~ c M Y A c | K 4 Z A 3 3 y Y ! [ { ) ` { Q U C } o.8 $ 1 8 ",
"D ) p x ( B ` ' ~ ~ 4 g @.@.M ~ ` g 4 m @.G ! m 7 R @.Y M y y 4 Y ^ M A ( ) ] | @.{ _ U Q +.d - q 1 ",
") W k f I Y ) W c | | ! @.@.[ H ^ A j [ [ f j y 4 M K A | m 3 e M X.H H ` [  .O...@.| / _ } r 9 v 2 ",
"O.O.B v W I ) S B ! G ! #.#. .[ ^ ^ [ X.@.H A j & 7 H : J | M A ~ | [ | | @.| @.@.$._ | $._ c 9 : * ",
"O.) I { W u B ) W ` [ [ '  .@.M n [ X.X. .` [ | ~ | | A ! X.~ m Z M '  . . .` O.$._ / _ _ } e & > 2 ",
"/ | B G m 7 e m ` | @.X.~ ` @.m f Z X. .X.X.@.@.X.~ ^ ` { R M C C J { { |  .` | $.| Q Q n / 6 7 d q ",
"E ! B b v f p 4 ` @.| @.A K | K t x | @. .~ T X.` m c T | Y W ~ ^ L C { @.| | @.@.| Q Y V / 9 V } F ",
"{ ) P b B < p 9 ^  .[ ` C a x ^ ! A ` X.` j y #.A v c T @.~ Y ! ^ ! ! | | [ | #.@._ Q V U o.v Q o./ ",
"| o.W b u 4 j 4 M { Y R ! ! t y @.[ ` X.@.Z y ' y m ` ) @.J m ! Z Y @.' | X.| +.+._ C V F +.} } } E ",
"( | ) / f 4 I D x T K { [ @.C t @.[ X.@.@.r y A : A ! { @.Y W T t K X.|  .| | | } ..E F Q o._ _ o./ ",
"| | { } | ) | | ) O.[ @.@.O.O.| O.#.@.#.O.) [ ~ T  .' [ #.' |  .) |  .@.| |  .o.| o.o._ o.o.o.o.+.Q ",
"( o.| { Y f h ) | | O.) | | [ | | O.] [ O.| | @. .~ h x ! ` ! ~ ' ` |  .{ T ` ' { ! ` W / } b d l V ",
") o.| { B & 3 p D | { | [ | T ~ ] [ ) { O.|  .T r ~ r & 7 r D W ` Y ) ` ` I Q ` { P N D V | s @ % z ",
"W o.{ E J < > - j ) ) @.I m D ) ) | W n ~ L ~ K > Z B e 0 c ` ) ] ~ [ A G g A W ` l G P k { ( Q 8 2 ",
"( | ) D B S u & r m I #.G O r #.) O.B m ) ] B ] J j e 9 4 W ) W ` O.O.l < e Y D F i k Q } } +.| _ V ",
"{ { W N s ) ) f w z G #.g 4 z ) { | ) [ O.J Y O.I r m s h ' Y W Y ) @.g + 7 z B G 8 2 U S { +.} } } ",
"| ) Y D p B ) #.B u B ) J h u J ! O.~ ~ ) S c ) J j m G  .' W ) C G | g # * * b _ s U V l _ #.+.} _ ",
"{ ) Y ! G ) |  .O.O.[ | [ g 3 Y [  .G I ) W ! o.|  .| O. .| ) | ' ` | e X # T S m q E Q _ _ o.o.} } ",
"{ W z m B ) | | ) ) [ | Y ) W ) W | ) B c I ) O.| W ) | O.| ) o.{ { o.e & m @.S b ; 8 s G | { _ _ _ ",
"P o.O.l B ) ! ) ~ |  .O.W D B | f ! S n D u ) O.W D B g ` ) { o.( ( ` 5 0 ! ( F Q r r - i +.S i U _ ",
"I ) W B S ] { { [ ) ) ) ) p ~ | ! ! Z S g g Z O.J W ] n x e J W ` { o.d q s T G { ! ~ 5 t ! v , 8 } ",
"N | / I r s o.| | ) |  .) G B Y ) | W m c c p | ! I s i n l r x / ` o.W Y G E C { { | d 6 / V % 2 l ",
"D ! / Y P E ] { I G O.) | ) s l W ) S i r s N { W s B I W Z B B Q ] ] b G ` { ! { C d 9 @ G G i 8 , ",
"P P N b ) I W ) S p ) ) O.) r i p I I n l B S { ! I I Y W E x l G Q ! D ! ^ [ } ` r + 3 5 F b q u q ",
"W Z B E Y ) ) { | | { { | o.{ ( ) | | ) | ] o.| o.] ) ' | ] { / ` ( { ) R ! ` ] } { Z F _ _ { U / Q ",
"n u 8 q s ) ) x k k D W | ] E I n r e G | ~ | ) D I ! ) ` ` Q P / ] ' ! ^ [ | _ U _ n 8 F | F P u . ",
"P i % ; v [ ( 9 q i v ( Q Y ] W 7 + . c @.Q ` ! B Y ` ) { ) / ` ( ( S C W Y P b 9 / k 2 , Y P N , . ",
"W 8 @ 8 v { } i 6 s v P C 5 ) Q 6 6 1 c | ` ] ) C G { ( ) o.( ( } W s 8 k z s u 2 N S / 5 n P N 8 2 "
};
